<?xml version="1.0" encoding="utf-8"?>
<!-- Generator: Adobe Illustrator 18.1.0, SVG Export Plug-In . SVG Version: 6.00 Build 0)  -->
<!DOCTYPE svg PUBLIC "-//W3C//DTD SVG 1.1//EN" "http://www.w3.org/Graphics/SVG/1.1/DTD/svg11.dtd">
<svg version="1.1" id="Layer_1" xmlns="http://www.w3.org/2000/svg" xmlns:xlink="http://www.w3.org/1999/xlink" x="0px" y="0px"
	 viewBox="-199 299 200 256" enable-background="new -199 299 200 256" xml:space="preserve">
<g>
	<polygon fill="#3F6A87" points="-135.9,508.7 -172.8,530.3 -172.8,487.1 	"/>
	<polygon fill="#F05D7D" points="-99,487.1 -135.9,508.7 -135.9,465.5 	"/>
	<polygon fill="#3BA0A8" points="-99,530.3 -135.9,551.9 -135.9,508.7 	"/>
	<polygon fill="#F37888" points="-135.9,508.7 -99,530.3 -99,487.1 	"/>
	<polygon fill="#F37888" points="-172.8,487.1 -135.9,508.7 -135.9,465.5 	"/>
	<polygon fill="#275E89" points="-172.8,530.3 -135.9,551.9 -135.9,508.7 	"/>
	<polygon fill="#F05D7D" points="-62.1,508.7 -99,530.3 -99,493.1 -99,487.1 	"/>
	<polygon fill="#F3C788" points="-25.2,487.1 -62.1,508.7 -62.1,465.5 	"/>
	<polygon fill="#3BA0A8" points="-25.2,530.3 -62.1,551.9 -62.1,508.7 	"/>
	<polygon fill="#8C537F" points="-62.1,508.7 -25.2,530.3 -25.2,487.1 	"/>
	<polygon fill="#F2A4B0" points="-99,487.1 -62.1,508.7 -62.1,465.5 	"/>
	<polygon fill="#275E89" points="-99,530.3 -62.1,551.9 -62.1,508.7 	"/>
	<polygon fill="#F37888" points="-99,443.9 -135.9,465.5 -135.9,422.2 	"/>
	<polygon fill="#F05D7D" points="-62.1,422.2 -99,443.9 -99,400.6 	"/>
	<polygon fill="#F37888" points="-62.1,465.5 -99,487.1 -99,443.9 	"/>
	<polygon fill="#F2A4B0" points="-99,443.9 -62.1,465.5 -62.1,422.2 	"/>
	<polygon fill="#F3C788" points="-135.9,422.2 -99,443.9 -99,400.6 	"/>
	<polygon fill="#8C537F" points="-135.9,465.5 -99,487.1 -99,443.9 	"/>
	<polygon fill="#8C537F" points="-182.4,432.9 -175,469.3 -159.5,462.2 -157.7,446.5 	"/>
	<polygon opacity="0.6" fill="#37A0A8" enable-background="new    " points="-191.7,398.5 -182.4,432.9 -157.7,446.5 	"/>
	<polygon fill="#3F6A87" points="-197.8,431 -182.4,432.9 -175,469.3 	"/>
	<polygon fill="#4C93CF" points="-191.7,398.5 -182.4,432.9 -197.8,431 	"/>
	<polygon fill="#8C537F" points="-40.3,446.5 -38.5,462.2 -23,469.3 -15.6,432.9 	"/>
	<polygon opacity="0.6" fill="#37A0A8" enable-background="new    " points="-6.3,398.5 -15.6,432.9 -40.3,446.5 	"/>
	<polygon fill="#3F6A87" points="-0.2,431 -15.6,432.9 -23,469.3 	"/>
	<polygon fill="#4C93CF" points="-6.3,398.5 -15.6,432.9 -0.2,431 	"/>
	<polygon fill="#F37888" points="-99,363.3 -125.4,338.5 -117.5,391.7 	"/>
	<polygon fill="#F2A4B0" points="-99,302.2 -99,363.3 -125.4,338.5 	"/>
	<polygon fill="#3F6A87" points="-99,363.3 -73.1,338.5 -81,391.7 	"/>
	<polygon opacity="0.8" fill="#37A0A8" enable-background="new    " points="-99,302.2 -99,363.3 -73.1,338.5 	"/>
	<polygon fill="#864A78" points="-81,391.7 -99,363.3 -117.5,391.7 -99,382.6 	"/>
	<polygon fill="#3F6A87" points="-148,412 -149.9,380.5 -172.7,370.7 	"/>
	<polygon fill="#8C537F" points="-137.4,374.4 -149.9,380.5 -148,412 -136.8,403.4 	"/>
	<polygon fill="#3B8EB9" points="-172.7,370.7 -158.1,346.6 -149.9,380.5 	"/>
	<polygon opacity="0.6" fill="#37A0A8" enable-background="new    " points="-137.4,374.4 -149.9,380.5 -158.1,346.6 	"/>
	<polygon fill="#3F6A87" points="-50.6,412 -48.7,380.5 -25.9,370.7 	"/>
	<polygon fill="#8C537F" points="-61.2,374.4 -61.8,403.4 -50.6,412 -48.7,380.5 	"/>
	<polygon fill="#3B8EB9" points="-25.9,370.7 -40.6,346.6 -48.7,380.5 	"/>
	<polygon opacity="0.6" fill="#37A0A8" enable-background="new    " points="-61.2,374.4 -48.7,380.5 -40.6,346.6 	"/>
</g>
</svg>
