<?xml version="1.0" encoding="utf-8"?>
<!-- Generator: Adobe Illustrator 16.0.0, SVG Export Plug-In . SVG Version: 6.00 Build 0)  -->
<!DOCTYPE svg PUBLIC "-//W3C//DTD SVG 1.1//EN" "http://www.w3.org/Graphics/SVG/1.1/DTD/svg11.dtd">
<svg version="1.1" id="Layer_1" xmlns="http://www.w3.org/2000/svg" xmlns:xlink="http://www.w3.org/1999/xlink" x="0px" y="0px"
	 width="200.16px" height="252.73px" viewBox="0 0 200.16 252.73" enable-background="new 0 0 200.16 252.73" xml:space="preserve">
<g>
	<polygon fill="#3F6A87" points="63.633,208.099 26.724,229.675 26.724,186.438 	"/>
	<polygon fill="#F05D7D" points="100.549,186.485 63.633,208.06 63.633,164.821 	"/>
	<polygon fill="#3BA0A8" points="100.549,229.72 63.633,251.295 63.633,208.059 	"/>
	<polygon fill="#F37888" points="63.633,208.099 100.549,229.675 100.549,186.438 	"/>
	<polygon fill="#F37888" points="26.724,186.485 63.633,208.06 63.633,164.821 	"/>
	<polygon fill="#275E89" points="26.724,229.72 63.633,251.295 63.633,208.059 	"/>
	<polygon fill="#F05D7D" points="137.459,208.099 100.549,229.675 100.549,192.48 100.549,186.438 	"/>
	<polygon fill="#F3C788" points="174.369,186.485 137.459,208.06 137.459,164.821 	"/>
	<polygon fill="#3BA0A8" points="174.369,229.72 137.459,251.295 137.459,208.059 	"/>
	<polygon fill="#8C537F" points="137.459,208.099 174.369,229.675 174.369,186.438 	"/>
	<polygon fill="#F2A4B0" points="100.549,186.485 137.459,208.06 137.459,164.821 	"/>
	<polygon fill="#275E89" points="100.549,229.72 137.459,251.295 137.459,208.059 	"/>
	<polygon fill="#F37888" points="100.549,143.249 63.633,164.821 63.633,121.586 	"/>
	<polygon fill="#F05D7D" points="137.459,121.632 100.549,143.21 100.549,99.971 	"/>
	<polygon fill="#F37888" points="137.459,164.867 100.549,186.438 100.549,143.202 	"/>
	<polygon fill="#F2A4B0" points="100.549,143.249 137.459,164.821 137.459,121.586 	"/>
	<polygon fill="#F3C788" points="63.633,121.632 100.549,143.21 100.549,99.971 	"/>
	<polygon fill="#8C537F" points="63.633,164.867 100.549,186.438 100.549,143.202 	"/>
	<polygon fill="#8C537F" points="17.11,132.28 24.569,168.692 40.043,161.592 41.82,145.861 	"/>
	<polygon opacity="0.6" fill="#37A0A8" points="7.822,97.913 17.11,132.28 41.82,145.861 	"/>
	<polygon fill="#3F6A87" points="1.734,130.388 17.11,132.28 24.569,168.692 	"/>
	<polygon fill="#4C93CF" points="7.822,97.913 17.11,132.28 1.734,130.388 	"/>
	<polygon fill="#8C537F" points="159.275,145.861 161.049,161.592 176.529,168.692 183.986,132.28 	"/>
	<polygon opacity="0.6" fill="#37A0A8" points="193.272,97.913 183.986,132.28 159.275,145.861 	"/>
	<polygon fill="#3F6A87" points="199.36,130.388 183.986,132.28 176.529,168.692 	"/>
	<polygon fill="#4C93CF" points="193.272,97.913 183.986,132.28 199.36,130.388 	"/>
	<polygon fill="#F37888" points="100.278,62.648 74.15,37.84 82.048,91.083 	"/>
	<polygon fill="#F2A4B0" points="100.311,1.569 100.278,62.648 74.15,37.84 	"/>
	<polygon fill="#3F6A87" points="100.311,62.648 126.441,37.84 118.543,91.083 	"/>
	<polygon opacity="0.8" fill="#37A0A8" points="100.278,1.569 100.311,62.648 126.441,37.84 	"/>
	<polygon fill="#864A78" points="118.543,91.083 100.311,62.648 100.294,72.32 100.278,62.648 82.048,91.083 100.294,82 	"/>
	<polygon fill="#3F6A87" points="51.568,111.411 49.632,79.889 26.851,70.018 	"/>
	<polygon fill="#8C537F" points="62.165,73.74 49.632,79.889 51.568,111.411 62.709,102.772 	"/>
	<polygon fill="#3B8EB9" points="26.851,70.018 41.49,45.958 49.632,79.889 	"/>
	<polygon opacity="0.6" fill="#37A0A8" points="62.165,73.74 49.632,79.889 41.49,45.958 	"/>
	<polygon fill="#3F6A87" points="148.908,111.411 150.843,79.889 173.624,70.018 	"/>
	<polygon fill="#8C537F" points="138.312,73.74 137.767,102.772 148.908,111.411 150.843,79.889 	"/>
	<polygon fill="#3B8EB9" points="173.624,70.018 158.986,45.958 150.843,79.889 	"/>
	<polygon opacity="0.6" fill="#37A0A8" points="138.312,73.74 150.843,79.889 158.986,45.958 	"/>
</g>
</svg>
