<?xml version="1.0" encoding="utf-8"?>
<!-- Generator: Adobe Illustrator 18.1.0, SVG Export Plug-In . SVG Version: 6.00 Build 0)  -->
<!DOCTYPE svg PUBLIC "-//W3C//DTD SVG 1.1//EN" "http://www.w3.org/Graphics/SVG/1.1/DTD/svg11.dtd">
<svg version="1.1" id="Layer_1" xmlns="http://www.w3.org/2000/svg" xmlns:xlink="http://www.w3.org/1999/xlink" x="0px" y="0px"
	 viewBox="0 0 195 245" enable-background="new 0 0 195 245" xml:space="preserve">
<g>
	<g>
		<polyline fill="#EF5D93" points="27.3,220.5 27.3,180.9 46,191.8 61.1,200.7 44.2,210.6 27.3,220.5 		"/>
		<polyline fill="#EF5D93" points="62.6,199.8 62.6,160.2 79.6,170.1 96.5,180 77.8,190.9 62.6,199.8 		"/>
		<polyline fill="#EF5D93" points="62.6,241.2 62.6,201.6 79.6,211.5 96.5,221.4 62.6,241.2 		"/>
		<polyline fill="#EF5D93" points="97,220.5 80.1,210.6 63.2,200.7 78.3,191.8 97,180.9 97,220.5 		"/>
		<polyline fill="#EF5D93" points="61.6,199.8 46.5,190.9 27.8,180 61.6,160.1 61.6,199.8 		"/>
		<polyline fill="#EF5D93" points="61.6,241.2 27.8,221.4 44.7,211.5 61.6,201.6 61.6,241.2 		"/>
		<polyline fill="#EF5D93" points="98,220.5 98,180.9 116.7,191.8 131.8,200.7 114.9,210.6 98,220.5 		"/>
		<polyline fill="#EF5D93" points="133.4,199.8 133.4,160.1 167.2,180 148.5,190.9 133.4,199.8 		"/>
		<polyline fill="#EF5D93" points="133.4,241.2 133.4,201.6 150.3,211.5 167.2,221.4 133.4,241.2 		"/>
		<polyline fill="#EF5D93" points="167.7,220.5 150.8,210.6 133.9,200.7 149,191.8 167.7,180.9 167.7,220.5 		"/>
		<polyline fill="#EF5D93" points="132.4,199.8 117.2,190.9 98.5,180 115.4,170.1 132.4,160.2 132.4,199.8 		"/>
		<polyline fill="#EF5D93" points="132.4,241.2 98.5,221.4 115.4,211.5 132.4,201.6 132.4,241.2 		"/>
		<polyline fill="#EF5D93" points="62.6,158.4 62.6,118.8 81.4,129.7 96.5,138.6 79.6,148.5 62.6,158.4 		"/>
		<polyline fill="#EF5D93" points="98,137.7 98,98 131.8,117.8 113.1,128.8 98,137.7 		"/>
		<polyline fill="#EF5D93" points="98,179.1 98,139.5 114.9,149.4 131.8,159.3 114.9,169.2 98,179.1 		"/>
		<polyline fill="#EF5D93" points="132.4,158.4 115.4,148.5 98.5,138.6 113.6,129.7 132.4,118.8 132.4,158.4 		"/>
		<polyline fill="#EF5D93" points="97,137.7 81.9,128.8 63.2,117.8 97,98 97,137.7 		"/>
		<polyline fill="#EF5D93" points="97,179.1 80.1,169.2 63.2,159.3 80.1,149.4 97,139.5 97,179.1 		"/>
		<polyline fill="#EF5D93" points="25.1,162.2 18.5,130.1 38.7,156 25.1,162.2 		"/>
		<polyline fill="#EF5D93" points="39.2,154.9 19.5,129.7 40.7,141.4 39.2,154.9 		"/>
		<polyline fill="#EF5D93" points="39.5,139.6 28.8,133.7 18,127.7 9.9,97.8 39.5,139.6 		"/>
		<polyline fill="#EF5D93" points="23.6,160.1 3.8,126.9 17.1,128.5 22.2,153.3 23.6,160.1 		"/>
		<polyline fill="#EF5D93" points="16.9,127.5 3.4,125.8 8.8,97.4 16.9,127.5 		"/>
		<polyline fill="#EF5D93" points="169.9,162.2 156.3,156 176.5,130.1 169.9,162.2 		"/>
		<polyline fill="#EF5D93" points="155.8,154.9 154.3,141.4 175.5,129.7 155.8,154.9 		"/>
		<polyline fill="#EF5D93" points="155.5,139.6 185.1,97.8 177,127.7 155.5,139.6 		"/>
		<polyline fill="#EF5D93" points="171.4,160.1 177.9,128.5 191.2,126.9 171.4,160.1 		"/>
		<polyline fill="#EF5D93" points="178.1,127.5 186.3,97.4 191.6,125.8 190.7,125.9 178.1,127.5 		"/>
		<polyline fill="#EF5D93" points="80.1,87.2 72.9,39 96.6,61.4 80.1,87.2 		"/>
		<polyline fill="#EF5D93" points="96.7,60.2 72.9,37.5 96.7,4.5 96.8,32.1 96.7,60.2 		"/>
		<polyline fill="#EF5D93" points="81.2,87.3 96.7,63.1 96.8,70.6 96.7,79.6 81.2,87.3 		"/>
		<polyline fill="#EF5D93" points="114.4,87.2 97.9,61.4 121.6,39 114.4,87.2 		"/>
		<polyline fill="#EF5D93" points="97.8,60.2 97.8,32.1 97.8,4.5 121.6,37.5 97.8,60.2 		"/>
		<polyline fill="#EF5D93" points="113.3,87.3 97.8,79.6 97.8,70.6 97.8,63.1 113.3,87.3 		"/>
		<polyline fill="#EF5D93" points="49.9,106 28.1,69.5 28.3,69.6 48.2,78.2 49.9,106 		"/>
		<polyline fill="#EF5D93" points="51,107.1 49.4,80 56.5,92.5 60.6,99.7 51,107.1 		"/>
		<polyline fill="#EF5D93" points="60.7,97.8 49.4,78.1 60.2,72.8 60.7,97.8 		"/>
		<polyline fill="#EF5D93" points="48,77 27.6,68.2 40.7,46.7 48,77 		"/>
		<polyline fill="#EF5D93" points="49.1,77.1 42,47.7 60,71.8 49.1,77.1 		"/>
		<polyline fill="#EF5D93" points="144.5,106 146.2,78.2 166.1,69.6 166.3,69.5 144.5,106 		"/>
		<polyline fill="#EF5D93" points="143.4,107.1 133.8,99.7 145.1,80 143.4,107.1 		"/>
		<polyline fill="#EF5D93" points="133.7,97.8 134.2,72.8 145,78.1 133.7,97.8 		"/>
		<polyline fill="#EF5D93" points="146.4,77 153.7,46.7 166.8,68.2 146.4,77 		"/>
		<polyline fill="#EF5D93" points="145.3,77.1 134.5,71.8 152.4,47.7 145.3,77.1 		"/>
	</g>
	<g>
		<path fill="#FFFFFF" stroke="#FFFFFF" stroke-width="0.5" stroke-miterlimit="10" d="M26.5,221.5l-0.3-0.1V180l0.3-0.1l0,0.6
			l0.3,0.1v40.2l-0.3,0.2L26.5,221.5 M26.8,220.8v-40.2l0.5,0.3v39.6l16.9-9.9L26.8,220.8 M44.7,211.5l16.9-9.9v0L44.7,211.5
			 M61.1,200.7L46,191.8L61.1,200.7L61.1,200.7 M46.5,190.9L27.8,180l0,0L46.5,190.9"/>
		<path fill="#FFFFFF" stroke="#FFFFFF" stroke-width="0.5" stroke-miterlimit="10" d="M62.6,199.8L62.6,199.8l15.1-8.9L62.6,199.8
			 M78.3,191.8l18.7-11v0L78.3,191.8 M96.5,180l-16.9-9.9L96.5,180L96.5,180 M80.1,169.2l-16.9-9.9l0,0L80.1,169.2"/>
		<path fill="#FFFFFF" stroke="#FFFFFF" stroke-width="0.5" stroke-miterlimit="10" d="M62.4,242.5l-0.3-0.1l0.5-0.3v-0.9l33.9-19.8
			l-16.9-9.9l17.7,10.3v0l0.3,0.1L62.4,242.5 M80.1,210.6l-16.9-9.9l0,0L80.1,210.6"/>
		<path fill="#FFFFFF" stroke="#FFFFFF" stroke-width="0.5" stroke-miterlimit="10" d="M97.3,221.8l-17.7-10.3l-16.9-9.9v-0.9v-0.3
			l15.4-9l-15.4,9v-0.6l15.1-8.9l18.7-11l0,0l0.5,0.3v40.9l-17.2-10.1L97,221.1v0.3l0.3,0.1L97.3,221.8 M80.1,210.6l16.9,9.9v-39.6
			v0l-18.7,11l-15.1,8.9l0,0L80.1,210.6"/>
		<path fill="#FFFFFF" stroke="#FFFFFF" stroke-width="0.5" stroke-miterlimit="10" d="M61.1,200.7L46,191.8l-18.7-10.9l-0.5-0.3
			V180l0,0l35.1-20.6l0,0.3l0.8,0.4v39.6v0v0.6l-0.2,0.1l-0.5-0.3l-0.3,0.2l-15.3-9l15.3,9L61.1,200.7 M61.6,199.8L61.6,199.8v-39.7
			L27.8,180l0,0l18.7,10.9L61.6,199.8 M62.6,200.7l-0.2-0.1l0.2-0.1V200.7 M26.8,180.6l-0.3-0.1l0-0.6l0-0.2L61.6,159v0.3l0.3,0.1v0
			L26.8,180l0,0V180.6"/>
		<path fill="#FFFFFF" stroke="#FFFFFF" stroke-width="0.5" stroke-miterlimit="10" d="M61.9,242.5l-35.4-20.7l0-0.3l0-0.5l0.3-0.2
			v0.5v-0.5l17.4-10.2l16.9-9.9l0,0l0.5-0.3l0.5,0.3l0,0l0,0l-0.5-0.3l0.3-0.2l0.5,0.3l-0.3,0.1l0,0l0,0l0.3-0.1l0.2,0.1v0.9v39.6
			v0.9l-0.5,0.3L61.9,242.5 M61.6,241.2L61.6,241.2v-39.7l-16.9,9.9l-16.9,9.9L61.6,241.2 M44.5,211.1l-17.7,10.4L44.5,211.1"/>
		<path fill="#FFFFFF" stroke="#FFFFFF" stroke-width="0.5" stroke-miterlimit="10" d="M97.3,221.5l-0.3-0.1v-0.3l0.3,0.1V221.5
			 M97.3,221.3l-0.3-0.1v-40.9l0.3,0.1v0l0.3,0.1v40.2l-0.3,0.2V221.3 M97.5,220.8v-40.2l0.5,0.3v39.6l16.9-9.9L97.5,220.8
			 M115.4,211.5l16.9-9.9v0L115.4,211.5 M131.8,200.7l-15.1-8.9L131.8,200.7L131.8,200.7 M117.2,190.9L98.5,180l0,0L117.2,190.9"/>
		<path fill="#FFFFFF" stroke="#FFFFFF" stroke-width="0.5" stroke-miterlimit="10" d="M133.4,199.8L133.4,199.8l15.1-8.9
			L133.4,199.8 M149,191.8l18.7-11v0L149,191.8 M167.2,180l-33.8-19.8v-0.6l34.3,20.1L167.2,180 M168.5,179.8l-0.1-0.1l0.1-0.2
			V179.8 M168.4,179.8l-0.4-0.2l-0.3,0.2l-34.3-20.1v-0.3V159l35.1,20.6L168.4,179.8"/>
		<path fill="#FFFFFF" stroke="#FFFFFF" stroke-width="0.5" stroke-miterlimit="10" d="M133.1,242.5l-0.3-0.1l0.5-0.3v-0.9
			l33.9-19.8l-17-9.9l17.7,10.3l0.5-0.3v0.3L133.1,242.5 M150.8,210.6l-16.9-9.9l0,0L150.8,210.6"/>
		<path fill="#FFFFFF" stroke="#FFFFFF" stroke-width="0.5" stroke-miterlimit="10" d="M168,221.8l-17.7-10.3l-16.9-9.9v-0.9v-0.3
			l15.4-9l-15.4,9v-0.6l15.1-8.9l18.7-11l0.5-0.3l0.5,0.3l0,0l0,0l-0.5-0.3l0.3-0.2l0.4,0.2l0.1,0.1l0.3,0.1v41.4l-0.3,0.1
			L168,221.8 M150.6,211.1l17.7,10.4L150.6,211.1 M150.8,210.6l16.9,9.9v-39.6v0l-18.7,11l-15.1,8.9l0,0L150.8,210.6"/>
		<path fill="#FFFFFF" stroke="#FFFFFF" stroke-width="0.5" stroke-miterlimit="10" d="M131.9,200.7l-15.1-8.8L98,180.9l-0.5-0.3
			v-0.3l0,0l0.3,0.1l17.7-10.3L98.5,180l0,0l18.7,10.9l15.1,8.8v-39.6l0.8-0.4v-0.3l0.3,0.1v0.6v39.7v0v0.6l-0.2,0.1l-0.5-0.3
			l-0.3,0.2l-15.3-9l15.3,9L131.9,200.7 M133.4,200.7l-0.2-0.1l0.2-0.1V200.7 M97.5,180.6l-0.3-0.1v0l0,0l0.3-0.1V180.6
			 M114.9,169.2l16.9-9.9l0,0L114.9,169.2 M133.4,159.5l-0.3-0.1v0l0.3-0.1V159.5"/>
		<path fill="#FFFFFF" stroke="#FFFFFF" stroke-width="0.5" stroke-miterlimit="10" d="M132.6,242.5L97.5,222l-0.3-0.1v0l0-0.3v-0.3
			l0.3,0.2l-0.3-0.2V221l0.3-0.2v0.5v-0.5l17.4-10.2l16.9-9.9l0,0l0.5-0.3l0.5,0.3l0,0l0,0l-0.5-0.3l0.3-0.2l0.5,0.3l-0.3,0.1l0,0
			l0,0l0.3-0.1l0.2,0.1v0.9v39.6v0.9l-0.5,0.3L132.6,242.5 M132.4,241.2L132.4,241.2v-39.7l-16.9,9.9l-16.9,9.9L132.4,241.2
			 M115.2,211.1l-17.7,10.4L115.2,211.1"/>
		<path fill="#FFFFFF" stroke="#FFFFFF" stroke-width="0.5" stroke-miterlimit="10" d="M61.9,159.4l-0.3-0.1V159v-41.1l0.3-0.1
			l0,0.6l0.3,0.1v40.2l-0.3,0.2L61.9,159.4 M62.1,158.7v-40.2l0.5,0.3v39.6l16.9-9.9L62.1,158.7 M80.1,149.4l16.9-9.9v0L80.1,149.4
			 M96.5,138.6l-15.1-8.9L96.5,138.6L96.5,138.6 M81.9,128.8l-18.7-10.9l0,0L81.9,128.8"/>
		<path fill="#FFFFFF" stroke="#FFFFFF" stroke-width="0.5" stroke-miterlimit="10" d="M98,137.7L98,137.7l15.1-8.9L98,137.7
			 M113.6,129.7l18.7-11v0L113.6,129.7 M131.8,117.8L98,98v-0.6l34.3,20.1L131.8,117.8 M133.1,117.7l-0.1-0.1l0.1-0.2V117.7
			 M133,117.6l-0.4-0.2l-0.3,0.2L98,97.4v-0.3l-0.5-0.3l0.3-0.1l35.4,20.8L133,117.6"/>
		<path fill="#FFFFFF" stroke="#FFFFFF" stroke-width="0.5" stroke-miterlimit="10" d="M97.8,180.4l-0.3-0.1L98,180v-0.3l17.2-10.1
			L98,179.7v-0.6l16.9-9.9l16.9-9.9l0,0l-16.9-9.9l17.7,10.3l0.5-0.3l0,0v0.3l-0.8,0.4l-16.9,9.9L97.8,180.4 M133.1,159.4
			L133.1,159.4L133.1,159.4L133.1,159.4 M115.4,148.5l-16.9-9.9l0,0L115.4,148.5"/>
		<path fill="#FFFFFF" stroke="#FFFFFF" stroke-width="0.5" stroke-miterlimit="10" d="M132.6,159.7l-17.7-10.3L98,139.5v-0.9v-0.3
			l15.4-9l-15.4,9v-0.6l15.1-8.9l18.7-11l0.5-0.3l0.5,0.3l0,0l0,0l-0.5-0.3l0.3-0.2l0.4,0.2l0.1,0.1l0.3,0.1V159v0.3l-0.3,0.1l0,0
			l-0.3-0.1l0.3,0.1L132.6,159.7 M115.2,148.9l17.6,10.4l0,0l0,0L115.2,148.9 M115.4,148.5l16.9,9.9v-39.6v0l-18.7,11l-15.1,8.9l0,0
			L115.4,148.5"/>
		<path fill="#FFFFFF" stroke="#FFFFFF" stroke-width="0.5" stroke-miterlimit="10" d="M96.5,138.5l-15.1-8.8l-18.7-10.9l-0.5-0.3
			v-0.6l0,0l35.3-20.7l0.5,0.3V98v39.7v0v0.6l-0.2,0.1l-0.5-0.3l-0.3,0.2l-15.3-9l15.3,9L96.5,138.5 M97,137.7L97,137.7V98
			l-33.8,19.8l0,0l18.7,10.9L97,137.7 M98,138.5l-0.2-0.1l0.2-0.1V138.5 M62.1,118.5l-0.3-0.1l0-0.6l0-0.2l35.4-20.8l0.3,0.1
			l0.5,0.3v0.3l-0.5-0.3l-35.3,20.7l0,0V118.5"/>
		<path fill="#FFFFFF" stroke="#FFFFFF" stroke-width="0.5" stroke-miterlimit="10" d="M97.3,180.4L97.3,180.4l-0.3-0.1l-0.5-0.3
			l-16.9-9.9l-16.9-9.9l-0.8-0.4l0-0.3l0.3-0.2v-0.5l17.4-10.2l16.9-9.9l0,0l0.5-0.3l0.5,0.3l0,0l0,0l-0.5-0.3l0.3-0.2l0.5,0.3
			l-0.3,0.1l0,0l0,0l0.3-0.1l0.2,0.1v0.9v39.6v0.6l-0.5,0.3l0,0l0,0l0.5-0.3v0.3l-0.5,0.3l0,0V180v0.3L97.3,180.4 M79.8,169.6
			L97.5,180l0,0l0,0L79.8,169.6 M97,179.1L97,179.1v-39.7l-16.9,9.9l-16.9,9.9l0,0l16.9,9.9L97,179.1 M62.1,159.3L62.1,159.3
			l17.7-10.3L62.1,159.3L62.1,159.3 M61.9,159.4L61.9,159.4l0-0.5l0.3-0.2v0.5L61.9,159.4"/>
		<path fill="#FFFFFF" stroke="#FFFFFF" stroke-width="0.5" stroke-miterlimit="10" d="M24.9,163.4l-0.5-0.3l0.8-0.3l-6.7-32.8
			l6.6,32.1l13.7-6.3l0.4,0.5l0.7-0.2l-0.1,0.3L24.9,163.4 M23.6,160.1L23.6,160.1l-1.4-6.8L23.6,160.1"/>
		<path fill="#FFFFFF" stroke="#FFFFFF" stroke-width="0.5" stroke-miterlimit="10" d="M39.1,156.5l-0.4-0.5l-20.2-25.9l-0.2-1
			l1.2,0.7l19.7,25.2l1.5-13.5l0.3,0.2l0.6-0.7l0.1,0.3L40,156.2l-0.2,0.1L39.1,156.5 M28.8,133.7l-10.8-6l0,0L28.8,133.7"/>
		<path fill="#FFFFFF" stroke="#FFFFFF" stroke-width="0.5" stroke-miterlimit="10" d="M41,141.5l-0.3-0.2l-21.2-11.7l-1.2-0.7
			l-0.2-1.1l0,0l0,0l-0.1-0.2l10.8,6l10.7,5.9L9.9,97.8l-0.4-1.4l31.7,44.7L9.5,96.3L9.2,95l-0.5,0l0.4-0.2l32.6,45.9l-0.1,0.1
			L41,141.5 M16.9,127.5L16.9,127.5L8.8,97.4l0,0L16.9,127.5"/>
		<path fill="#FFFFFF" stroke="#FFFFFF" stroke-width="0.5" stroke-miterlimit="10" d="M24.3,163.2L2.4,126.5l0.1-0.1l0.2,0.3l1,0.1
			l19.8,33.2l-1.4-6.8l-5.1-24.8l0.4,0l0.1-0.2l7.1,34.5l-7.1-34.5L18,128l0,0l0.2,1.1l0.2,1l6.7,32.8l-0.8,0.3L24.3,163.2
			 M24.7,163L24.7,163 M2.4,126.5l0.1-0.1l0,0.1L2.4,126.5"/>
		<path fill="#FFFFFF" stroke="#FFFFFF" stroke-width="0.5" stroke-miterlimit="10" d="M17.5,128.6l-0.4,0l-13.3-1.6l-1-0.1
			l-0.2-0.3l0-0.1l-0.2-0.2L8.2,95l0.5,0l0.5,0l0.4,1.3l-0.8-1.2l0.8,1.2l0.4,1.4l8.1,30l0,0l0.1,0.2l0,0l-0.4,0.5l-0.1-0.3
			L8.7,95.1l-5.8,31.1l5.8-31.1l8.9,32.9l0.1,0.3L17.5,128.6 M17.6,128.1L17.6,128.1 M16.9,127.5L16.9,127.5L8.8,97.4l0,0l-5.3,28.4
			L16.9,127.5"/>
		<path fill="#FFFFFF" stroke="#FFFFFF" stroke-width="0.5" stroke-miterlimit="10" d="M170.1,163.4l-14.8-6.8l-0.1-0.3l0.7,0.2
			l20.6-26.4l-6.7,32.8l0.8,0.3L170.1,163.4 M176.5,130.1L156.3,156l13.7,6.3L176.5,130.1 M171.4,160.1l6.5-31.6l0,0L171.4,160.1
			L171.4,160.1"/>
		<polyline fill="#FFFFFF" stroke="#FFFFFF" stroke-width="0.5" stroke-miterlimit="10" points="155.9,156.5 155.2,156.3 155,156.2 
			153.3,141.1 153.4,140.9 154,141.5 154.3,141.4 155.8,154.9 175.5,129.7 176.7,129 176.5,130.1 155.9,156.5 		"/>
		<path fill="#FFFFFF" stroke="#FFFFFF" stroke-width="0.5" stroke-miterlimit="10" d="M154,141.5l-0.6-0.7l-0.1-0.1l32.6-45.9
			l0.4,0.2l-0.5,0l-0.4,1.3l-31.7,44.7l31.7-44.7l-8.5,31.6l0,0l0,0l-0.2,1.1l-1.2,0.7l-21.2,11.7L154,141.5 M185.1,97.8l-29.6,41.8
			l21.5-11.8L185.1,97.8"/>
		<path fill="#FFFFFF" stroke="#FFFFFF" stroke-width="0.5" stroke-miterlimit="10" d="M170.7,163.2l-0.1-0.1l-0.8-0.3l6.7-32.8
			l0.2-1l0.2-1.1l0,0l0.4,0.5l-7.1,34.5l7.1-34.5l0.1,0.2l0.4,0l-6.5,31.6l19.8-33.2l1-0.1l0.3-0.4l0.1,0.1L170.7,163.2
			 M190.7,125.9l0.9-0.1L190.7,125.9"/>
		<path fill="#FFFFFF" stroke="#FFFFFF" stroke-width="0.5" stroke-miterlimit="10" d="M177.5,128.6l-0.1-0.2l0.1-0.3l8.9-32.9
			l5.8,31.1l-5.8-31.1l-0.5,0.1l0.5-0.1l-0.8,1.2l0.4-1.3l0.5,0l0.5,0l5.8,31.1l-0.2,0.2l-0.3,0.4l-1,0.1l-13.3,1.6l0,0L177.5,128.6
			 M186.3,97.4l-8.1,30.1l12.6-1.5l0.9-0.1L186.3,97.4 M177.4,128.4L177,128l0,0l8.5-31.6l0.8-1.2l-8.9,32.9L177.4,128.4"/>
		<path fill="#FFFFFF" stroke="#FFFFFF" stroke-width="0.5" stroke-miterlimit="10" d="M79.8,88.8l-0.5-0.1l-7.6-51l0.1-0.1l0,0.4
			l24.7,23.5L72.9,39l7.2,48.2l-0.7,1.1L79.8,88.8 M81.2,87.3l15.5-24.2L81.2,87.3L81.2,87.3"/>
		<path fill="#FFFFFF" stroke="#FFFFFF" stroke-width="0.5" stroke-miterlimit="10" d="M96.6,61.4L71.9,38l0-0.4l0-0.3L96.9,2.5
			l0.4,0.1l-0.5,0.2l0,0.8l-24.5,34l24.5-34l0,0.9L72.9,37.5l23.9,22.6l0-28.1l0,29L96.6,61.4 M97.8,32.1l0-27.7l0,0L97.8,32.1"/>
		<path fill="#FFFFFF" stroke="#FFFFFF" stroke-width="0.5" stroke-miterlimit="10" d="M80,89.1l-0.2-0.3l-0.4-0.5l0.7-1.1
			l16.5-25.7l0.2-0.3l0,0.2l0,0.7l-17,26.5l17-26.5l0,8.5l0-7.5L81.2,87.3l15.5-7.7l0,0.3l0.3,0.5l0.2-0.4L97,80.3l0.2,0.1L80,89.1
			 M97.8,79.6L97.8,79.6l0-9L97.8,79.6"/>
		<path fill="#FFFFFF" stroke="#FFFFFF" stroke-width="0.5" stroke-miterlimit="10" d="M114.8,88.8l0.4-0.5L97.9,61.4L122.7,38
			l0-0.4l0.1,0.1l-7.6,51L114.8,88.8 M97.9,61.4l16.5,25.8l7.2-48.2L97.9,61.4 M113.3,87.3L113.3,87.3L97.8,63.1L113.3,87.3"/>
		<path fill="#FFFFFF" stroke="#FFFFFF" stroke-width="0.5" stroke-miterlimit="10" d="M97.9,61.4l-0.2-0.4l-0.9,0.3l0-0.2l0-29
			l0-27.7l0-0.9l0.5-0.7l-0.5,0.7l0-0.8l0.5-0.2l0.4-0.1l25.1,34.7l0,0.3l0,0.4L97.9,61.4 M97.8,32.1l0,28.1l23.9-22.6L97.8,4.5l0,0
			L97.8,32.1 M97.3,2.9l25,34.7L97.3,2.9 M97.2,2.8l-0.4,0.3L97.2,2.8 M97.2,2.8L97.2,2.8L97.2,2.8L97.2,2.8L97.2,2.8"/>
		<path fill="#FFFFFF" stroke="#FFFFFF" stroke-width="0.5" stroke-miterlimit="10" d="M114.5,89.1l-17.3-8.6L97,80.3l0.2-0.4l0,0
			l0.5,0l-0.5,0l0,0L97,80.3l-0.3-0.5l0-0.3l0-9l0-8.5l0.5-0.7l0,9.3l0-9.3l17.5,27.2L97.3,61.4l0,9.3l0-9.3l-0.5,0.7l0-0.7l0.9-0.3
			l0.2,0.4l17.2,26.9l-0.4,0.5L114.5,89.1 M114.7,88.6L114.7,88.6 M113.3,87.3L113.3,87.3L97.8,63.1l0,7.5l0,9l0,0L113.3,87.3"/>
		<path fill="#FFFFFF" stroke="#FFFFFF" stroke-width="0.5" stroke-miterlimit="10" d="M50.1,108.3L26.5,68.7l0.1-0.1l0.1,0.3
			l0.2-0.5l-0.2,0.5l1.4,0.6L49.9,106l0.1,2.1l0.3,0.1L50.1,108.3 M48.2,78.2l-20-8.7L48.2,78.2L48.2,78.2 M48,77l-20.4-8.8L48,77"
			/>
		<path fill="#FFFFFF" stroke="#FFFFFF" stroke-width="0.5" stroke-miterlimit="10" d="M50.9,108.5l-0.5-0.2l-0.3-0.1l-0.1-2.1
			l-1.7-27.8l0,0l0.1,0.1l1,1.7l1.7,27.1l9.6-7.4l-4.1-7.2l4.3,7.5l0.8-0.2l-0.1,0.4L50.9,108.5 M50.6,108.1L50.6,108.1l0.5,0
			L50.6,108.1 M60.7,97.8L49.4,78.1l0,0L60.7,97.8L60.7,97.8"/>
		<polyline fill="#FFFFFF" stroke="#FFFFFF" stroke-width="0.5" stroke-miterlimit="10" points="60.8,100.1 56.5,92.5 49.4,80 
			48.4,78.3 48.5,78.3 48.7,78.2 48.9,78.3 49.4,78.1 60.7,97.8 60.2,72.8 60.7,72.5 61.3,99.8 60.7,72.5 61,72.4 61.1,71.9 
			61.2,72 61.8,99.8 61.6,99.8 60.8,100.1 		"/>
		<path fill="#FFFFFF" stroke="#FFFFFF" stroke-width="0.5" stroke-miterlimit="10" d="M48.5,78.3l-0.2-0.1l-0.1-0.1l-20-8.7
			l-0.1-0.1l-1.4-0.6l0.2-0.5l0.4,0.3l-0.4-0.3l-0.2,0.5l-0.1-0.3l-0.1-0.4l14-23l0.6,0.1l-0.6,0.3l0.1,0.5L26.9,68.4L40.6,46
			l0.2,0.7L27.6,68.2L48,77l0.2,1l0.5,0.2L48.5,78.3 M49.1,77.1L42,47.7L49.1,77.1L49.1,77.1"/>
		<path fill="#FFFFFF" stroke="#FFFFFF" stroke-width="0.5" stroke-miterlimit="10" d="M48.9,78.3l-0.3-0.1L48.2,78L48,77l-7.3-30.3
			L40.6,46l0.4-0.6L60.7,72l0,0.6l-0.5,0.2l-10.8,5.3l0,0L48.9,78.3 M42,47.7l7.1,29.5L60,71.8L42,47.7 M60.7,72.5l0-0.6l0.4-0.3
			l0,0.2L61,72.4L60.7,72.5 M60.7,72L60.7,72L40.9,45.4L40.6,46l-0.1-0.5l0.6-0.3l0.3-0.1l19.8,26.6L60.7,72"/>
		<path fill="#FFFFFF" stroke="#FFFFFF" stroke-width="0.5" stroke-miterlimit="10" d="M144.3,108.3l-0.3-0.1l0.3-0.1l0.1-2.1
			l21.8-36.5l1.4-0.6l0.1-0.3l0.1,0.1L144.3,108.3 M143.4,107.1L143.4,107.1l1.7-27.1l0,0L143.4,107.1 M146.2,78.2L146.2,78.2
			l20-8.7L146.2,78.2 M146.4,77L146.4,77l20.4-8.8L146.4,77"/>
		<path fill="#FFFFFF" stroke="#FFFFFF" stroke-width="0.5" stroke-miterlimit="10" d="M143.5,108.5l-10.7-8.3l-0.1-0.4l0.8,0.2
			l0.2-0.4l9.6,7.4l1.7-27.1l1-1.7l0.1-0.1l0,0l-1.7,27.8l-0.1,2.1l-0.3,0.1L143.5,108.5 M143.8,108.1L143.8,108.1l0.3-0.4
			L143.8,108.1 M133.7,97.8L133.7,97.8L145,78.1L133.7,97.8"/>
		<polyline fill="#FFFFFF" stroke="#FFFFFF" stroke-width="0.5" stroke-miterlimit="10" points="133.6,100.1 132.8,99.8 132.7,99.8 
			133.2,72 133.3,71.9 133.5,72.4 133.7,72.5 133.2,99.8 133.7,72.5 134.2,72.8 133.7,97.8 145,78.1 145.5,78.3 145.7,78.2 
			145.9,78.3 146.1,78.3 145.1,80 145.1,80 133.8,99.7 133.6,100.1 		"/>
		<polyline fill="#FFFFFF" stroke="#FFFFFF" stroke-width="0.5" stroke-miterlimit="10" points="145.9,78.3 145.7,78.2 146.2,78 
			146.4,77 166.8,68.2 153.7,46.7 153.9,46 167.5,68.4 153.9,46 154,45.5 153.4,45.2 153.9,45.1 168,68.1 167.5,68.4 168,68.1 
			167.8,68.5 167.7,68.9 166.3,69.5 166.1,69.6 146.2,78.2 146.1,78.3 145.9,78.3 		"/>
		<path fill="#FFFFFF" stroke="#FFFFFF" stroke-width="0.5" stroke-miterlimit="10" d="M145.5,78.3l-0.5-0.2l-10.8-5.3l-0.5-0.2
			l0-0.6l19.8-26.6l0.4,0.6l-0.2,0.7L146.4,77l-0.2,1l-0.5,0.2L145.5,78.3 M134.5,71.8l10.9,5.3l7.1-29.5L134.5,71.8 M133.7,72.5
			l-0.2-0.1l-0.1-0.6l0-0.2l19.8-26.6l0.3,0.1l0.6,0.3l-0.1,0.5l-0.4-0.6L133.7,72L133.7,72.5"/>
	</g>
</g>
<g>
</g>
<g>
</g>
<g>
</g>
<g>
</g>
<g>
</g>
<g>
</g>
<g>
</g>
<g>
</g>
<g>
</g>
<g>
</g>
<g>
</g>
<g>
</g>
<g>
</g>
<g>
</g>
<g>
</g>
</svg>
