<?xml version="1.0" encoding="utf-8"?>
<!-- Generator: Adobe Illustrator 18.1.0, SVG Export Plug-In . SVG Version: 6.00 Build 0)  -->
<svg version="1.1" id="Layer_1" xmlns="http://www.w3.org/2000/svg" xmlns:xlink="http://www.w3.org/1999/xlink" x="0px" y="0px"
	 viewBox="0 0 74.1 52.9" enable-background="new 0 0 74.1 52.9" xml:space="preserve">
<g id="Your_Icon">
	<path fill="#414141" d="M34.4,35.2L0,5.1C0,0.2,3.7,0,3.7,0h20.9h25.2h20.7c0,0,3.7,0.2,3.7,5.1L39.9,35.2c0,0-0.4,0.2-0.9,0.4v0
		c-0.6,0.2-1.2,0.3-1.8,0.3c-0.6,0-1.2-0.1-1.8-0.3v0C34.7,35.4,34.4,35.2,34.4,35.2z M37.1,42c-1.3,0-3.1-0.5-5.1-2.3
		C28.1,36.3,0,11,0,11v37.8c0,0,0,4.2,4.3,4.2c3.4,0,22.8,0,31,0c2.3,0,3.7,0,3.7,0c8.2,0,27.4,0,30.8,0c4.3,0,4.3-4.2,4.3-4.2V11
		c0,0-27.9,25.3-31.8,28.7C40.2,41.5,38.4,41.9,37.1,42z"/>
</g>
</svg>
