<?xml version="1.0" encoding="utf-8"?>
<!-- Generator: Adobe Illustrator 18.1.0, SVG Export Plug-In . SVG Version: 6.00 Build 0)  -->
<svg version="1.1" id="Layer_1" xmlns="http://www.w3.org/2000/svg" xmlns:xlink="http://www.w3.org/1999/xlink" x="0px" y="0px"
	 viewBox="0 177.5 612.8 437.7" enable-background="new 0 177.5 612.8 437.7" xml:space="preserve">
<g id="Your_Icon">
	<path fill="#414141" d="M284.1,468.3L0,219.7c0-40.5,30.6-42.1,30.6-42.1h172.6h208.1h171c0,0,30.6,1.7,30.6,42.1L329.5,468.3
		c0,0-3.3,1.7-7.4,3.3l0,0c-5,1.7-9.9,2.5-14.9,2.5c-5,0-9.9-0.8-14.9-2.5l0,0C286.6,469.9,284.1,468.3,284.1,468.3z M306.4,524.4
		c-10.7,0-25.6-4.1-42.1-19C232.1,477.4,0,268.4,0,268.4v312.2c0,0,0,34.7,35.5,34.7c28.1,0,188.3,0,256,0c19,0,30.6,0,30.6,0
		c67.7,0,226.3,0,254.4,0c35.5,0,35.5-34.7,35.5-34.7V268.4c0,0-230.4,209-262.6,237C332,520.3,317.1,523.6,306.4,524.4z"/>
</g>
</svg>
