<?xml version="1.0" encoding="utf-8"?>
<!-- Generator: Adobe Illustrator 18.1.0, SVG Export Plug-In . SVG Version: 6.00 Build 0)  -->
<svg version="1.1" id="Layer_1" xmlns="http://www.w3.org/2000/svg" xmlns:xlink="http://www.w3.org/1999/xlink" x="0px" y="0px"
	 viewBox="0 90 611.8 612.2" enable-background="new 0 90 611.8 612.2" xml:space="preserve">
<path id="White_2_" fill="#414141" d="M578.3,90H33.7C15.1,90,0,105.1,0,123.7v544.4c0,18.6,15.1,33.7,33.7,33.7h293V464.9H247
	v-92.4h79.8v-67.9c0-79.1,48.4-122,118.8-122c33.7,0,62.8,2.5,71.3,3.7v82.5H468c-38.3,0-45.9,18.1-45.9,44.9v58.9h91.5l-11.9,92.4
	h-79.6v237.1h155.9c18.6,0,33.7-15.1,33.7-33.7V123.7C612,105.1,596.9,90,578.3,90z"/>
</svg>
