<?xml version="1.0" encoding="utf-8"?>
<!-- Generator: Adobe Illustrator 18.1.0, SVG Export Plug-In . SVG Version: 6.00 Build 0)  -->
<svg version="1.1" id="M_logo" xmlns="http://www.w3.org/2000/svg" xmlns:xlink="http://www.w3.org/1999/xlink" x="0px" y="0px"
	 viewBox="0 0 120 95" enable-background="new 0 0 120 95" xml:space="preserve">
<path fill="#414141" d="M120,14h-4.7c-1.8,0-4.3,2.5-4.3,4.2v59c0,1.6,2.5,3.8,4.3,3.8h4.7v14H77V81h9V19h-0.4l-21,76H48.3L27.5,19
	H27v62h9v14H0V81h4.6C6.5,81,9,78.8,9,77.2v-59C9,16.5,6.5,14,4.6,14H0V0h45l14.8,55h0.4L75.1,0H120V14z"/>
</svg>
