<?xml version="1.0" encoding="utf-8"?>
<!-- Generator: Adobe Illustrator 18.1.0, SVG Export Plug-In . SVG Version: 6.00 Build 0)  -->
<svg version="1.1" id="M_logo" xmlns="http://www.w3.org/2000/svg" xmlns:xlink="http://www.w3.org/1999/xlink" x="0px" y="0px"
	 viewBox="0 153.8 612 484.5" enable-background="new 0 153.8 612 484.5" xml:space="preserve">
<path fill="#414141" d="M612,225.1h-24c-9.2,0-21.9,12.8-21.9,21.4v300.9c0,8.2,12.8,19.4,21.9,19.4h24v71.4H392.7v-71.4h45.9V250.6
	h-2L329.5,638.2h-83.1L140.2,250.6h-2.6v316.2h45.9v71.4H0v-71.4h23.5c9.7,0,22.4-11.2,22.4-19.4V246.6c0-8.7-12.8-21.4-22.4-21.4H0
	v-71.4h229.5L305,434.2h2l76-280.5h229V225.1z"/>
</svg>
