<?xml version="1.0" encoding="utf-8"?>
<!-- Generator: Adobe Illustrator 18.1.0, SVG Export Plug-In . SVG Version: 6.00 Build 0)  -->
<svg version="1.1" id="Layer_1" xmlns="http://www.w3.org/2000/svg" xmlns:xlink="http://www.w3.org/1999/xlink" x="0px" y="0px"
	 viewBox="-0.2 147.3 612.2 497.6" enable-background="new -0.2 147.3 612.2 497.6" xml:space="preserve">
<path fill="#414141" d="M612,206.2c-22.6,10.1-46.8,16.8-72.1,19.7c26-15.4,45.9-40.1,55.3-69.4c-24.4,14.3-51.3,24.8-79.9,30.4
	c-22.8-24.4-55.5-39.6-91.6-39.6c-69.4,0-125.6,56.2-125.6,125.6c0,9.8,1.1,19.5,3.4,28.7c-104.5-5.4-197-55.3-259-131.2
	c-10.7,18.6-17,40.1-17,63.1c0,43.7,22.2,81.9,56,104.5c-20.6-0.7-39.8-6.3-56.9-15.7c0,0.4,0,1.1,0,1.6
	c0,60.9,43.2,111.5,100.7,123.1c-10.5,2.9-21.7,4.5-33.1,4.5c-8.1,0-15.9-0.9-23.7-2.2c15.9,49.9,62.5,86.2,117.3,87.3
	c-43,33.6-97.1,53.7-156,53.7c-10.1,0-20.1-0.7-30-1.8c55.5,35.6,121.5,56.4,192.5,56.4c231,0,357.3-191.4,357.3-357.3
	c0-5.4-0.2-11-0.4-16.3C573.9,253.4,595.2,231.2,612,206.2z"/>
</svg>
