<?xml version="1.0" standalone="no"?>
<!DOCTYPE svg PUBLIC "-//W3C//DTD SVG 1.1//EN" "http://www.w3.org/Graphics/SVG/1.1/DTD/svg11.dtd" >
<svg xmlns="http://www.w3.org/2000/svg">
<metadata></metadata>
<defs>
<font id="brownthin_backslanted" horiz-adv-x="1159" >
<font-face units-per-em="2048" ascent="1638" descent="-410" />
<missing-glyph horiz-adv-x="512" />
<glyph unicode="&#xfb01;" horiz-adv-x="1163" d="M-41 881h287l-27 155q-24 134 -24 189q0 113 77.5 181.5t196.5 68.5q57 0 104 -13l-10 -35q-40 11 -94 11q-105 0 -170.5 -60.5t-65.5 -152.5q0 -35 25 -189l27 -155h616l156 -881h-39l-150 844h-577l149 -844h-39l-149 844h-287zM764 1208q0 26 17.5 44t43.5 18t44 -18 t18 -44t-18 -43.5t-44 -17.5t-43.5 17.5t-17.5 43.5z" />
<glyph unicode="&#xfb02;" horiz-adv-x="1163" d="M-41 881h287l-27 155q-24 134 -24 189q0 113 77.5 181.5t196.5 68.5q57 0 104 -13l-10 -35q-40 11 -94 11q-105 0 -170.5 -60.5t-65.5 -152.5q0 -35 25 -189l27 -155h577l-100 573h39l256 -1454h-39l-150 844h-577l149 -844h-39l-149 844h-287z" />
<glyph unicode="&#xfb03;" horiz-adv-x="1820" d="M-41 881h287l-27 155q-24 134 -24 189q0 113 77.5 181.5t196.5 68.5q57 0 104 -13l-10 -35q-40 11 -94 11q-105 0 -170.5 -60.5t-65.5 -152.5q0 -35 25 -189l27 -155h618l-26 155q-25 139 -25 189q0 113 77.5 181.5t196.5 68.5q58 0 105 -13l-10 -35q-40 11 -95 11 q-104 0 -169.5 -60.5t-65.5 -152.5q0 -42 24 -189l27 -155h617l155 -881h-39l-149 844h-578l150 -844h-39l-150 844h-618l149 -844h-39l-149 844h-287zM1421 1208q0 26 18 44t44 18t43.5 -18t17.5 -44t-17.5 -43.5t-43.5 -17.5t-44 17.5t-18 43.5z" />
<glyph unicode="&#xfb04;" horiz-adv-x="1820" d="M-41 881h287l-27 155q-24 134 -24 189q0 113 77.5 181.5t196.5 68.5q57 0 104 -13l-10 -35q-40 11 -94 11q-105 0 -170.5 -60.5t-65.5 -152.5q0 -35 25 -189l27 -155h618l-26 155q-25 139 -25 189q0 113 77.5 181.5t196.5 68.5q58 0 105 -13l-10 -35q-40 11 -95 11 q-104 0 -169.5 -60.5t-65.5 -152.5q0 -42 24 -189l27 -155h578l-101 573h39l256 -1454h-39l-149 844h-578l150 -844h-39l-150 844h-618l149 -844h-39l-149 844h-287z" />
<glyph horiz-adv-x="0" />
<glyph horiz-adv-x="682" />
<glyph unicode=" "  horiz-adv-x="512" />
<glyph unicode="&#x09;" horiz-adv-x="512" />
<glyph unicode="&#xa0;" horiz-adv-x="512" />
<glyph unicode="!" horiz-adv-x="491" d="M55 1434h39l180 -1024h-38zM246 51q0 29 21 50.5t50 21.5t50.5 -21.5t21.5 -50.5t-21.5 -50t-50.5 -21t-50 21t-21 50z" />
<glyph unicode="&#x22;" horiz-adv-x="759" d="M20 1434h39l86 -482h-39zM369 1434h39l86 -482h-39z" />
<glyph unicode="#" horiz-adv-x="1218" d="M57 528h236l102 377h-219l-6 37h236l133 492h39l-134 -492h392l133 492h39l-134 -492h220l6 -37h-236l-102 -377h219l6 -36h-235l-131 -492h-39l131 492h-391l-132 -492h-38l131 492h-220zM332 528h391l102 377h-391z" />
<glyph unicode="$" horiz-adv-x="1099" d="M61 1120q0 125 85 216t212 112l-36 221h38l37 -217q8 2 29 2q185 0 338 -129l-27 -29q-134 121 -311 121q-130 0 -227 -82.5t-97 -214.5q0 -44 13.5 -82t33.5 -65.5t56 -53t68 -42t83 -35t87.5 -29t95 -27.5t92.5 -28q78 -24 141 -59t115 -85t81 -120t29 -154 q0 -141 -97 -238t-243 -118l39 -220h-39l-39 218q-14 -2 -28 -2q-263 0 -455 204l29 27q78 -92 190 -143.5t236 -51.5q94 0 176.5 37.5t136 114t53.5 176.5q0 271 -340 379q-35 11 -96.5 29.5t-99 29.5t-91.5 31t-87.5 38t-71.5 46t-59 58.5t-35.5 73t-14.5 91.5z" />
<glyph unicode="%" horiz-adv-x="1609" d="M33 1141q0 131 93 222t228 91q152 0 252.5 -102.5t100.5 -259.5q0 -131 -93.5 -222.5t-228.5 -91.5q-151 0 -251.5 102.5t-100.5 260.5zM74 1141q0 -140 89 -233t222 -93q117 0 199 81t82 196q0 139 -89 232t-223 93q-117 0 -198.5 -80.5t-81.5 -195.5zM446 0l584 1434 h43l-581 -1434h-46zM836 342q0 131 93 222t228 91q151 0 251.5 -102.5t100.5 -259.5q0 -131 -93 -222t-228 -91q-151 0 -251.5 102.5t-100.5 259.5zM877 342q0 -140 89 -233t222 -93q117 0 198.5 80.5t81.5 196.5q0 140 -89 232.5t-222 92.5q-117 0 -198.5 -80.5 t-81.5 -195.5z" />
<glyph unicode="&#x26;" horiz-adv-x="1345" d="M109 1194q0 116 80.5 188t189.5 72q129 0 210 -84t81 -201q0 -92 -63.5 -179t-170.5 -159l678 -542q55 113 55 239q0 81 -24.5 165.5t-48.5 128.5l-25 44l37 19q4 -7 11 -19.5t24.5 -51.5t31 -78.5t24.5 -97t11 -110.5q0 -145 -65 -266l328 -262h-68l-281 225 q-73 -113 -193.5 -179t-275.5 -66q-143 0 -263 58t-191.5 163.5t-71.5 236.5q0 119 63.5 221t174.5 175q-55 44 -87 71.5t-69.5 65.5t-56.5 69t-32 71t-13 83zM150 1194q0 -42 17 -84t37.5 -72t62.5 -68.5t66 -57.5t73 -56q102 70 162.5 151t60.5 162q0 105 -71.5 176.5 t-178.5 71.5q-100 0 -164.5 -66t-64.5 -157zM170 438q0 -173 137.5 -297.5t347.5 -124.5q141 0 255 63.5t182 172.5l-693 557q-100 -63 -164.5 -158t-64.5 -213z" />
<glyph unicode="'" horiz-adv-x="411" d="M20 1434h39l86 -482h-39z" />
<glyph unicode="(" horiz-adv-x="849" d="M328 723q0 404 178 731l35 -20q-172 -321 -172 -711q0 -601 460 -1126l-30 -27q-471 540 -471 1153z" />
<glyph unicode=")" horiz-adv-x="849" d="M2 1427l31 27q471 -540 471 -1153q0 -404 -178 -731l-35 20q172 321 172 711q0 599 -461 1126z" />
<glyph unicode="*" horiz-adv-x="1003" d="M-25 1122l13 35l405 -127l-74 404h39l72 -402l361 125l12 -37l-348 -119l288 -329l-28 -25l-285 326l-186 -326l-33 19l184 325z" />
<glyph unicode="+" horiz-adv-x="1071" d="M113 551h391l-70 391h37l70 -391h391l6 -37h-391l67 -391h-36l-68 391h-391z" />
<glyph unicode="," horiz-adv-x="585" d="M264 -287l82 451h41l-82 -451h-41z" />
<glyph unicode="-" horiz-adv-x="839" d="M166 528h491l7 -36h-492z" />
<glyph unicode="." horiz-adv-x="552" d="M256 51q0 29 21.5 50.5t50.5 21.5t50 -21.5t21 -50.5t-21 -50t-50 -21t-50.5 21t-21.5 50z" />
<glyph unicode="/" horiz-adv-x="483" d="M10 0l420 1434h43l-420 -1434h-43z" />
<glyph unicode="0" horiz-adv-x="1208" d="M66 936q0 239 103 378.5t304 139.5q118 0 216 -58.5t163.5 -154.5t111 -222t65.5 -257t20 -264q0 -238 -103.5 -378t-304.5 -140q-118 0 -216 58.5t-163 154.5t-110.5 222t-65.5 257t-20 264zM106 936q0 -105 13.5 -210.5t41 -209.5t72 -193.5t102 -158.5t136.5 -108.5 t170 -39.5q180 0 273.5 128.5t93.5 353.5q0 105 -13.5 210t-41 209t-72 193.5t-102 158.5t-136.5 108.5t-170 39.5q-180 0 -273.5 -128t-93.5 -353z" />
<glyph unicode="1" horiz-adv-x="790" d="M-10 1241l305 193h18l252 -1434h-39l-241 1378l-289 -176z" />
<glyph unicode="2" horiz-adv-x="1060" d="M6 1200q45 115 152 184.5t231 69.5q169 0 288.5 -117t119.5 -297q0 -172 -133 -370l-426 -633h745l6 -37h-809l-4 20l449 664q66 97 98.5 181.5t32.5 174.5q0 157 -105 267t-262 110q-116 0 -210.5 -62.5t-137.5 -168.5z" />
<glyph unicode="3" horiz-adv-x="1105" d="M-10 1434h715l4 -21l-373 -534q58 12 129 12q205 0 346 -137t141 -340q0 -184 -125.5 -309t-316.5 -125q-127 0 -234 53.5t-174 146.5l35 21q63 -86 160.5 -135.5t212.5 -49.5q171 0 286 115t115 283q0 187 -130 313.5t-316 126.5q-105 0 -197 -31l-4 21l385 553h-653z " />
<glyph unicode="4" d="M31 430l622 1004h19l174 -988h246l6 -36h-246l72 -410h-39l-72 410h-778zM86 446h721l-160 904z" />
<glyph unicode="5" horiz-adv-x="1138" d="M158 707v727h637l6 -37h-602v-623q62 49 144.5 78t170.5 29q129 0 240 -62.5t176 -171.5t65 -237q0 -181 -129.5 -305.5t-320.5 -124.5q-112 0 -212.5 51.5t-168.5 138.5l29 25q61 -81 157 -130t197 -49q105 0 197.5 48.5t151 140t58.5 205.5q0 117 -60.5 217.5 t-162 158.5t-217.5 58q-92 0 -185 -38t-151 -99h-20z" />
<glyph unicode="6" horiz-adv-x="1210" d="M143 438q0 112 54 230l354 766h45l-297 -643q117 86 276 86q129 0 239.5 -60.5t176.5 -169t66 -239.5q0 -183 -129 -305.5t-322 -122.5q-194 0 -328.5 132.5t-134.5 325.5zM184 436q0 -174 122.5 -297t299.5 -123q175 0 292.5 112.5t117.5 279.5q0 120 -59.5 219.5 t-160.5 156t-221 56.5q-94 0 -176 -37t-141 -101l-22 -47q-52 -110 -52 -219z" />
<glyph unicode="7" horiz-adv-x="964" d="M-92 1434h858l4 -21l-436 -1413h-43l430 1397h-807z" />
<glyph unicode="8" horiz-adv-x="1167" d="M113 1137q0 133 99 225t247 92q157 0 266 -102.5t109 -257.5q0 -95 -52.5 -171.5t-140.5 -115.5q163 -27 270 -148t107 -288q0 -165 -119.5 -278t-300.5 -113q-192 0 -325.5 126.5t-133.5 315.5q0 124 71.5 221.5t190.5 140.5q-127 28 -207.5 124t-80.5 229zM154 1137 q0 -137 96.5 -230.5t236.5 -93.5q130 0 218 81.5t88 199.5q0 137 -97 230t-237 93q-130 0 -217.5 -81t-87.5 -199zM180 422q0 -170 121.5 -288t296.5 -118q163 0 271 103t108 252q0 170 -121.5 287.5t-296.5 117.5q-163 0 -271 -102.5t-108 -251.5z" />
<glyph unicode="9" horiz-adv-x="1169" d="M61 1026q0 183 129 305.5t322 122.5q194 0 328.5 -133t134.5 -326q0 -113 -53 -229l-355 -766h-45l297 643q-117 -86 -276 -86q-129 0 -239.5 60.5t-176.5 169t-66 239.5zM102 1026q0 -120 59.5 -219.5t160.5 -156t221 -56.5q94 0 176 36.5t141 100.5l23 47 q51 108 51 219q0 174 -122.5 297t-299.5 123q-175 0 -292.5 -112t-117.5 -279z" />
<glyph unicode=":" horiz-adv-x="552" d="M119 829q0 29 21 50.5t50 21.5t50.5 -21.5t21.5 -50.5t-21.5 -50t-50.5 -21t-50 21t-21 50zM256 51q0 29 21.5 50.5t50.5 21.5t50 -21.5t21 -50.5t-21 -50t-50 -21t-50.5 21t-21.5 50z" />
<glyph unicode=";" horiz-adv-x="585" d="M119 829q0 29 21 50.5t50 21.5t50.5 -21.5t21.5 -50.5t-21.5 -50t-50.5 -21t-50 21t-21 50zM264 -287l82 451h41l-82 -451h-41z" />
<glyph unicode="&#x3c;" horiz-adv-x="1071" d="M94 543l758 352l6 -39l-694 -319l807 -324l8 -43l-881 352z" />
<glyph unicode="=" horiz-adv-x="1071" d="M78 737h819l6 -37h-819zM143 369h820l6 -37h-819z" />
<glyph unicode="&#x3e;" horiz-adv-x="1071" d="M72 895l880 -352l4 -21l-757 -352l-6 39l694 319l-807 324z" />
<glyph unicode="?" horiz-adv-x="1015" d="M-16 1163q23 126 125.5 208.5t267.5 82.5q102 0 190.5 -41t145.5 -123.5t57 -189.5q0 -57 -19 -107t-50 -87t-68 -70.5t-74 -63.5t-68 -59.5t-50 -65.5t-19 -74q0 -47 30.5 -86.5t59.5 -58.5l-25 -29q-12 7 -27 20t-34.5 35t-32 53.5t-12.5 65.5q0 58 36 110t87 94 t102 85.5t87 104.5t36 133q0 140 -102 228.5t-250 88.5q-138 0 -234.5 -70t-117.5 -192zM467 51q0 29 21.5 50.5t50.5 21.5t50 -21.5t21 -50.5t-21 -50t-50 -21t-50.5 21t-21.5 50z" />
<glyph unicode="@" horiz-adv-x="2101" d="M156 512q0 184 70.5 350.5t190.5 287t285.5 192t348.5 71.5q174 0 333 -62.5t276.5 -169.5t187 -260t69.5 -325q0 -93 -18.5 -176.5t-55.5 -153.5t-100 -111.5t-144 -41.5q-158 0 -210 168q-131 -168 -334 -168q-178 0 -304 120.5t-126 296.5q0 162 109.5 271.5 t275.5 109.5t286 -120l-18 102h41l98 -559q14 -88 59.5 -136t122.5 -48q89 0 153.5 64t94 163t29.5 219q0 169 -68.5 316.5t-182 248t-263.5 158t-311 57.5q-138 0 -268 -43t-235 -123t-184.5 -186t-123 -238t-43.5 -274q0 -177 68.5 -337.5t183.5 -275.5t273 -183t331 -68 q276 0 493 168l23 -33q-107 -83 -240 -127.5t-278 -44.5q-183 0 -348.5 71.5t-285.5 192t-190.5 287t-70.5 350.5zM666 530q0 -161 115 -270.5t274 -109.5q107 0 190 52t131 128l-67 399q-55 65 -134 105t-165 40q-149 0 -246.5 -98.5t-97.5 -245.5z" />
<glyph unicode="A" horiz-adv-x="1351" d="M123 0l362 1434h19l868 -1434h-47l-297 489h-739l-125 -489h-41zM299 526h707l-498 824z" />
<glyph unicode="B" horiz-adv-x="1269" d="M35 1434h420q155 0 231 -39q88 -44 143.5 -127.5t55.5 -182.5q0 -88 -40 -157t-112 -113q110 -8 187 -39q113 -48 185.5 -157.5t72.5 -237.5q0 -166 -110.5 -273.5t-274.5 -107.5h-506zM80 1397l102 -578h373q119 0 184 47q105 78 105 219q0 86 -49.5 163t-126.5 114 q-72 35 -211 35h-377zM188 782l131 -745h467q151 0 251 96t100 248q0 114 -67 216.5t-171 145.5q-90 39 -260 39h-451z" />
<glyph unicode="C" horiz-adv-x="1517" d="M66 756q0 147 53.5 277t146 222t223 145.5t279.5 53.5q266 0 477 -180l-24 -29q-199 172 -453 172q-141 0 -264 -50.5t-210.5 -138.5t-137.5 -211t-50 -263q0 -145 56 -280t151.5 -236t232 -161.5t288.5 -60.5q175 0 326 71.5t243 197.5l33 -25q-99 -133 -256 -206.5 t-346 -73.5q-213 0 -391 108t-277.5 285.5t-99.5 382.5z" />
<glyph unicode="D" horiz-adv-x="1507" d="M35 1434h489q391 0 611 -226q106 -108 165.5 -246t59.5 -286q0 -302 -178 -483q-193 -193 -529 -193h-366zM80 1397l239 -1360h330q322 0 502 180q168 171 168 459q0 139 -56 270.5t-155 233.5q-211 217 -584 217h-444z" />
<glyph unicode="E" horiz-adv-x="1050" d="M35 1434h737l6 -37h-698l100 -578h557l6 -37h-557l133 -745h719l6 -37h-757z" />
<glyph unicode="F" horiz-adv-x="1003" d="M35 1434h737l6 -37h-698l100 -578h557l6 -37h-557l140 -782h-39z" />
<glyph unicode="G" horiz-adv-x="1568" d="M66 756q0 147 53.5 277t146 222t223 145.5t279.5 53.5q266 0 477 -180l-24 -29q-199 172 -453 172q-141 0 -264 -50.5t-210.5 -138.5t-137.5 -211t-50 -263q0 -145 56 -280t151.5 -236t232 -161.5t288.5 -60.5q175 0 320.5 67t240.5 191l-90 508h-535l-6 37h573l99 -559 q-99 -133 -256 -206.5t-346 -73.5q-213 0 -391 108t-277.5 285.5t-99.5 382.5z" />
<glyph unicode="H" horiz-adv-x="1517" d="M35 1434h39l108 -615h1037l-109 615h39l252 -1434h-39l-137 782h-1037l138 -782h-39z" />
<glyph unicode="I" horiz-adv-x="442" d="M35 1434h39l252 -1434h-39z" />
<glyph unicode="J" horiz-adv-x="976" d="M123 193l37 18q48 -90 128.5 -142.5t188.5 -52.5q109 0 187 60q88 69 88 194q0 48 -15 144l-180 1020h39l178 -1012q19 -104 19 -152q0 -145 -107 -225q-87 -65 -209 -65q-236 0 -354 213z" />
<glyph unicode="K" horiz-adv-x="1249" d="M35 1434h39l110 -627l711 627h61l-720 -635l1013 -799h-65l-996 782l138 -782h-39z" />
<glyph unicode="L" horiz-adv-x="1024" d="M35 1434h39l245 -1397h719l6 -37h-757z" />
<glyph unicode="M" horiz-adv-x="1691" d="M35 1434h18l813 -1051l439 1051h18l252 -1434h-39l-233 1323l-420 -995h-19l-770 983l232 -1311h-39z" />
<glyph unicode="N" horiz-adv-x="1527" d="M35 1434h18l1303 -1338l-236 1338h39l252 -1434h-18l-1301 1337l234 -1337h-39z" />
<glyph unicode="O" horiz-adv-x="1662" d="M66 758q0 144 50 272.5t144 224.5q97 97 223 148t267 51q147 0 286 -58t248 -169q109 -112 170.5 -256.5t61.5 -294.5q0 -143 -50 -272.5t-145 -225.5q-96 -96 -222.5 -147t-267.5 -51q-147 0 -286 58t-248 169q-108 111 -169.5 255.5t-61.5 295.5zM106 758 q0 -143 59.5 -282t162.5 -245q103 -104 234.5 -159.5t268.5 -55.5q125 0 248 49t213 140q89 89 136 213t47 258q0 143 -59.5 281.5t-162.5 244.5q-103 104 -234.5 159.5t-268.5 55.5q-126 0 -248.5 -48.5t-212.5 -139.5q-89 -89 -136 -213t-47 -258z" />
<glyph unicode="P" horiz-adv-x="1198" d="M35 1434h524q145 0 225 -41q93 -47 151 -135.5t58 -194.5q0 -170 -125 -262q-78 -60 -225 -60h-448l131 -741h-39zM80 1397l108 -619h455q126 0 199 51q110 78 110 234q0 94 -52 175.5t-136 121.5q-80 37 -205 37h-479z" />
<glyph unicode="Q" horiz-adv-x="1662" d="M66 758q0 144 50 272.5t144 224.5q97 97 223 148t267 51q147 0 286 -58t248 -169q109 -112 170.5 -256.5t61.5 -294.5q0 -246 -138 -432l264 -244h-61l-229 211q-98 -112 -232.5 -171.5t-288.5 -59.5q-147 0 -286 58t-248 169q-108 111 -169.5 255.5t-61.5 295.5z M106 758q0 -143 59.5 -282t162.5 -245q103 -104 234.5 -159.5t268.5 -55.5q136 0 269 58t223 164l-440 407l28 31l437 -406q127 174 127 406q0 143 -59.5 281.5t-162.5 244.5q-103 104 -234.5 159.5t-268.5 55.5q-126 0 -248.5 -48.5t-212.5 -139.5q-89 -89 -136 -213 t-47 -258z" />
<glyph unicode="R" horiz-adv-x="1290" d="M35 1434h461q155 0 231 -39q88 -44 143.5 -127.5t55.5 -182.5q0 -158 -119 -247q-71 -56 -213 -56h-29l725 -782h-53l-727 782h-324l140 -782h-39zM80 1397l100 -578h416q119 0 184 47q105 78 105 219q0 86 -49.5 163t-126.5 114q-72 35 -211 35h-418z" />
<glyph unicode="S" horiz-adv-x="1110" d="M61 1120q0 143 107.5 238.5t257.5 95.5q185 0 338 -129l-27 -29q-134 121 -311 121q-130 0 -227 -82.5t-97 -214.5q0 -44 13.5 -82t33.5 -65.5t56 -53t68 -42t83 -35t87.5 -29t95 -27.5t92.5 -28q78 -24 141 -59t115 -85t81 -120t29 -154q0 -105 -56 -188t-148.5 -127.5 t-202.5 -44.5q-263 0 -455 204l29 27q78 -92 190 -143.5t236 -51.5q94 0 176.5 37.5t136 114t53.5 176.5q0 271 -340 379q-35 11 -96.5 29.5t-99 29.5t-91.5 31t-87.5 38t-71.5 46t-59 58.5t-35.5 73t-14.5 91.5z" />
<glyph unicode="T" horiz-adv-x="1001" d="M-129 1434h940l6 -37h-450l245 -1397h-39l-245 1397h-451z" />
<glyph unicode="U" horiz-adv-x="1488" d="M25 1434h38l158 -891q46 -259 190 -393t377 -134q196 0 330.5 120t134.5 304q0 55 -14 144l-149 850h38l148 -844q18 -99 18 -154q0 -129 -68 -234t-184 -163.5t-254 -58.5q-254 0 -406 142t-200 415z" />
<glyph unicode="V" horiz-adv-x="1273" d="M-119 1434h47l785 -1348l311 1348h41l-332 -1434h-18z" />
<glyph unicode="W" horiz-adv-x="1906" d="M-119 1434h45l664 -1325l180 1325h18l652 -1328l196 1328h41l-213 -1434h-18l-649 1321l-181 -1321h-18z" />
<glyph unicode="X" horiz-adv-x="1236" d="M-10 1434h53l512 -611l303 611h47l-319 -646l661 -788h-53l-629 748l-372 -748h-46l390 782z" />
<glyph unicode="Y" horiz-adv-x="1075" d="M-133 1434h53l574 -682l331 682h45l-352 -727l123 -707h-39l-123 705z" />
<glyph unicode="Z" horiz-adv-x="1224" d="M-10 1434h919l4 -21l-684 -1376h967l8 -37h-1024l-4 20l684 1377h-864z" />
<glyph unicode="[" horiz-adv-x="849" d="M180 1434h418l6 -37h-379l314 -1770h379l6 -37h-418z" />
<glyph unicode="\" horiz-adv-x="987" d="M10 1434h49l918 -1434h-49z" />
<glyph unicode="]" horiz-adv-x="849" d="M-90 1434h418l325 -1844h-417l-7 37h379l-313 1770h-379z" />
<glyph unicode="^" horiz-adv-x="1044" d="M131 717l234 717h18l485 -717h-47l-438 643l-209 -643h-43z" />
<glyph unicode="_" horiz-adv-x="901" d="M137 0h799l8 -37h-799z" />
<glyph unicode="`" horiz-adv-x="530" d="M143 1311h45l199 -267h-45z" />
<glyph unicode="a" d="M102 463q0 187 126 312.5t317 125.5q99 0 187.5 -42t148.5 -107l-23 129h39l156 -881h-39l-31 182q-62 -87 -161 -144.5t-222 -57.5q-138 0 -252 63t-180 174t-66 246zM143 463q0 -189 133.5 -318t323.5 -129q125 0 220 60t153 149l-84 469q-63 77 -153 123.5t-191 46.5 q-174 0 -288 -115t-114 -286z" />
<glyph unicode="b" horiz-adv-x="1161" d="M20 1454h39l129 -756q62 87 161 145t222 58q138 0 252 -63t180 -174t66 -246q0 -187 -125.5 -312.5t-316.5 -125.5q-99 0 -187.5 42t-148.5 107l22 -129h-39zM199 655l84 -469q63 -77 153 -123.5t191 -46.5q174 0 287.5 115.5t113.5 286.5q0 189 -133.5 317.5 t-323.5 128.5q-125 0 -219.5 -60t-152.5 -149z" />
<glyph unicode="c" horiz-adv-x="1054" d="M102 463q0 121 64 222.5t170.5 158.5t230.5 57q164 0 295 -106l-24 -29q-117 98 -271 98q-79 0 -155 -29t-136 -80t-96.5 -127.5t-36.5 -164.5q0 -185 123 -316t316 -131q107 0 205 48.5t165 136.5l31 -23q-71 -94 -175.5 -146t-225.5 -52q-141 0 -252 66.5t-169.5 176.5 t-58.5 240z" />
<glyph unicode="d" d="M102 463q0 187 126 312.5t317 125.5q99 0 187.5 -42t148.5 -107l-123 702h39l256 -1454h-39l-31 182q-62 -87 -161 -144.5t-222 -57.5q-138 0 -252 63t-180 174t-66 246zM143 463q0 -189 133.5 -318t323.5 -129q125 0 220 60t153 149l-84 469q-63 77 -153 123.5 t-191 46.5q-174 0 -288 -115t-114 -286z" />
<glyph unicode="e" horiz-adv-x="1040" d="M102 463q0 186 117 312t293 126t297 -123.5t139 -310.5h-805q0 -199 129.5 -325t317.5 -126q197 0 328 138l26 -29q-138 -145 -354 -145q-204 0 -346 135.5t-142 347.5zM145 504h758q-28 158 -135.5 259t-255.5 101q-149 0 -251 -102t-116 -258z" />
<glyph unicode="f" horiz-adv-x="751" d="M-41 881h287l-27 155q-24 134 -24 189q0 113 77.5 181.5t196.5 68.5q57 0 104 -13l-10 -35q-40 11 -94 11q-105 0 -170.5 -60.5t-65.5 -152.5q0 -35 25 -189l27 -155h358l6 -37h-358l149 -844h-39l-149 844h-287z" />
<glyph unicode="g" d="M102 463q0 187 126 312.5t317 125.5q99 0 187.5 -42t148.5 -107l-23 129h39l162 -916q16 -99 16 -162q0 -142 -113 -228.5t-286 -86.5q-130 0 -230.5 47t-164.5 119l26 24q59 -67 153.5 -110t215.5 -43q161 0 259.5 77t98.5 201q0 81 -14 160l-37 219 q-62 -87 -161 -144.5t-222 -57.5q-138 0 -252 63t-180 174t-66 246zM143 463q0 -189 133.5 -318t323.5 -129q125 0 220 60t153 149l-84 469q-63 77 -153 123.5t-191 46.5q-174 0 -288 -115t-114 -286z" />
<glyph unicode="h" horiz-adv-x="1146" d="M20 1454h39l136 -770q59 99 154 158t210 59q102 0 188 -46t142 -128q60 -86 86 -242l86 -485h-39l-86 485q-24 142 -84 226q-110 153 -293 153q-109 0 -204 -62.5t-150 -172.5l110 -629h-39z" />
<glyph unicode="i" horiz-adv-x="421" d="M23 1208q0 26 17.5 44t43.5 18t43.5 -18t17.5 -44t-17.5 -43.5t-43.5 -17.5t-43.5 17.5t-17.5 43.5zM121 881h39l155 -881h-39z" />
<glyph unicode="j" horiz-adv-x="495" d="M102 1208q0 26 18 44t44 18t43.5 -18t17.5 -44t-17.5 -43.5t-43.5 -17.5t-44 17.5t-18 43.5zM104 -500l11 35q33 -10 75 -10q101 0 152 56.5t51 146.5q0 64 -12 129l-180 1024h39l180 -1022q14 -79 14 -131q0 -100 -60 -170t-184 -70q-48 0 -86 12z" />
<glyph unicode="k" horiz-adv-x="985" d="M20 1454h39l168 -962l502 389h68l-512 -398l721 -483h-72l-703 469l84 -469h-39z" />
<glyph unicode="l" horiz-adv-x="421" d="M20 1454h39l256 -1454h-39z" />
<glyph unicode="m" horiz-adv-x="1863" d="M121 881h39l35 -197q58 97 154.5 157t203.5 60q102 0 185 -44.5t139 -127.5q19 -31 36 -70q63 107 157 174.5t214 67.5q102 0 185 -44.5t139 -127.5q57 -81 84 -244l86 -485h-39l-86 485q-25 149 -82 228q-108 151 -287 151q-110 0 -203 -68t-151 -180q19 -72 31 -131 l86 -485h-39l-86 485q-25 149 -82 228q-108 151 -287 151q-102 0 -197.5 -63.5t-150.5 -171.5l110 -629h-39z" />
<glyph unicode="n" horiz-adv-x="1146" d="M121 881h39l35 -197q59 99 154 158t210 59q102 0 188 -46t142 -128q60 -86 86 -242l86 -485h-39l-86 485q-24 142 -84 226q-110 153 -293 153q-109 0 -204 -62.5t-150 -172.5l110 -629h-39z" />
<glyph unicode="o" horiz-adv-x="1134" d="M102 463q0 186 127.5 312t319.5 126q133 0 246.5 -64t180 -175.5t66.5 -243.5q0 -186 -127 -312t-319 -126q-133 0 -246.5 64t-180.5 175.5t-67 243.5zM143 463q0 -122 62 -225.5t166 -162.5t225 -59q172 0 288.5 116t116.5 286q0 122 -62 225t-165.5 162t-224.5 59 q-173 0 -289.5 -116t-116.5 -285z" />
<glyph unicode="p" horiz-adv-x="1161" d="M119 881h39l30 -183q62 87 161 145t222 58q138 0 252 -63t180 -174t66 -246q0 -187 -125.5 -312.5t-316.5 -125.5q-99 0 -187.5 42t-148.5 107l108 -621h-39zM199 655l84 -469q63 -77 153 -123.5t191 -46.5q174 0 287.5 115.5t113.5 286.5q0 189 -133.5 317.5 t-323.5 128.5q-125 0 -219.5 -60t-152.5 -149z" />
<glyph unicode="q" d="M102 463q0 187 126 312.5t317 125.5q99 0 187.5 -42t148.5 -107l-23 129h39l242 -1373h-39l-117 674q-62 -87 -161 -144.5t-222 -57.5q-138 0 -252 63t-180 174t-66 246zM143 463q0 -189 133.5 -318t323.5 -129q125 0 220 60t153 149l-84 469q-63 77 -153 123.5 t-191 46.5q-174 0 -288 -115t-114 -286z" />
<glyph unicode="r" horiz-adv-x="622" d="M121 881h39l33 -185q47 101 128.5 151.5t178.5 53.5l-2 -39q-104 -3 -181 -65t-112 -162l110 -635h-39z" />
<glyph unicode="s" horiz-adv-x="882" d="M113 686q0 94 76.5 154.5t191.5 60.5q137 0 244 -86l-23 -31q-104 80 -219 80q-93 0 -161 -48t-68 -130q0 -58 34 -96.5t88.5 -58.5t120 -35.5t131 -34t120 -46t88.5 -79.5t34 -127q0 -96 -76.5 -162.5t-204.5 -66.5q-190 0 -305 124l27 29q112 -117 285 -117 q100 0 166.5 53.5t66.5 141.5q0 66 -34 111.5t-88.5 69t-120 40t-131 33.5t-120 40.5t-88.5 69t-34 111.5z" />
<glyph unicode="t" horiz-adv-x="858" d="M-10 881h286l-49 266h39l49 -266h390l6 -37h-389l86 -494q25 -137 47 -182q81 -152 254 -152q64 0 120 17l9 -37q-58 -16 -129 -16q-205 0 -293 182q-23 51 -47 188l-86 494h-287z" />
<glyph unicode="u" horiz-adv-x="1132" d="M100 881h39l86 -486q25 -147 82 -227q109 -152 287 -152q102 0 197.5 64t150.5 172l-111 629h39l156 -881h-39l-35 197q-58 -97 -154.5 -157t-203.5 -60q-102 0 -185 44.5t-139 127.5q-57 81 -84 243z" />
<glyph unicode="v" horiz-adv-x="970" d="M-10 881h49l530 -805l246 805h43l-270 -881h-19z" />
<glyph unicode="w" horiz-adv-x="1490" d="M0 881h47l461 -793l164 793h18l451 -797l186 797h41l-207 -881h-18l-447 788l-166 -788h-18z" />
<glyph unicode="x" horiz-adv-x="940" d="M82 881h53l330 -363l209 363h49l-227 -392l444 -489h-55l-410 453l-264 -453h-47l278 483z" />
<glyph unicode="y" horiz-adv-x="972" d="M-10 881h49l551 -731l217 731h43l-406 -1373h-45l176 592z" />
<glyph unicode="z" horiz-adv-x="921" d="M41 881h684l4 -21l-524 -823h708l9 -37h-768l-4 20l518 824h-621z" />
<glyph unicode="{" horiz-adv-x="849" d="M217 532q100 15 100 109t-49 276t-49 275q0 108 70 175t209 67h41l6 -37h-41q-129 0 -187.5 -56t-58.5 -151q0 -94 49 -275t49 -274q0 -51 -19.5 -82.5t-45.5 -42.5q50 -23 76 -58t41 -87q23 -79 38.5 -220.5t32.5 -254.5t51 -162q38 -56 104 -81.5t173 -25.5h51l6 -37 h-51q-121 0 -195.5 28t-115.5 91q-41 62 -60 187.5t-35 269t-47 223.5q-20 51 -52.5 74.5t-84.5 28.5z" />
<glyph unicode="|" horiz-adv-x="307" d="M-35 1434h39l326 -1844h-39z" />
<glyph unicode="}" horiz-adv-x="849" d="M-31 1434h51q121 0 196 -28.5t116 -90.5q32 -49 51.5 -140t26.5 -179t22.5 -192t40.5 -169q20 -51 52.5 -74.5t84.5 -28.5l6 -40q-100 -15 -100 -109t49 -276t49 -275q0 -108 -69.5 -175t-208.5 -67h-41l-6 37h41q129 0 187 56t58 151q0 94 -49 275t-49 274q0 51 20 82.5 t46 42.5q-50 23 -76 58t-41 87q-23 79 -38.5 220.5t-33 254.5t-51.5 162q-38 56 -103.5 81.5t-172.5 25.5h-52z" />
<glyph unicode="~" horiz-adv-x="960" d="M92 459q9 93 54.5 138.5t119.5 45.5q44 0 89.5 -18.5t84 -45t76 -53t79 -45t79.5 -18.5q122 0 135 158l39 -11q-9 -93 -54.5 -138.5t-119.5 -45.5q-44 0 -89.5 18.5t-84 45t-76 53t-79 45t-79.5 18.5q-122 0 -135 -157z" />
<glyph unicode="&#xa1;" horiz-adv-x="491" d="M121 829q0 29 21.5 50.5t50.5 21.5t50 -21.5t21 -50.5t-21 -50t-50 -21t-50.5 21t-21.5 50zM225 532h39l180 -1024h-38z" />
<glyph unicode="&#xa2;" horiz-adv-x="1054" d="M102 463q0 160 108 281t269 149l-37 223h39l39 -217q7 0 23 1t24 1q164 0 295 -106l-24 -29q-117 98 -271 98q-79 0 -155 -29t-136 -80t-96.5 -127.5t-36.5 -164.5q0 -185 123 -316t316 -131q107 0 205 48.5t165 136.5l31 -23q-121 -161 -321 -192l38 -222h-38l-39 218 q-14 -2 -41 -2q-141 0 -252 66.5t-169.5 176.5t-58.5 240z" />
<glyph unicode="&#xa3;" horiz-adv-x="976" d="M31 780h164q-54 94 -83.5 170.5t-29.5 159.5q0 153 98.5 248.5t237.5 95.5q178 0 307 -158l-33 -24q-16 20 -27.5 32.5t-39 36.5t-54 38.5t-68 26t-85.5 11.5q-123 0 -209 -87t-86 -220q0 -58 19 -120t40 -103t60 -107h270l8 -37h-256q60 -103 91.5 -184.5t31.5 -173.5 q0 -107 -47.5 -198t-116.5 -150h787l8 -37h-891l-4 20q101 50 162 152.5t61 212.5q0 63 -21 131t-43 111t-65 116h-178z" />
<glyph unicode="&#xa4;" horiz-adv-x="1024" d="M82 315l147 148q-98 109 -98 256t98 256l-147 147l27 27l147 -148q110 99 256 99t256 -99l147 148l27 -27l-147 -147q98 -109 98 -256t-98 -256l147 -148l-27 -26l-147 147q-109 -98 -256 -98t-256 98l-147 -147zM172 719q0 -141 99.5 -240.5t240.5 -99.5t240.5 99.5 t99.5 240.5t-99.5 240.5t-240.5 99.5t-240.5 -99.5t-99.5 -240.5z" />
<glyph unicode="&#xa5;" horiz-adv-x="991" d="M-170 1434h53l574 -682l331 682h46l-259 -535h322l6 -37h-346l-76 -155l25 -136h448l7 -36h-449l92 -535h-39l-92 535h-455l-6 36h455l-25 134l-131 157h-350l-6 37h326z" />
<glyph unicode="&#xa6;" horiz-adv-x="389" d="M6 1434h39l141 -799h-39zM190 389h39l142 -799h-39z" />
<glyph unicode="&#xa7;" horiz-adv-x="1067" d="M41 1145q0 93 52 165t134.5 108t180.5 36q184 0 323 -127l-26 -27q-127 117 -297 117q-59 0 -115.5 -17t-104 -49.5t-77 -86t-29.5 -119.5q0 -68 29.5 -119.5t79.5 -84t115 -57.5t136.5 -44.5t143 -40t136.5 -49t115 -66t79.5 -97.5t29.5 -138q0 -104 -54.5 -186 t-148.5 -124q59 -22 103 -46.5t82 -59.5t58 -84t20 -111q0 -93 -52 -165t-134.5 -108t-180.5 -36q-185 0 -324 127l27 27q127 -117 297 -117q59 0 115.5 17t104 49.5t77 86t29.5 119.5q0 68 -29.5 119.5t-79.5 84.5t-115 57.5t-137 44.5t-143.5 40t-136.5 49t-115 66.5 t-79.5 97.5t-29.5 138q0 103 55 185t148 124q-125 45 -193.5 114t-68.5 187zM141 535q0 -49 14 -89.5t36 -70.5t58.5 -56t71 -43t85.5 -35t90 -28.5t96.5 -27t93.5 -27.5q100 33 159.5 110t59.5 181q0 49 -14 89.5t-36 70t-58.5 55.5t-71 43t-85.5 34.5t-90 28t-96.5 26.5 t-93.5 27q-101 -33 -160 -108.5t-59 -179.5z" />
<glyph unicode="&#xa8;" horiz-adv-x="696" d="M143 1167q0 26 18 44t44 18t43.5 -18t17.5 -44t-17.5 -43.5t-43.5 -17.5t-44 17.5t-18 43.5zM430 1167q0 26 18 44t44 18t43.5 -18t17.5 -44t-17.5 -43.5t-43.5 -17.5t-44 17.5t-18 43.5z" />
<glyph unicode="&#xa9;" horiz-adv-x="1720" d="M113 717q0 146 57 278.5t152.5 228.5t228.5 153t278 57t278 -57t229 -153t153 -229t57 -278t-57 -278t-153 -229t-229 -153t-278 -57t-278 57t-228.5 153t-152.5 228.5t-57 278.5zM150 717q0 -184 91 -341t247.5 -248t340.5 -91q138 0 264 54t217 145t145 217t54 264 t-54 264t-145 217t-217 145t-264 54q-184 0 -340.5 -91t-247.5 -248t-91 -341zM446 721q0 171 113.5 288t278.5 117q149 0 254 -102l-23 -27q-96 93 -231 93q-148 0 -249.5 -107t-101.5 -262q0 -153 103 -260t256 -107q140 0 246 99l24 -29q-116 -107 -270 -107 q-171 0 -285.5 117t-114.5 287z" />
<glyph unicode="&#xaa;" horiz-adv-x="839" d="M0 1161q0 125 85 209t214 84q61 0 119 -25.5t98 -66.5l-12 72h39l100 -574h-39l-16 105q-98 -125 -250 -125q-142 0 -240 92.5t-98 228.5zM41 1161q0 -120 86 -202t211 -82q78 0 141.5 39t98.5 96l-50 288q-105 117 -229 117q-110 0 -184 -74t-74 -182z" />
<glyph unicode="&#xab;" horiz-adv-x="1075" d="M158 481l245 359h50l-248 -365l379 -373h-58l-364 359zM588 481l246 359h49l-248 -365l379 -373h-58l-364 359z" />
<glyph unicode="&#xac;" horiz-adv-x="1071" d="M78 737h819l72 -405h-37l-66 368h-782z" />
<glyph unicode="&#xad;" horiz-adv-x="839" d="M166 528h491l7 -36h-492z" />
<glyph unicode="&#xae;" horiz-adv-x="1720" d="M113 717q0 146 57 278.5t152.5 228.5t228.5 153t278 57t278 -57t229 -153t153 -229t57 -278t-57 -278t-153 -229t-229 -153t-278 -57t-278 57t-228.5 153t-152.5 228.5t-57 278.5zM150 717q0 -184 91 -341t247.5 -248t340.5 -91q138 0 264 54t217 145t145 217t54 264 t-54 264t-145 217t-217 145t-264 54q-184 0 -340.5 -91t-247.5 -248t-91 -341zM582 330v784h274q112 0 162 -41q67 -55 67 -147q0 -93 -67 -148q-50 -41 -162 -41h-10l330 -407h-46l-329 407h-178v-407h-41zM623 774h229q103 0 143 37q49 46 49 115q0 68 -49 114 q-40 37 -143 37h-229v-303z" />
<glyph unicode="&#xaf;" horiz-adv-x="778" d="M143 1133v36h492v-36h-492z" />
<glyph unicode="&#xb0;" horiz-adv-x="798" d="M0 1137q0 123 87 210t210 87t210 -87t87 -210t-87 -210t-210 -87t-210 87t-87 210zM41 1137q0 -106 75 -181t181 -75t181 75t75 181t-75 181t-181 75t-181 -75t-75 -181z" />
<glyph unicode="&#xb1;" horiz-adv-x="1071" d="M104 600h390l-60 342h37l59 -342h394l6 -37h-393l59 -342h-37l-59 342h-389zM180 160h819l7 -37h-820z" />
<glyph unicode="&#xb2;" horiz-adv-x="548" d="M-82 1319q26 60 77.5 97.5t117.5 37.5q96 0 159.5 -67.5t63.5 -161.5q0 -85 -72 -187l-215 -305h379l8 -37h-438l-4 23l235 340q35 50 50.5 86.5t15.5 79.5q0 76 -53.5 134t-128.5 58q-112 0 -162 -114z" />
<glyph unicode="&#xb3;" horiz-adv-x="583" d="M-92 1434h393l4 -23l-174 -240q25 5 45 5q109 0 186.5 -77.5t77.5 -187.5q0 -104 -66.5 -169.5t-174.5 -65.5q-68 0 -127.5 28.5t-96.5 79.5l31 25q33 -44 83.5 -70t109.5 -26q90 0 145 56t55 142q0 95 -66 161.5t-165 66.5q-47 0 -98 -19l-4 23l184 254h-336z" />
<glyph unicode="&#xb4;" horiz-adv-x="530" d="M143 1044l199 267h45l-199 -267h-45z" />
<glyph unicode="&#xb5;" horiz-adv-x="1150" d="M119 881h39l86 -486q25 -147 82 -227q112 -152 286 -152q102 0 198 64t151 172l-111 629h39l155 -881h-38l-35 197q-58 -97 -155 -157t-204 -60q-100 0 -190 50t-139 136l131 -739h-39z" />
<glyph unicode="&#xb6;" horiz-adv-x="1353" d="M-4 1026q0 112 52.5 205t141.5 145q100 58 205 58h670l6 -37h-207l320 -1807h-39l-320 1807h-432l320 -1807h-39l-170 963q-218 0 -363 131.5t-145 341.5zM37 1026q0 -191 131 -312.5t330 -123.5l-144 803q-139 -20 -228 -121.5t-89 -245.5z" />
<glyph unicode="&#xb7;" horiz-adv-x="552" d="M195 440q0 29 21 50.5t50 21.5t50.5 -21.5t21.5 -50.5t-21.5 -50t-50.5 -21t-50 21t-21 50z" />
<glyph unicode="&#xb8;" horiz-adv-x="407" d="M143 -287l82 287h39l-82 -287h-39z" />
<glyph unicode="&#xb9;" horiz-adv-x="413" d="M-82 1317l180 117h21l131 -738h-43l-121 682l-160 -100z" />
<glyph unicode="&#xba;" horiz-adv-x="839" d="M0 1167q0 121 83 204t206 83q139 0 231 -95.5t92 -232.5q0 -120 -83 -203t-205 -83q-139 0 -231.5 95t-92.5 232zM41 1167q0 -121 80.5 -205.5t202.5 -84.5q104 0 175.5 71.5t71.5 177.5q0 121 -80 206t-202 85q-104 0 -176 -72t-72 -178z" />
<glyph unicode="&#xbb;" horiz-adv-x="1075" d="M61 840h58l364 -359l4 -20l-245 -359h-49l247 365zM492 840h57l364 -359l5 -20l-246 -359h-49l247 365z" />
<glyph unicode="&#xbc;" horiz-adv-x="987" d="M-82 1317l180 117h21l131 -738h-43l-121 682l-160 -100zM117 0l583 1434h43l-581 -1434h-45zM428 215l315 522h21l90 -506h147l7 -36h-148l35 -195h-43l-35 195h-385zM483 231h328l-76 418z" />
<glyph unicode="&#xbd;" horiz-adv-x="1046" d="M-82 1317l180 117h21l131 -738h-43l-121 682l-160 -100zM117 0l583 1434h43l-581 -1434h-45zM539 623q26 60 77 97.5t117 37.5q96 0 159.5 -68t63.5 -162q0 -85 -71 -186l-215 -305h379l8 -37h-439l-4 23l236 339q35 49 50 86t15 80q0 76 -53.5 134.5t-128.5 58.5 q-111 0 -162 -115z" />
<glyph unicode="&#xbe;" horiz-adv-x="1097" d="M-92 1434h393l4 -23l-174 -240q25 5 45 5q109 0 186.5 -77.5t77.5 -187.5q0 -104 -66.5 -169.5t-174.5 -65.5q-68 0 -127.5 28.5t-96.5 79.5l31 25q33 -44 83.5 -70t109.5 -26q90 0 145 56t55 142q0 95 -66 161.5t-165 66.5q-47 0 -98 -19l-4 23l184 254h-336zM227 0 l584 1434h43l-582 -1434h-45zM539 215l315 522h20l91 -506h147l6 -36h-147l35 -195h-43l-35 195h-385zM594 231h328l-76 418z" />
<glyph unicode="&#xbf;" horiz-adv-x="1015" d="M279 -219q0 77 36 142t87 110t102 86t87 88.5t36 99.5q0 47 -30.5 87t-59.5 59l24 28q18 -11 39 -29.5t44.5 -59.5t23.5 -85q0 -43 -19 -82t-50 -70.5t-68 -62t-74.5 -63t-68.5 -67.5t-50 -81.5t-19 -99.5q0 -140 102.5 -229t250.5 -89q137 0 234 70.5t118 192.5l41 -9 q-23 -126 -125.5 -208t-267.5 -82q-102 0 -190.5 41t-145.5 123.5t-57 189.5zM438 829q0 29 21.5 50.5t50.5 21.5t50.5 -21.5t21.5 -50.5t-21.5 -50t-50.5 -21t-50.5 21t-21.5 50z" />
<glyph unicode="&#xc0;" horiz-adv-x="1351" d="M123 0l362 1434h19l868 -1434h-47l-297 489h-739l-125 -489h-41zM252 1782h45l199 -266h-45zM299 526h707l-498 824z" />
<glyph unicode="&#xc1;" horiz-adv-x="1351" d="M123 0l362 1434h19l868 -1434h-47l-297 489h-739l-125 -489h-41zM299 526h707l-498 824zM459 1516l198 266h45l-198 -266h-45z" />
<glyph unicode="&#xc2;" horiz-adv-x="1351" d="M123 0l362 1434h19l868 -1434h-47l-297 489h-739l-125 -489h-41zM256 1516l162 266h63l256 -266h-57l-231 241l-148 -241h-45zM299 526h707l-498 824z" />
<glyph unicode="&#xc3;" horiz-adv-x="1351" d="M123 0l362 1434h19l868 -1434h-47l-297 489h-739l-125 -489h-41zM178 1573q9 71 44.5 109t92.5 38q37 0 80 -19t75.5 -41.5t72 -41.5t71.5 -19q47 0 70 34.5t29 82.5l39 -6q-9 -70 -45 -108.5t-93 -38.5q-47 0 -101.5 30t-106 60t-91.5 30q-84 0 -98 -116zM299 526h707 l-498 824z" />
<glyph unicode="&#xc4;" horiz-adv-x="1351" d="M123 0l362 1434h19l868 -1434h-47l-297 489h-739l-125 -489h-41zM266 1638q0 26 18 44t44 18t43.5 -18t17.5 -44t-17.5 -43.5t-43.5 -17.5t-44 17.5t-18 43.5zM299 526h707l-498 824zM553 1638q0 26 17.5 44t43.5 18t44 -18t18 -44t-18 -43.5t-44 -17.5t-43.5 17.5 t-17.5 43.5z" />
<glyph unicode="&#xc5;" horiz-adv-x="1351" d="M123 0l362 1434h19l868 -1434h-47l-297 489h-739l-125 -489h-41zM299 526h707l-498 824zM299 1679q0 67 48.5 115.5t115.5 48.5t115.5 -48.5t48.5 -115.5t-48 -115t-116 -48t-116 48t-48 115zM336 1679q0 -53 37 -90t90 -37t90 37t37 90t-37 90t-90 37t-90 -37t-37 -90z " />
<glyph unicode="&#xc6;" horiz-adv-x="1771" d="M82 0l645 1434h766l6 -37h-698l100 -578h557l6 -37h-557l133 -745h719l6 -37h-757l-88 489h-570l-221 -489h-47zM367 526h546l-153 881z" />
<glyph unicode="&#xc7;" horiz-adv-x="1517" d="M66 756q0 147 53.5 277t146 222t223 145.5t279.5 53.5q266 0 477 -180l-24 -29q-199 172 -453 172q-141 0 -264 -50.5t-210.5 -138.5t-137.5 -211t-50 -263q0 -145 56 -280t151.5 -236t232 -161.5t288.5 -60.5q175 0 326 71.5t243 197.5l33 -25q-92 -124 -235 -195.5 t-318 -82.5l-76 -269h-39l76 267h-10q-213 0 -391 108t-277.5 285.5t-99.5 382.5z" />
<glyph unicode="&#xc8;" horiz-adv-x="1050" d="M35 1434h737l6 -37h-698l100 -578h557l6 -37h-557l133 -745h719l6 -37h-757zM233 1782h46l198 -266h-45z" />
<glyph unicode="&#xc9;" horiz-adv-x="1050" d="M35 1434h737l6 -37h-698l100 -578h557l6 -37h-557l133 -745h719l6 -37h-757zM332 1516l198 266h45l-198 -266h-45z" />
<glyph unicode="&#xca;" horiz-adv-x="1050" d="M35 1434h737l6 -37h-698l100 -578h557l6 -37h-557l133 -745h719l6 -37h-757zM156 1516l161 266h64l256 -266h-57l-232 241l-147 -241h-45z" />
<glyph unicode="&#xcb;" horiz-adv-x="1050" d="M35 1434h737l6 -37h-698l100 -578h557l6 -37h-557l133 -745h719l6 -37h-757zM186 1638q0 26 18 44t44 18t43.5 -18t17.5 -44t-17.5 -43.5t-43.5 -17.5t-44 17.5t-18 43.5zM473 1638q0 26 18 44t44 18t43.5 -18t17.5 -44t-17.5 -43.5t-43.5 -17.5t-44 17.5t-18 43.5z" />
<glyph unicode="&#xcc;" horiz-adv-x="442" d="M-188 1782h45l198 -266h-45zM35 1434h39l252 -1434h-39z" />
<glyph unicode="&#xcd;" horiz-adv-x="442" d="M18 1516l199 266h45l-199 -266h-45zM35 1434h39l252 -1434h-39z" />
<glyph unicode="&#xce;" horiz-adv-x="442" d="M-197 1516l162 266h64l256 -266h-58l-231 241l-148 -241h-45zM35 1434h39l252 -1434h-39z" />
<glyph unicode="&#xcf;" horiz-adv-x="442" d="M-182 1638q0 26 17.5 44t43.5 18t44 -18t18 -44t-18 -43.5t-44 -17.5t-43.5 17.5t-17.5 43.5zM35 1434h39l252 -1434h-39zM104 1638q0 26 18 44t44 18t43.5 -18t17.5 -44t-17.5 -43.5t-43.5 -17.5t-44 17.5t-18 43.5z" />
<glyph unicode="&#xd0;" horiz-adv-x="1507" d="M-63 819h204l-106 615h489q391 0 611 -226q106 -108 165.5 -246t59.5 -286q0 -302 -178 -483q-193 -193 -529 -193h-366l-140 782h-204zM80 1397l102 -578h410l6 -37h-410l131 -745h330q322 0 502 180q168 171 168 459q0 139 -56 270.5t-155 233.5q-211 217 -584 217 h-444z" />
<glyph unicode="&#xd1;" horiz-adv-x="1527" d="M35 1434h18l1303 -1338l-236 1338h39l252 -1434h-18l-1301 1337l234 -1337h-39zM279 1573q9 71 44.5 109t92.5 38q37 0 80 -19t75.5 -41.5t72 -41.5t71.5 -19q84 0 98 117l39 -6q-9 -71 -44.5 -109t-92.5 -38q-47 0 -101.5 30t-106 60t-91.5 30q-85 0 -99 -116z" />
<glyph unicode="&#xd2;" horiz-adv-x="1662" d="M66 758q0 144 50 272.5t144 224.5q97 97 223 148t267 51q147 0 286 -58t248 -169q109 -112 170.5 -256.5t61.5 -294.5q0 -143 -50 -272.5t-145 -225.5q-96 -96 -222.5 -147t-267.5 -51q-147 0 -286 58t-248 169q-108 111 -169.5 255.5t-61.5 295.5zM106 758 q0 -143 59.5 -282t162.5 -245q103 -104 234.5 -159.5t268.5 -55.5q125 0 248 49t213 140q89 89 136 213t47 258q0 143 -59.5 281.5t-162.5 244.5q-103 104 -234.5 159.5t-268.5 55.5q-126 0 -248.5 -48.5t-212.5 -139.5q-89 -89 -136 -213t-47 -258zM532 1782h46l198 -266 h-45z" />
<glyph unicode="&#xd3;" horiz-adv-x="1662" d="M66 758q0 144 50 272.5t144 224.5q97 97 223 148t267 51q147 0 286 -58t248 -169q109 -112 170.5 -256.5t61.5 -294.5q0 -143 -50 -272.5t-145 -225.5q-96 -96 -222.5 -147t-267.5 -51q-147 0 -286 58t-248 169q-108 111 -169.5 255.5t-61.5 295.5zM106 758 q0 -143 59.5 -282t162.5 -245q103 -104 234.5 -159.5t268.5 -55.5q125 0 248 49t213 140q89 89 136 213t47 258q0 143 -59.5 281.5t-162.5 244.5q-103 104 -234.5 159.5t-268.5 55.5q-126 0 -248.5 -48.5t-212.5 -139.5q-89 -89 -136 -213t-47 -258zM582 1516l198 266h45 l-198 -266h-45z" />
<glyph unicode="&#xd4;" horiz-adv-x="1662" d="M66 758q0 144 50 272.5t144 224.5q97 97 223 148t267 51q147 0 286 -58t248 -169q109 -112 170.5 -256.5t61.5 -294.5q0 -143 -50 -272.5t-145 -225.5q-96 -96 -222.5 -147t-267.5 -51q-147 0 -286 58t-248 169q-108 111 -169.5 255.5t-61.5 295.5zM106 758 q0 -143 59.5 -282t162.5 -245q103 -104 234.5 -159.5t268.5 -55.5q125 0 248 49t213 140q89 89 136 213t47 258q0 143 -59.5 281.5t-162.5 244.5q-103 104 -234.5 159.5t-268.5 55.5q-126 0 -248.5 -48.5t-212.5 -139.5q-89 -89 -136 -213t-47 -258zM455 1516l161 266h64 l256 -266h-57l-232 241l-147 -241h-45z" />
<glyph unicode="&#xd5;" horiz-adv-x="1662" d="M66 758q0 144 50 272.5t144 224.5q97 97 223 148t267 51q147 0 286 -58t248 -169q109 -112 170.5 -256.5t61.5 -294.5q0 -143 -50 -272.5t-145 -225.5q-96 -96 -222.5 -147t-267.5 -51q-147 0 -286 58t-248 169q-108 111 -169.5 255.5t-61.5 295.5zM106 758 q0 -143 59.5 -282t162.5 -245q103 -104 234.5 -159.5t268.5 -55.5q125 0 248 49t213 140q89 89 136 213t47 258q0 143 -59.5 281.5t-162.5 244.5q-103 104 -234.5 159.5t-268.5 55.5q-126 0 -248.5 -48.5t-212.5 -139.5q-89 -89 -136 -213t-47 -258zM383 1573q9 71 44.5 109 t92.5 38q37 0 80 -19t75.5 -41.5t72 -41.5t71.5 -19q47 0 70 34.5t29 82.5l38 -6q-9 -71 -44.5 -109t-92.5 -38q-47 0 -101.5 30t-106 60t-91.5 30q-84 0 -98 -116z" />
<glyph unicode="&#xd6;" horiz-adv-x="1662" d="M66 758q0 144 50 272.5t144 224.5q97 97 223 148t267 51q147 0 286 -58t248 -169q109 -112 170.5 -256.5t61.5 -294.5q0 -143 -50 -272.5t-145 -225.5q-96 -96 -222.5 -147t-267.5 -51q-147 0 -286 58t-248 169q-108 111 -169.5 255.5t-61.5 295.5zM106 758 q0 -143 59.5 -282t162.5 -245q103 -104 234.5 -159.5t268.5 -55.5q125 0 248 49t213 140q89 89 136 213t47 258q0 143 -59.5 281.5t-162.5 244.5q-103 104 -234.5 159.5t-268.5 55.5q-126 0 -248.5 -48.5t-212.5 -139.5q-89 -89 -136 -213t-47 -258zM469 1638q0 26 17.5 44 t43.5 18t44 -18t18 -44t-18 -43.5t-44 -17.5t-43.5 17.5t-17.5 43.5zM756 1638q0 26 17.5 44t43.5 18t44 -18t18 -44t-18 -43.5t-44 -17.5t-43.5 17.5t-17.5 43.5z" />
<glyph unicode="&#xd7;" horiz-adv-x="987" d="M82 852l24 27l379 -322l260 322l29 -23l-260 -321l381 -322l-25 -27l-378 320l-261 -320l-28 23l260 321z" />
<glyph unicode="&#xd8;" horiz-adv-x="1662" d="M66 758q0 144 50 272.5t144 224.5q97 97 223 148t267 51q169 0 325 -78l37 78h43l-45 -96q97 -54 174 -131q109 -112 170.5 -256.5t61.5 -294.5q0 -143 -50 -272.5t-145 -225.5q-96 -96 -222.5 -147t-267.5 -51q-169 0 -321 73l-33 -73h-43l41 92q-103 57 -178 135 q-108 111 -169.5 255.5t-61.5 295.5zM106 758q0 -143 59.5 -282t162.5 -245q69 -72 164 -125l569 1235q-152 76 -311 76q-126 0 -248.5 -48.5t-212.5 -139.5q-89 -89 -136 -213t-47 -258zM526 88q147 -72 305 -72q125 0 248 49t213 140q89 89 136 213t47 258 q0 143 -59.5 281.5t-162.5 244.5q-69 69 -159 121z" />
<glyph unicode="&#xd9;" horiz-adv-x="1488" d="M25 1434h38l158 -891q46 -259 190 -393t377 -134q196 0 330.5 120t134.5 304q0 55 -14 144l-149 850h38l148 -844q18 -99 18 -154q0 -129 -68 -234t-184 -163.5t-254 -58.5q-254 0 -406 142t-200 415zM360 1782h46l198 -266h-45z" />
<glyph unicode="&#xda;" horiz-adv-x="1488" d="M25 1434h38l158 -891q46 -259 190 -393t377 -134q196 0 330.5 120t134.5 304q0 55 -14 144l-149 850h38l148 -844q18 -99 18 -154q0 -129 -68 -234t-184 -163.5t-254 -58.5q-254 0 -406 142t-200 415zM471 1516l199 266h45l-199 -266h-45z" />
<glyph unicode="&#xdb;" horiz-adv-x="1488" d="M25 1434h38l158 -891q46 -259 190 -393t377 -134q196 0 330.5 120t134.5 304q0 55 -14 144l-149 850h38l148 -844q18 -99 18 -154q0 -129 -68 -234t-184 -163.5t-254 -58.5q-254 0 -406 142t-200 415zM303 1516l162 266h63l256 -266h-57l-231 241l-148 -241h-45z" />
<glyph unicode="&#xdc;" horiz-adv-x="1488" d="M25 1434h38l158 -891q46 -259 190 -393t377 -134q196 0 330.5 120t134.5 304q0 55 -14 144l-149 850h38l148 -844q18 -99 18 -154q0 -129 -68 -234t-184 -163.5t-254 -58.5q-254 0 -406 142t-200 415zM332 1638q0 26 17.5 44t43.5 18t44 -18t18 -44t-18 -43.5t-44 -17.5 t-43.5 17.5t-17.5 43.5zM618 1638q0 26 18 44t44 18t43.5 -18t17.5 -44t-17.5 -43.5t-43.5 -17.5t-44 17.5t-18 43.5z" />
<glyph unicode="&#xdd;" horiz-adv-x="1075" d="M-133 1434h53l574 -682l331 682h45l-352 -727l123 -707h-39l-123 705zM334 1516l198 266h46l-199 -266h-45z" />
<glyph unicode="&#xde;" horiz-adv-x="1198" d="M35 1434h39l65 -371h486q145 0 225 -41q93 -47 151 -135.5t58 -194.5q0 -170 -125 -262q-77 -59 -225 -59h-449l66 -371h-39zM145 1026l109 -618h455q125 0 198 51q111 79 111 233q0 94 -52.5 175.5t-136.5 121.5q-80 37 -204 37h-480z" />
<glyph unicode="&#xdf;" horiz-adv-x="1140" d="M74 1159q0 134 94 225t240 91q140 0 245 -86q50 -42 82.5 -111.5t32.5 -151.5q0 -84 -39.5 -152t-114.5 -102q184 -17 309.5 -149.5t125.5 -316.5q0 -183 -120.5 -304.5t-314.5 -121.5q-100 0 -190 38l12 35q81 -37 178 -37q176 0 285 111t109 279q0 145 -88 258.5 t-224 154.5q-65 19 -168 19h-102l-6 36h35q127 0 199.5 70.5t72.5 181.5q0 68 -26.5 131t-71.5 101q-93 80 -221 80q-134 0 -214.5 -83t-80.5 -196q0 -64 14 -147l178 -1012h-39l-178 1012q-14 75 -14 147z" />
<glyph unicode="&#xe0;" d="M102 463q0 187 126 312.5t317 125.5q99 0 187.5 -42t148.5 -107l-23 129h39l156 -881h-39l-31 182q-62 -87 -161 -144.5t-222 -57.5q-138 0 -252 63t-180 174t-66 246zM143 463q0 -189 133.5 -318t323.5 -129q125 0 220 60t153 149l-84 469q-63 77 -153 123.5t-191 46.5 q-174 0 -288 -115t-114 -286zM352 1311h45l199 -267h-45z" />
<glyph unicode="&#xe1;" d="M102 463q0 187 126 312.5t317 125.5q99 0 187.5 -42t148.5 -107l-23 129h39l156 -881h-39l-31 182q-62 -87 -161 -144.5t-222 -57.5q-138 0 -252 63t-180 174t-66 246zM143 463q0 -189 133.5 -318t323.5 -129q125 0 220 60t153 149l-84 469q-63 77 -153 123.5t-191 46.5 q-174 0 -288 -115t-114 -286zM479 1044l199 267h45l-199 -267h-45z" />
<glyph unicode="&#xe2;" d="M102 463q0 187 126 312.5t317 125.5q99 0 187.5 -42t148.5 -107l-23 129h39l156 -881h-39l-31 182q-62 -87 -161 -144.5t-222 -57.5q-138 0 -252 63t-180 174t-66 246zM143 463q0 -189 133.5 -318t323.5 -129q125 0 220 60t153 149l-84 469q-63 77 -153 123.5t-191 46.5 q-174 0 -288 -115t-114 -286zM270 1044l162 267h64l256 -267h-58l-231 242l-148 -242h-45z" />
<glyph unicode="&#xe3;" d="M102 463q0 187 126 312.5t317 125.5q99 0 187.5 -42t148.5 -107l-23 129h39l156 -881h-39l-31 182q-62 -87 -161 -144.5t-222 -57.5q-138 0 -252 63t-180 174t-66 246zM143 463q0 -189 133.5 -318t323.5 -129q125 0 220 60t153 149l-84 469q-63 77 -153 123.5t-191 46.5 q-174 0 -288 -115t-114 -286zM240 1102q9 71 44.5 109t92.5 38q37 0 80 -19t75.5 -41.5t72 -41.5t71.5 -19q84 0 98 117l39 -6q-9 -71 -44.5 -109t-92.5 -38q-47 0 -101.5 30t-106 60t-91.5 30q-84 0 -98 -116z" />
<glyph unicode="&#xe4;" d="M102 463q0 187 126 312.5t317 125.5q99 0 187.5 -42t148.5 -107l-23 129h39l156 -881h-39l-31 182q-62 -87 -161 -144.5t-222 -57.5q-138 0 -252 63t-180 174t-66 246zM143 463q0 -189 133.5 -318t323.5 -129q125 0 220 60t153 149l-84 469q-63 77 -153 123.5t-191 46.5 q-174 0 -288 -115t-114 -286zM301 1167q0 26 17.5 44t43.5 18t44 -18t18 -44t-18 -43.5t-44 -17.5t-43.5 17.5t-17.5 43.5zM588 1167q0 26 17.5 44t43.5 18t44 -18t18 -44t-18 -43.5t-44 -17.5t-43.5 17.5t-17.5 43.5z" />
<glyph unicode="&#xe5;" d="M102 463q0 187 126 312.5t317 125.5q99 0 187.5 -42t148.5 -107l-23 129h39l156 -881h-39l-31 182q-62 -87 -161 -144.5t-222 -57.5q-138 0 -252 63t-180 174t-66 246zM143 463q0 -189 133.5 -318t323.5 -129q125 0 220 60t153 149l-84 469q-63 77 -153 123.5t-191 46.5 q-174 0 -288 -115t-114 -286zM362 1208q0 68 48 116t116 48t116 -48t48 -116t-48 -116t-116 -48t-116 48t-48 116zM399 1208q0 -52 37.5 -89.5t89.5 -37.5t89.5 37.5t37.5 89.5t-37.5 89.5t-89.5 37.5t-89.5 -37.5t-37.5 -89.5z" />
<glyph unicode="&#xe6;" horiz-adv-x="1875" d="M102 463q0 187 126 312.5t317 125.5q99 0 187.5 -42t148.5 -107l-23 129h39l55 -316q30 149 138 242.5t258 93.5q176 0 297 -123.5t139 -310.5h-805q0 -199 129 -325t317 -126q197 0 328 138l27 -29q-138 -145 -355 -145q-128 0 -235 56.5t-172 156.5l35 -193h-39 l-31 182q-62 -87 -161 -144.5t-222 -57.5q-138 0 -252 63t-180 174t-66 246zM143 463q0 -189 133.5 -318t323.5 -129q125 0 220 60t153 149l-84 469q-63 77 -153 123.5t-191 46.5q-174 0 -288 -115t-114 -286zM981 504h758q-28 158 -135.5 259t-255.5 101q-149 0 -251 -102 t-116 -258z" />
<glyph unicode="&#xe7;" horiz-adv-x="1054" d="M102 463q0 121 64 222.5t170.5 158.5t230.5 57q164 0 295 -106l-24 -29q-117 98 -271 98q-79 0 -155 -29t-136 -80t-96.5 -127.5t-36.5 -164.5q0 -185 123 -316t316 -131q107 0 205 48.5t165 136.5l31 -23q-66 -87 -160 -138t-202 -58l-76 -269h-39l76 267 q-141 0 -252 66.5t-169.5 176.5t-58.5 240z" />
<glyph unicode="&#xe8;" horiz-adv-x="1040" d="M102 463q0 186 117 312t293 126t297 -123.5t139 -310.5h-805q0 -199 129.5 -325t317.5 -126q197 0 328 138l26 -29q-138 -145 -354 -145q-204 0 -346 135.5t-142 347.5zM145 504h758q-28 158 -135.5 259t-255.5 101q-149 0 -251 -102t-116 -258zM311 1311h45l199 -267 h-45z" />
<glyph unicode="&#xe9;" horiz-adv-x="1040" d="M102 463q0 186 117 312t293 126t297 -123.5t139 -310.5h-805q0 -199 129.5 -325t317.5 -126q197 0 328 138l26 -29q-138 -145 -354 -145q-204 0 -346 135.5t-142 347.5zM145 504h758q-28 158 -135.5 259t-255.5 101q-149 0 -251 -102t-116 -258zM401 1044l199 267h45 l-199 -267h-45z" />
<glyph unicode="&#xea;" horiz-adv-x="1040" d="M102 463q0 186 117 312t293 126t297 -123.5t139 -310.5h-805q0 -199 129.5 -325t317.5 -126q197 0 328 138l26 -29q-138 -145 -354 -145q-204 0 -346 135.5t-142 347.5zM145 504h758q-28 158 -135.5 259t-255.5 101q-149 0 -251 -102t-116 -258zM233 1044l162 267h64 l256 -267h-58l-231 242l-147 -242h-46z" />
<glyph unicode="&#xeb;" horiz-adv-x="1040" d="M102 463q0 186 117 312t293 126t297 -123.5t139 -310.5h-805q0 -199 129.5 -325t317.5 -126q197 0 328 138l26 -29q-138 -145 -354 -145q-204 0 -346 135.5t-142 347.5zM145 504h758q-28 158 -135.5 259t-255.5 101q-149 0 -251 -102t-116 -258zM264 1167q0 26 18 44 t44 18t43.5 -18t17.5 -44t-17.5 -43.5t-43.5 -17.5t-44 17.5t-18 43.5zM551 1167q0 26 17.5 44t43.5 18t44 -18t18 -44t-18 -43.5t-44 -17.5t-43.5 17.5t-17.5 43.5z" />
<glyph unicode="&#xec;" horiz-adv-x="421" d="M-113 1311h45l199 -267h-45zM121 881h39l155 -881h-39z" />
<glyph unicode="&#xed;" horiz-adv-x="421" d="M92 1044l199 267h45l-199 -267h-45zM121 881h39l155 -881h-39z" />
<glyph unicode="&#xee;" horiz-adv-x="421" d="M-123 1044l162 267h63l256 -267h-57l-231 242l-148 -242h-45zM121 881h39l155 -881h-39z" />
<glyph unicode="&#xef;" horiz-adv-x="421" d="M-113 1167q0 26 18 44t44 18t43.5 -18t17.5 -44t-17.5 -43.5t-43.5 -17.5t-44 17.5t-18 43.5zM121 881h39l155 -881h-39zM174 1167q0 26 18 44t44 18t43.5 -18t17.5 -44t-17.5 -43.5t-43.5 -17.5t-44 17.5t-18 43.5z" />
<glyph unicode="&#xf0;" horiz-adv-x="1110" d="M102 449q0 180 123 304t310 124q120 0 210 -46l-387 424l-194 -125l-19 31l189 121l-139 152h57l117 -129l202 129l19 -29l-197 -127l475 -520q150 -166 150 -350q0 -181 -124 -304.5t-312 -123.5q-129 0 -239.5 61.5t-175.5 170t-65 237.5zM143 449q0 -181 128.5 -307 t310.5 -126q169 0 282 113.5t113 278.5q0 183 -146 329l-10 11q-58 41 -133.5 66.5t-152.5 25.5q-170 0 -281 -113t-111 -278z" />
<glyph unicode="&#xf1;" horiz-adv-x="1146" d="M121 881h39l35 -197q59 99 154 158t210 59q102 0 188 -46t142 -128q60 -86 86 -242l86 -485h-39l-86 485q-24 142 -84 226q-110 153 -293 153q-109 0 -204 -62.5t-150 -172.5l110 -629h-39zM201 1102q9 71 44.5 109t92.5 38q37 0 80 -19t75.5 -41.5t72 -41.5t71.5 -19 q84 0 98 117l39 -6q-9 -71 -44.5 -109t-92.5 -38q-47 0 -101.5 30t-106 60t-91.5 30q-84 0 -98 -116z" />
<glyph unicode="&#xf2;" horiz-adv-x="1134" d="M102 463q0 186 127.5 312t319.5 126q133 0 246.5 -64t180 -175.5t66.5 -243.5q0 -186 -127 -312t-319 -126q-133 0 -246.5 64t-180.5 175.5t-67 243.5zM143 463q0 -122 62 -225.5t166 -162.5t225 -59q172 0 288.5 116t116.5 286q0 122 -62 225t-165.5 162t-224.5 59 q-173 0 -289.5 -116t-116.5 -285zM328 1311h45l198 -267h-45z" />
<glyph unicode="&#xf3;" horiz-adv-x="1134" d="M102 463q0 186 127.5 312t319.5 126q133 0 246.5 -64t180 -175.5t66.5 -243.5q0 -186 -127 -312t-319 -126q-133 0 -246.5 64t-180.5 175.5t-67 243.5zM143 463q0 -122 62 -225.5t166 -162.5t225 -59q172 0 288.5 116t116.5 286q0 122 -62 225t-165.5 162t-224.5 59 q-173 0 -289.5 -116t-116.5 -285zM436 1044l199 267h45l-199 -267h-45z" />
<glyph unicode="&#xf4;" horiz-adv-x="1134" d="M102 463q0 186 127.5 312t319.5 126q133 0 246.5 -64t180 -175.5t66.5 -243.5q0 -186 -127 -312t-319 -126q-133 0 -246.5 64t-180.5 175.5t-67 243.5zM143 463q0 -122 62 -225.5t166 -162.5t225 -59q172 0 288.5 116t116.5 286q0 122 -62 225t-165.5 162t-224.5 59 q-173 0 -289.5 -116t-116.5 -285zM268 1044l162 267h64l256 -267h-58l-231 242l-148 -242h-45z" />
<glyph unicode="&#xf5;" horiz-adv-x="1134" d="M102 463q0 186 127.5 312t319.5 126q133 0 246.5 -64t180 -175.5t66.5 -243.5q0 -186 -127 -312t-319 -126q-133 0 -246.5 64t-180.5 175.5t-67 243.5zM143 463q0 -122 62 -225.5t166 -162.5t225 -59q172 0 288.5 116t116.5 286q0 122 -62 225t-165.5 162t-224.5 59 q-173 0 -289.5 -116t-116.5 -285zM176 1102q9 71 44.5 109t92.5 38q37 0 80 -19t75.5 -41.5t72 -41.5t71.5 -19q47 0 70 34.5t29 82.5l39 -6q-9 -70 -45 -108.5t-93 -38.5q-47 0 -101.5 30t-106 60t-91.5 30q-84 0 -98 -116z" />
<glyph unicode="&#xf6;" horiz-adv-x="1134" d="M102 463q0 186 127.5 312t319.5 126q133 0 246.5 -64t180 -175.5t66.5 -243.5q0 -186 -127 -312t-319 -126q-133 0 -246.5 64t-180.5 175.5t-67 243.5zM143 463q0 -122 62 -225.5t166 -162.5t225 -59q172 0 288.5 116t116.5 286q0 122 -62 225t-165.5 162t-224.5 59 q-173 0 -289.5 -116t-116.5 -285zM279 1167q0 26 17.5 44t43.5 18t43.5 -18t17.5 -44t-17.5 -43.5t-43.5 -17.5t-43.5 17.5t-17.5 43.5zM565 1167q0 26 18 44t44 18t43.5 -18t17.5 -44t-17.5 -43.5t-43.5 -17.5t-44 17.5t-18 43.5z" />
<glyph unicode="&#xf7;" horiz-adv-x="1071" d="M113 551h819l6 -37h-819zM389 891q0 29 21.5 50.5t50.5 21.5t50 -21.5t21 -50.5t-21 -50.5t-50 -21.5t-50.5 21.5t-21.5 50.5zM516 174q0 29 21.5 50.5t50.5 21.5t50 -21.5t21 -50.5t-21 -50.5t-50 -21.5t-50.5 21.5t-21.5 50.5z" />
<glyph unicode="&#xf8;" horiz-adv-x="1134" d="M102 463q0 186 127.5 312t319.5 126q103 0 196 -41l19 41h43l-27 -57q119 -61 190.5 -175t71.5 -251q0 -186 -127 -312t-319 -126q-105 0 -195 38l-18 -38h-43l25 55q-119 61 -191 175.5t-72 252.5zM143 463q0 -126 65.5 -230t172.5 -163l348 755q-86 39 -180 39 q-173 0 -289.5 -116t-116.5 -285zM418 53q81 -37 178 -37q172 0 288.5 116t116.5 286q0 125 -65 228.5t-172 162.5z" />
<glyph unicode="&#xf9;" horiz-adv-x="1132" d="M100 881h39l86 -486q25 -147 82 -227q109 -152 287 -152q102 0 197.5 64t150.5 172l-111 629h39l156 -881h-39l-35 197q-58 -97 -154.5 -157t-203.5 -60q-102 0 -185 44.5t-139 127.5q-57 81 -84 243zM293 1311h45l199 -267h-45z" />
<glyph unicode="&#xfa;" horiz-adv-x="1132" d="M100 881h39l86 -486q25 -147 82 -227q109 -152 287 -152q102 0 197.5 64t150.5 172l-111 629h39l156 -881h-39l-35 197q-58 -97 -154.5 -157t-203.5 -60q-102 0 -185 44.5t-139 127.5q-57 81 -84 243zM395 1044l199 267h45l-199 -267h-45z" />
<glyph unicode="&#xfb;" horiz-adv-x="1132" d="M100 881h39l86 -486q25 -147 82 -227q109 -152 287 -152q102 0 197.5 64t150.5 172l-111 629h39l156 -881h-39l-35 197q-58 -97 -154.5 -157t-203.5 -60q-102 0 -185 44.5t-139 127.5q-57 81 -84 243zM238 1044l161 267h64l256 -267h-57l-232 242l-147 -242h-45z" />
<glyph unicode="&#xfc;" horiz-adv-x="1132" d="M100 881h39l86 -486q25 -147 82 -227q109 -152 287 -152q102 0 197.5 64t150.5 172l-111 629h39l156 -881h-39l-35 197q-58 -97 -154.5 -157t-203.5 -60q-102 0 -185 44.5t-139 127.5q-57 81 -84 243zM264 1167q0 26 18 44t44 18t43.5 -18t17.5 -44t-17.5 -43.5 t-43.5 -17.5t-44 17.5t-18 43.5zM551 1167q0 26 17.5 44t43.5 18t44 -18t18 -44t-18 -43.5t-44 -17.5t-43.5 17.5t-17.5 43.5z" />
<glyph unicode="&#xfd;" horiz-adv-x="972" d="M-10 881h49l551 -731l217 731h43l-406 -1373h-45l176 592zM381 1044l199 267h45l-199 -267h-45z" />
<glyph unicode="&#xfe;" horiz-adv-x="1161" d="M20 1454h39l129 -756q62 87 161 145t222 58q138 0 252 -63t180 -174t66 -246q0 -187 -125.5 -312.5t-316.5 -125.5q-99 0 -187.5 42t-148.5 107l108 -621h-39zM199 655l84 -469q63 -77 153 -123.5t191 -46.5q174 0 287.5 115.5t113.5 286.5q0 189 -133.5 317.5 t-323.5 128.5q-125 0 -219.5 -60t-152.5 -149z" />
<glyph unicode="&#xff;" horiz-adv-x="972" d="M-10 881h49l551 -731l217 731h43l-406 -1373h-45l176 592zM213 1167q0 26 17.5 44t43.5 18t44 -18t18 -44t-18 -43.5t-44 -17.5t-43.5 17.5t-17.5 43.5zM500 1167q0 26 17.5 44t43.5 18t44 -18t18 -44t-18 -43.5t-44 -17.5t-43.5 17.5t-17.5 43.5z" />
<glyph unicode="&#x152;" horiz-adv-x="2367" d="M66 758q0 144 50 272.5t144 224.5q97 97 223 148t267 51q147 0 286 -58t248 -169q85 -88 137 -195l-69 402h737l6 -37h-698l100 -578h557l6 -37h-557l133 -745h719l6 -37h-757l-103 578q-26 -243 -180 -400q-96 -96 -222.5 -147t-267.5 -51q-147 0 -286 58t-248 169 q-108 111 -169.5 255.5t-61.5 295.5zM106 758q0 -143 59.5 -282t162.5 -245q103 -104 234.5 -159.5t268.5 -55.5q125 0 248 49t213 140q89 89 136 213t47 258q0 143 -59.5 281.5t-162.5 244.5q-103 104 -234.5 159.5t-268.5 55.5q-126 0 -248.5 -48.5t-212.5 -139.5 q-89 -89 -136 -213t-47 -258z" />
<glyph unicode="&#x153;" horiz-adv-x="1939" d="M102 463q0 186 127.5 312t319.5 126q160 0 288 -91t179 -237q33 145 140.5 236.5t254.5 91.5q176 0 297 -123.5t139 -310.5h-805q0 -199 129.5 -325t317.5 -126q197 0 328 138l26 -29q-138 -145 -354 -145q-161 0 -287.5 87t-173.5 234q-37 -142 -155 -231.5t-277 -89.5 q-133 0 -246.5 64t-180.5 175.5t-67 243.5zM143 463q0 -122 62 -225.5t166 -162.5t225 -59q172 0 288.5 116t116.5 286q0 122 -62 225t-165.5 162t-224.5 59q-173 0 -289.5 -116t-116.5 -285zM1044 504h758q-28 158 -135.5 259t-255.5 101q-149 0 -251 -102t-116 -258z" />
<glyph unicode="&#x178;" horiz-adv-x="1075" d="M-133 1434h53l574 -682l331 682h45l-352 -727l123 -707h-39l-123 705zM156 1638q0 26 17.5 44t43.5 18t44 -18t18 -44t-18 -43.5t-44 -17.5t-43.5 17.5t-17.5 43.5zM442 1638q0 26 18 44t44 18t43.5 -18t17.5 -44t-17.5 -43.5t-43.5 -17.5t-44 17.5t-18 43.5z" />
<glyph unicode="&#x2c6;" horiz-adv-x="768" d="M143 1044l162 267h64l256 -267h-58l-231 242l-148 -242h-45z" />
<glyph unicode="&#x2dc;" horiz-adv-x="860" d="M143 1102q9 70 45 108.5t93 38.5q37 0 80 -19t75.5 -41.5t72 -41.5t71.5 -19q84 0 98 117l39 -6q-9 -71 -44.5 -109t-92.5 -38q-47 0 -101.5 30t-106 60t-91.5 30q-85 0 -99 -116z" />
<glyph unicode="&#x2000;" horiz-adv-x="921" />
<glyph unicode="&#x2001;" horiz-adv-x="1843" />
<glyph unicode="&#x2002;" horiz-adv-x="921" />
<glyph unicode="&#x2003;" horiz-adv-x="1843" />
<glyph unicode="&#x2004;" horiz-adv-x="614" />
<glyph unicode="&#x2005;" horiz-adv-x="460" />
<glyph unicode="&#x2006;" horiz-adv-x="307" />
<glyph unicode="&#x2007;" horiz-adv-x="307" />
<glyph unicode="&#x2008;" horiz-adv-x="230" />
<glyph unicode="&#x2009;" horiz-adv-x="368" />
<glyph unicode="&#x200a;" horiz-adv-x="102" />
<glyph unicode="&#x2010;" horiz-adv-x="839" d="M166 528h491l7 -36h-492z" />
<glyph unicode="&#x2011;" horiz-adv-x="839" d="M166 528h491l7 -36h-492z" />
<glyph unicode="&#x2012;" horiz-adv-x="839" d="M166 528h491l7 -36h-492z" />
<glyph unicode="&#x2013;" horiz-adv-x="901" d="M43 528h799l6 -36h-799z" />
<glyph unicode="&#x2014;" horiz-adv-x="1515" d="M43 528h1413l6 -36h-1413z" />
<glyph unicode="&#x2018;" horiz-adv-x="462" d="M51 983l82 451h41l-82 -451h-41z" />
<glyph unicode="&#x2019;" horiz-adv-x="462" d="M51 983l82 451h41l-82 -451h-41z" />
<glyph unicode="&#x201a;" horiz-adv-x="462" d="M252 -287l82 451h41l-82 -451h-41z" />
<glyph unicode="&#x201c;" horiz-adv-x="831" d="M51 983l82 451h41l-82 -451h-41zM420 983l82 451h41l-82 -451h-41z" />
<glyph unicode="&#x201d;" horiz-adv-x="831" d="M51 983l82 451h41l-82 -451h-41zM420 983l82 451h41l-82 -451h-41z" />
<glyph unicode="&#x201e;" horiz-adv-x="831" d="M252 -287l82 451h41l-82 -451h-41zM621 -287l81 451h41l-81 -451h-41z" />
<glyph unicode="&#x2022;" horiz-adv-x="983" d="M164 440q0 135 96.5 231.5t231.5 96.5t231 -96.5t96 -231.5t-96 -231t-231 -96t-231.5 96t-96.5 231z" />
<glyph unicode="&#x2026;" horiz-adv-x="1454" d="M256 51q0 29 21.5 50.5t50.5 21.5t50 -21.5t21 -50.5t-21 -50t-50 -21t-50.5 21t-21.5 50zM707 51q0 29 21 50.5t50 21.5t50.5 -21.5t21.5 -50.5t-21.5 -50t-50.5 -21t-50 21t-21 50zM1157 51q0 29 21.5 50.5t50.5 21.5t50 -21.5t21 -50.5t-21 -50t-50 -21t-50.5 21 t-21.5 50z" />
<glyph unicode="&#x202f;" horiz-adv-x="368" />
<glyph unicode="&#x2039;" horiz-adv-x="645" d="M158 481l245 359h50l-248 -365l379 -373h-58l-364 359z" />
<glyph unicode="&#x203a;" horiz-adv-x="645" d="M61 840h58l364 -359l4 -20l-245 -359h-49l247 365z" />
<glyph unicode="&#x205f;" horiz-adv-x="460" />
<glyph unicode="&#x20ac;" horiz-adv-x="1316" d="M-82 899h225q40 246 205 400.5t395 154.5q248 0 416 -180l-29 -27q-161 170 -385 170q-212 0 -365.5 -144t-195.5 -374h576l6 -37h-588q-6 -52 -6 -108q0 -97 18 -183h627l6 -36h-622q60 -227 223.5 -373t376.5 -146q310 0 463 232l32 -27q-172 -241 -493 -241 q-154 0 -288 73.5t-225 198.5t-132 283h-176l-7 36h175q-19 93 -19 185q0 54 6 106h-213z" />
<glyph unicode="&#x2122;" horiz-adv-x="1720" d="M0 1397v37h532v-37h-245v-748h-41v748h-246zM676 649v785h31l348 -598l348 598h31v-785h-41v697l-322 -558h-33l-321 558v-697h-41z" />
<glyph unicode="&#x25fc;" horiz-adv-x="880" d="M0 0v881h881v-881h-881z" />
</font>
</defs>
</svg>
