<?xml version="1.0" standalone="no"?>
<!DOCTYPE svg PUBLIC "-//W3C//DTD SVG 1.1//EN" "http://www.w3.org/Graphics/SVG/1.1/DTD/svg11.dtd" >
<svg xmlns="http://www.w3.org/2000/svg">
<metadata></metadata>
<defs>
<font id="brownbold_backslanted" horiz-adv-x="1245" >
<font-face units-per-em="2048" ascent="1638" descent="-410" />
<missing-glyph horiz-adv-x="501" />
<glyph unicode="&#xfb01;" horiz-adv-x="1470" d="M-31 973h256q-16 88 -16 145q0 108 58 195.5t150 134.5t195 47q76 0 129 -10l-26 -232q-44 7 -70 7q-75 0 -123.5 -38.5t-48.5 -101.5q0 -24 14 -106l9 -41h741l172 -973h-268l-133 748h-473l133 -748h-269l-133 748h-256zM866 1325q0 72 51 121t123 49t123 -49t51 -121 t-51 -121t-123 -49t-123 49t-51 121z" />
<glyph unicode="&#xfb02;" horiz-adv-x="1470" d="M-31 973h256q-16 88 -16 145q0 108 58 195.5t150 134.5t195 47q76 0 129 -10l-26 -232q-44 7 -70 7q-75 0 -123.5 -38.5t-48.5 -101.5q0 -24 14 -106l9 -41h471l-84 481h268l258 -1454h-268l-133 748h-473l133 -748h-269l-133 748h-256z" />
<glyph unicode="&#xfb03;" horiz-adv-x="2211" d="M-31 973h256q-16 88 -16 145q0 108 58 195.5t150 134.5t195 47q76 0 129 -10l-26 -232q-44 7 -70 7q-75 0 -123.5 -38.5t-48.5 -101.5q0 -24 14 -106l9 -41h471q-17 94 -17 145q0 108 58.5 195.5t150.5 134.5t195 47q76 0 129 -10l-27 -232q-44 7 -70 7 q-75 0 -123.5 -38.5t-48.5 -101.5q0 -18 15 -106l8 -41h741l172 -973h-268l-133 748h-473l133 -748h-268l-133 748h-473l133 -748h-269l-133 748h-256zM1608 1325q0 72 51 121t123 49t123 -49t51 -121t-51 -121t-123 -49t-123 49t-51 121z" />
<glyph unicode="&#xfb04;" horiz-adv-x="2211" d="M-31 973h256q-16 88 -16 145q0 108 58 195.5t150 134.5t195 47q76 0 129 -10l-26 -232q-44 7 -70 7q-75 0 -123.5 -38.5t-48.5 -101.5q0 -24 14 -106l9 -41h471q-17 94 -17 145q0 108 58.5 195.5t150.5 134.5t195 47q76 0 129 -10l-27 -232q-44 7 -70 7 q-75 0 -123.5 -38.5t-48.5 -101.5q0 -18 15 -106l8 -41h741l172 -973h-268l-133 748h-473l133 -748h-268l-133 748h-473l133 -748h-269l-133 748h-256zM1608 1325q0 72 51 121t123 49t123 -49t51 -121t-51 -121t-123 -49t-123 49t-51 121z" />
<glyph horiz-adv-x="0" />
<glyph horiz-adv-x="0" />
<glyph horiz-adv-x="682" />
<glyph unicode="&#xd;" horiz-adv-x="512" />
<glyph unicode=" "  horiz-adv-x="501" />
<glyph unicode="&#x09;" horiz-adv-x="501" />
<glyph unicode="&#xa0;" horiz-adv-x="501" />
<glyph unicode="!" horiz-adv-x="784" d="M92 1434h268l82 -461l47 -502h-184l-131 502zM272 154q0 75 53 125.5t128 50.5t126.5 -50.5t51.5 -125.5t-51.5 -124.5t-126.5 -49.5q-76 0 -128.5 50t-52.5 124z" />
<glyph unicode="&#x22;" horiz-adv-x="940" d="M-31 1434h269l47 -502h-185zM399 1434h269l47 -502h-185z" />
<glyph unicode="#" horiz-adv-x="1431" d="M-8 604h284l62 225h-184l-41 226h286l101 379h233l-100 -379h258l100 379h234l-101 -379h185l41 -226h-285l-64 -225h185l49 -225h-293l-100 -379h-234l101 379h-258l-101 -379h-233l100 379h-184zM510 604h258l61 225h-258z" />
<glyph unicode="$" horiz-adv-x="1099" d="M0 1055q0 122 72 219t194 145l-45 250h248l39 -217q188 -13 336 -125l-152 -197q-92 78 -213 78q-87 0 -145 -43t-58 -110q0 -41 26 -73t70 -54t101.5 -41.5t120.5 -40.5t126 -45t120.5 -60.5t101.5 -82.5t70 -115t26 -154q0 -126 -76 -225t-200 -148l45 -252h-248 l-39 218q-129 9 -244 64.5t-204 148.5l164 186q63 -68 150 -112t173 -44q89 0 146 47.5t57 122.5q0 49 -26 86.5t-70 62.5t-101.5 46t-120.5 41t-126 42.5t-120.5 55.5t-101.5 75t-70 106.5t-26 144.5z" />
<glyph unicode="%" horiz-adv-x="1851" d="M-20 1090q0 153 110.5 258.5t269.5 105.5q166 0 285 -113t119 -280q0 -153 -111 -259t-270 -106q-166 0 -284.5 113.5t-118.5 280.5zM225 1090q0 -73 46.5 -120.5t111.5 -47.5q60 0 97.5 39.5t37.5 99.5q0 73 -46.5 120.5t-111.5 47.5q-60 0 -97.5 -39.5t-37.5 -99.5z M479 0l590 1434h211l-590 -1434h-211zM995 373q0 153 111 258.5t270 105.5q166 0 285 -113t119 -280q0 -153 -111 -258.5t-270 -105.5q-166 0 -285 113t-119 280zM1241 373q0 -73 46.5 -120.5t111.5 -47.5q60 0 97.5 39.5t37.5 99.5q0 73 -46.5 120.5t-111.5 47.5 q-60 0 -97.5 -39.5t-37.5 -99.5z" />
<glyph unicode="&#x26;" horiz-adv-x="1392" d="M72 467q0 214 166 362q-74 76 -115 145t-41 148q0 144 104 238t248 94q90 0 170.5 -41.5t132 -120t51.5 -176.5q0 -167 -159 -313l366 -344q15 43 15 96q0 87 -31.5 182t-54.5 135l231 99q10 -12 35 -70.5t50.5 -159t25.5 -186.5q0 -154 -74 -281l293 -274h-365l-96 90 q-157 -110 -381 -110q-156 0 -286 61t-207.5 173.5t-77.5 252.5zM338 467q0 -101 84.5 -171.5t220.5 -70.5q109 0 191 43l-410 387q-86 -79 -86 -188zM348 1122q0 -61 94 -147q80 76 80 141q0 38 -27 65t-61 27q-36 0 -61 -24t-25 -62z" />
<glyph unicode="'" horiz-adv-x="509" d="M-31 1434h269l47 -502h-185z" />
<glyph unicode="(" horiz-adv-x="933" d="M301 723q0 404 178 731l205 -125q-137 -280 -137 -606q0 -268 109 -523t298 -466l-182 -164q-471 540 -471 1153z" />
<glyph unicode=")" horiz-adv-x="933" d="M-31 1290l183 164q471 -540 471 -1153q0 -403 -179 -731l-204 125q137 280 137 606q0 269 -109.5 523.5t-298.5 465.5z" />
<glyph unicode="*" horiz-adv-x="1056" d="M-55 1012l67 215l291 -90l-51 297h227l51 -299l263 92l77 -213l-229 -82l213 -227l-166 -152l-217 231l-127 -231l-201 106l138 250z" />
<glyph unicode="+" horiz-adv-x="1167" d="M78 686h358l-65 358h227l66 -358h358l39 -225h-359l64 -359h-227l-64 359h-358z" />
<glyph unicode="," horiz-adv-x="768" d="M225 -287l113 604h287l-215 -604h-185z" />
<glyph unicode="-" horiz-adv-x="1003" d="M141 645h676l39 -225h-676z" />
<glyph unicode="." horiz-adv-x="768" d="M266 154q0 75 51.5 125.5t126.5 50.5t128 -50.5t53 -125.5q0 -74 -52.5 -124t-128.5 -50q-75 0 -126.5 49.5t-51.5 124.5z" />
<glyph unicode="/" horiz-adv-x="667" d="M10 0l414 1434h233l-415 -1434h-232z" />
<glyph unicode="0" horiz-adv-x="1214" d="M43 942q0 249 120 380.5t324 131.5q99 0 184 -36t146 -95.5t110 -141t79.5 -168.5t51 -182t28.5 -178.5t8 -160.5q0 -249 -120.5 -380.5t-324.5 -131.5q-99 0 -184 36t-146 95.5t-109.5 141t-79 168.5t-51 182t-28.5 178.5t-8 160.5zM319 944q0 -92 11 -187.5t36.5 -192 t62.5 -171t94 -121.5t126 -47q168 0 168 264q0 92 -11 187.5t-36.5 192t-62.5 171t-94 121.5t-126 47q-168 0 -168 -264z" />
<glyph unicode="1" horiz-adv-x="897" d="M-10 1225l315 209h195l254 -1434h-279l-203 1141l-241 -142z" />
<glyph unicode="2" horiz-adv-x="1112" d="M-31 1108q37 157 163 251.5t298 94.5q93 0 179.5 -32t154 -89.5t107.5 -145t40 -190.5q0 -100 -35.5 -185.5t-111.5 -197.5l-250 -368h522l43 -246h-901l-28 164l387 581q57 87 77.5 141.5t20.5 110.5q0 92 -59.5 151.5t-145.5 59.5q-85 0 -141.5 -52t-69.5 -120z" />
<glyph unicode="3" horiz-adv-x="1167" d="M-41 1434h872l29 -164l-205 -295q172 -46 286 -187.5t114 -330.5q0 -201 -148 -339t-366 -138q-129 0 -240.5 48t-189.5 134l184 174q96 -111 233 -111q109 0 179.5 69.5t70.5 172.5q0 126 -82.5 203.5t-208.5 77.5q-93 0 -188 -43l-29 163l222 320h-490z" />
<glyph unicode="4" horiz-adv-x="1234" d="M10 492l580 942h192l154 -861h246l43 -245h-246l59 -328h-278l-58 328h-663zM367 573h290l-65 367z" />
<glyph unicode="5" horiz-adv-x="1155" d="M82 131l160 207q106 -113 262 -113q106 0 184 67t78 177q0 115 -80 186.5t-194 71.5q-120 0 -207 -78h-195v785h748l43 -246h-514v-234q76 17 149 17q128 0 236 -51q131 -63 210.5 -183.5t79.5 -267.5q0 -216 -148 -352.5t-380 -136.5q-118 0 -230.5 37.5t-201.5 113.5z " />
<glyph unicode="6" horiz-adv-x="1239" d="M92 500q0 171 121 395l293 539h297l-254 -459q20 2 51 2q108 0 208.5 -39.5t175.5 -108t120 -166t45 -206.5q0 -201 -144.5 -339t-363.5 -138q-145 0 -271 67t-202 187.5t-76 265.5zM365 500q0 -111 81 -193t191 -82q100 0 167.5 65.5t67.5 166.5q0 112 -80.5 193 t-191.5 81q-55 0 -110 -16t-91 -45q-34 -74 -34 -170z" />
<glyph unicode="7" horiz-adv-x="1093" d="M-82 1434h952l29 -164l-393 -1270h-266l362 1188h-641z" />
<glyph unicode="8" horiz-adv-x="1202" d="M72 1077q0 97 49 182.5t143 140t213 54.5q184 0 307 -120.5t123 -299.5q0 -124 -65 -207q116 -60 182 -167t66 -248q0 -179 -139 -305.5t-341 -126.5q-144 0 -261.5 66t-184 180t-66.5 253q0 175 127 289q-153 116 -153 309zM348 1071q0 -66 45.5 -113t108.5 -47 q57 0 93 39t36 99q0 66 -45.5 112.5t-108.5 46.5q-57 0 -93 -38.5t-36 -98.5zM375 463q0 -97 69.5 -167.5t165.5 -70.5q90 0 146.5 57.5t56.5 145.5q0 97 -69.5 167.5t-165.5 70.5q-90 0 -146.5 -57.5t-56.5 -145.5z" />
<glyph unicode="9" horiz-adv-x="1220" d="M10 977q0 201 144.5 339t363.5 138q145 0 271 -67t202 -187.5t76 -265.5q0 -171 -121 -395l-293 -539h-297l254 459q-20 -2 -51 -2q-108 0 -208.5 39.5t-175.5 108t-120 166t-45 206.5zM287 977q0 -112 81 -193.5t191 -81.5q55 0 110 16.5t91 45.5q35 76 35 170 q0 110 -81.5 192t-191.5 82q-101 0 -168 -65t-67 -166z" />
<glyph unicode=":" horiz-adv-x="768" d="M150 817q0 75 52.5 125.5t127.5 50.5t126.5 -50.5t51.5 -125.5t-51.5 -124.5t-126.5 -49.5q-76 0 -128 50t-52 124zM266 154q0 75 52.5 125.5t127.5 50.5t127 -50.5t52 -125.5t-51.5 -124.5t-127.5 -49.5t-128 50t-52 124z" />
<glyph unicode=";" horiz-adv-x="768" d="M150 817q0 75 52.5 125.5t127.5 50.5t126.5 -50.5t51.5 -125.5t-51.5 -124.5t-126.5 -49.5q-76 0 -128 50t-52 124zM225 -287l113 604h287l-215 -604h-185z" />
<glyph unicode="&#x3c;" horiz-adv-x="1126" d="M23 645l870 414l41 -230l-502 -237l584 -236l49 -264l-1018 410z" />
<glyph unicode="=" horiz-adv-x="1167" d="M41 901h944l39 -225h-944zM117 471h944l39 -225h-944z" />
<glyph unicode="&#x3e;" horiz-adv-x="1208" d="M49 1055l1018 -410l25 -143l-871 -414l-41 229l502 238l-584 236z" />
<glyph unicode="?" horiz-adv-x="1024" d="M10 1151q31 131 145 217t263 86q111 0 205 -49.5t150 -138.5t56 -197q0 -70 -25.5 -133t-61.5 -106.5t-72.5 -80.5t-62 -69t-25.5 -57q0 -41 57 -84l-195 -160q-14 11 -31.5 30t-41.5 51t-40 75t-16 86q0 60 25.5 114.5t62 95t73 77.5t62 78.5t25.5 82.5q0 59 -41 99 t-104 40q-60 0 -104.5 -38t-55.5 -87zM403 154q0 75 52 125.5t127 50.5t127.5 -50.5t52.5 -125.5q0 -74 -52 -124t-128 -50t-127.5 49.5t-51.5 124.5z" />
<glyph unicode="@" horiz-adv-x="2048" d="M154 512q0 184 69.5 350.5t188.5 287.5t285.5 192t351.5 71q174 0 334.5 -70.5t276.5 -188.5t185.5 -280.5t69.5 -338.5q0 -199 -103.5 -331t-259.5 -132q-150 0 -237 90q-107 -90 -273 -90q-118 0 -224 59.5t-172 166t-66 232.5q0 101 44 190.5t119 147.5q113 84 246 84 q105 0 191 -53l-6 33h186l100 -563q16 -93 92 -93q65 0 101.5 72.5t36.5 186.5q0 178 -88.5 328.5t-239.5 237.5t-328 87q-133 0 -254.5 -53.5t-209 -144t-139.5 -216t-52 -262.5t52 -262.5t139.5 -216t209 -144t254.5 -53.5q238 0 406 133l127 -186q-230 -172 -518 -172 q-185 0 -351 71t-285 191.5t-189 287t-70 351.5zM805 530q0 -108 76 -181t186 -73q101 0 174 62l-70 367q-67 43 -137 43q-91 0 -153 -50q-76 -60 -76 -168z" />
<glyph unicode="A" horiz-adv-x="1431" d="M72 0l379 1434h194l868 -1434h-313l-192 317h-576l-84 -317h-276zM498 563h360l-252 414z" />
<glyph unicode="B" horiz-adv-x="1259" d="M-6 1434h500q123 0 204.5 -27t141.5 -80q66 -58 103.5 -137t37.5 -168q0 -99 -59 -184q126 -56 206 -166.5t80 -243.5q0 -95 -41.5 -180.5t-113.5 -145.5q-62 -52 -146.5 -77t-212.5 -25h-446zM315 1188l56 -307h153q107 0 146 45q35 38 35 96q0 77 -60 127 q-45 39 -145 39h-185zM412 645l71 -399h205q86 0 131.5 15.5t71.5 47.5q41 47 41 119q0 93 -70 160q-32 29 -78 43t-129 14h-243z" />
<glyph unicode="C" horiz-adv-x="1439" d="M20 758q0 145 54.5 273.5t149.5 221.5t230 147t289 54q250 0 471 -166l-139 -207q-169 127 -332 127q-191 0 -318.5 -127t-127.5 -323q0 -141 72.5 -264t195 -196t262.5 -73q62 0 117.5 13.5t91 29t79.5 50t62 52t60 60.5l182 -172q-99 -127 -248.5 -202.5t-343.5 -75.5 q-165 0 -315 63.5t-257.5 169t-171 248.5t-63.5 297z" />
<glyph unicode="D" horiz-adv-x="1503" d="M-6 1434h577q300 0 500 -140q153 -107 241.5 -270.5t88.5 -345.5q0 -176 -80 -323.5t-221 -239.5q-88 -58 -197.5 -86.5t-265.5 -28.5h-389zM315 1188l168 -942h154q122 0 201.5 25t138.5 75q69 60 108 145t39 187q0 118 -53.5 224t-146.5 179q-67 53 -150.5 80 t-204.5 27h-254z" />
<glyph unicode="E" horiz-adv-x="1128" d="M-6 1434h860l43 -246h-582l54 -297h438l43 -246h-438l69 -399h604l43 -246h-880z" />
<glyph unicode="F" horiz-adv-x="1071" d="M-6 1434h860l43 -246h-582l54 -297h438l43 -246h-438l114 -645h-278z" />
<glyph unicode="G" horiz-adv-x="1501" d="M20 758q0 145 54.5 273.5t149.5 221.5t230 147t289 54q250 0 471 -166l-139 -207q-169 127 -332 127q-191 0 -318.5 -127t-127.5 -323q0 -141 72.5 -264t195 -196t262.5 -73q176 0 299 101l-55 319h-364l-43 246h645l110 -633q-99 -127 -248.5 -202.5t-343.5 -75.5 q-165 0 -315 63.5t-257.5 169t-171 248.5t-63.5 297z" />
<glyph unicode="H" horiz-adv-x="1595" d="M-6 1434h278l97 -543h714l-96 543h279l254 -1434h-279l-115 645h-714l114 -645h-278z" />
<glyph unicode="I" horiz-adv-x="602" d="M-6 1434h278l254 -1434h-278z" />
<glyph unicode="J" horiz-adv-x="1032" d="M72 207l217 139q77 -121 198 -121q63 0 104.5 36.5t41.5 100.5q0 35 -17 125l-167 947h278l145 -816q37 -201 37 -256q0 -161 -118 -271.5t-304 -110.5q-77 0 -146.5 20.5t-120 55.5t-86.5 72t-62 79z" />
<glyph unicode="K" horiz-adv-x="1433" d="M4 1434h272l103 -576l485 576h346l-538 -631l854 -803h-385l-735 696l124 -696h-272z" />
<glyph unicode="L" horiz-adv-x="1118" d="M-6 1434h278l209 -1188h604l43 -246h-880z" />
<glyph unicode="M" horiz-adv-x="1759" d="M-6 1434h194l703 -859l344 859h195l253 -1434h-278l-145 809l-228 -573h-194l-453 555l141 -791h-278z" />
<glyph unicode="N" horiz-adv-x="1595" d="M-6 1434h194l961 -916l-162 916h279l254 -1434h-195l-960 911l161 -911h-278z" />
<glyph unicode="O" horiz-adv-x="1638" d="M20 758q0 144 54.5 272.5t149.5 221.5t230 147.5t289 54.5q163 0 311 -64.5t253 -170.5t167 -248.5t62 -294.5q0 -144 -54.5 -272.5t-149.5 -221.5t-230 -147.5t-289 -54.5q-163 0 -311 64.5t-253 170.5t-167 248.5t-62 294.5zM297 758q0 -138 71 -261.5t190.5 -197.5 t254.5 -74q190 0 318.5 128t128.5 323q0 138 -71 261t-191 197t-255 74q-190 0 -318 -127.5t-128 -322.5z" />
<glyph unicode="P" horiz-adv-x="1228" d="M-6 1434h563q205 0 334 -91q85 -61 134.5 -154t49.5 -198q0 -144 -96 -258q-126 -149 -391 -149h-166l104 -584h-278zM315 1188l64 -359h194q82 0 126 15.5t67 46.5q33 45 33 100q0 90 -70 150q-53 47 -184 47h-230z" />
<glyph unicode="Q" horiz-adv-x="1638" d="M20 758q0 144 54.5 272.5t149.5 221.5t230 147.5t289 54.5q163 0 311 -64.5t253 -170.5t167 -248.5t62 -294.5q0 -217 -119 -391l291 -285h-334l-121 117q-190 -137 -440 -137q-163 0 -311 64.5t-253 170.5t-167 248.5t-62 294.5zM297 758q0 -138 71 -261.5t190.5 -197.5 t254.5 -74q141 0 254 74l-362 354l163 166l351 -342q41 90 41 199q0 138 -71 261t-191 197t-255 74q-190 0 -318 -127.5t-128 -322.5z" />
<glyph unicode="R" horiz-adv-x="1384" d="M-6 1434h524q182 0 281 -58q95 -55 150 -146.5t55 -203.5q0 -90 -41.5 -170t-112.5 -133q-20 -16 -37 -25l664 -698h-365l-604 645h-96l114 -645h-278zM315 1188l56 -307h155q94 0 146 32q55 36 55 111q0 80 -47 121q-49 43 -164 43h-201z" />
<glyph unicode="S" horiz-adv-x="1099" d="M0 1055q0 168 132 283.5t329 115.5q216 0 383 -127l-152 -197q-92 78 -213 78q-87 0 -145 -43t-58 -110q0 -41 26 -73t70 -54t101.5 -41.5t120.5 -40.5t126 -45t120.5 -60.5t101.5 -82.5t70 -115t26 -154q0 -115 -65.5 -209.5t-173.5 -147t-232 -52.5q-142 0 -270 56.5 t-225 158.5l164 186q63 -68 150 -112t173 -44q89 0 146 47.5t57 122.5q0 49 -26 86.5t-70 62.5t-101.5 46t-120.5 41t-126 42.5t-120.5 55.5t-101.5 75t-70 106.5t-26 144.5z" />
<glyph unicode="T" horiz-adv-x="1155" d="M-109 1434h1037l43 -246h-379l211 -1188h-279l-211 1188h-379z" />
<glyph unicode="U" horiz-adv-x="1540" d="M-31 1434h279l137 -768q41 -233 119 -322q102 -119 291 -119q137 0 226 74.5t89 208.5q0 53 -31 235l-123 691h279l102 -582q49 -269 49 -330q0 -130 -48 -235t-130.5 -171t-188 -101t-224.5 -35q-329 0 -504 202q-65 75 -108 182t-72 273z" />
<glyph unicode="V" horiz-adv-x="1349" d="M-164 1434h305l551 -955l213 955h271l-320 -1434h-194z" />
<glyph unicode="W" horiz-adv-x="2015" d="M-154 1434h297l449 -883l151 883h195l481 -893l144 893h268l-227 -1434h-195l-487 901l-152 -901h-195z" />
<glyph unicode="X" horiz-adv-x="1400" d="M-82 1434h346l350 -435l205 435h297l-307 -641l653 -793h-346l-461 565l-268 -565h-297l373 772z" />
<glyph unicode="Y" horiz-adv-x="1298" d="M-152 1434h347l401 -506l225 506h293l-354 -791l114 -643h-278l-115 645z" />
<glyph unicode="Z" horiz-adv-x="1288" d="M-10 1434h991l29 -164l-537 -1024h762l43 -246h-1106l-29 164l531 1024h-641z" />
<glyph unicode="[" horiz-adv-x="933" d="M154 1434h565l43 -236h-318l242 -1372h318l43 -236h-566z" />
<glyph unicode="\" horiz-adv-x="1204" d="M10 1434h266l918 -1434h-266z" />
<glyph unicode="]" horiz-adv-x="933" d="M-123 1434h565l328 -1844h-565l-43 236h317l-241 1372h-318z" />
<glyph unicode="^" horiz-adv-x="1013" d="M0 717l252 717h184l506 -717h-274l-287 407l-141 -407h-240z" />
<glyph unicode="_" horiz-adv-x="1064" d="M115 0h1003l39 -225h-1003z" />
<glyph unicode="`" horiz-adv-x="716" d="M143 1454h287l143 -328h-184z" />
<glyph unicode="a" d="M72 535q0 201 127.5 329.5t308.5 128.5q158 0 270 -86l-10 66h244l172 -973h-246l-16 92q-150 -112 -318 -112q-139 0 -268 73q-122 72 -193 205.5t-71 276.5zM338 522q0 -126 84 -210.5t201 -84.5q65 0 128 26t107 71l-55 317q-103 109 -238 109q-104 0 -165.5 -63.5 t-61.5 -164.5z" />
<glyph unicode="b" horiz-adv-x="1251" d="M-20 1454h268l98 -559q151 98 299 98q139 0 268 -73q122 -72 193.5 -205.5t71.5 -276.5q0 -100 -35 -186.5t-94.5 -145.5t-139.5 -92.5t-168 -33.5q-158 0 -270 86l10 -66h-243zM391 649l55 -317q103 -109 238 -109q104 0 165.5 63.5t61.5 164.5q0 126 -83.5 210 t-200.5 84q-65 0 -128.5 -25.5t-107.5 -70.5z" />
<glyph unicode="c" horiz-adv-x="1069" d="M72 502q0 132 63.5 244.5t179 179.5t258.5 67q207 0 365 -129l-150 -192q-90 76 -198 76q-109 0 -180.5 -70.5t-71.5 -175.5q0 -116 86.5 -196.5t210.5 -80.5q132 0 229 105l195 -144q-72 -101 -185 -153.5t-245 -52.5q-144 0 -270 62t-206.5 183.5t-80.5 276.5z" />
<glyph unicode="d" d="M72 535q0 201 127.5 329.5t308.5 128.5q149 0 244 -67l-95 528h269l258 -1454h-246l-16 92q-150 -112 -318 -112q-139 0 -268 73q-122 72 -193 205.5t-71 276.5zM338 522q0 -126 84 -210.5t201 -84.5q65 0 128 26t107 71l-55 317q-103 109 -238 109q-104 0 -165.5 -63.5 t-61.5 -164.5z" />
<glyph unicode="e" horiz-adv-x="1101" d="M72 506q0 214 128 350.5t337 136.5q203 0 347 -153t144 -373q0 -33 -2 -49h-690q20 -98 104.5 -160.5t192.5 -62.5q141 0 256 96l139 -174q-79 -64 -185 -100.5t-210 -36.5q-153 0 -280 64t-204 185.5t-77 276.5zM328 606h438q-25 79 -85 125.5t-136 46.5 q-82 0 -138 -44.5t-79 -127.5z" />
<glyph unicode="f" horiz-adv-x="944" d="M-31 973h256q-16 88 -16 145q0 108 58 195.5t150 134.5t195 47q76 0 129 -10l-26 -232q-44 7 -70 7q-75 0 -123.5 -38.5t-48.5 -101.5q0 -24 14 -106l9 -41h315l41 -225h-317l133 -748h-269l-133 748h-256z" />
<glyph unicode="g" d="M72 535q0 201 127.5 329.5t308.5 128.5q158 0 270 -86l-10 66h244l157 -885q17 -96 17 -168q0 -183 -144.5 -307.5t-359.5 -124.5q-245 0 -428 168l156 190q121 -112 272 -112q99 0 168.5 51.5t69.5 146.5q0 57 -19 144q-148 -96 -297 -96q-139 0 -268 73 q-122 72 -193 205.5t-71 276.5zM338 522q0 -126 84 -210.5t201 -84.5q65 0 128 26t107 71l-55 317q-103 109 -238 109q-104 0 -165.5 -63.5t-61.5 -164.5z" />
<glyph unicode="h" horiz-adv-x="1294" d="M-20 1454h268l102 -573q57 52 134.5 82t160.5 30q207 0 348 -141q123 -119 162 -348l88 -504h-268l-84 477q-27 154 -100 215q-66 56 -162 56q-70 0 -138 -42.5t-94 -91.5l109 -614h-268z" />
<glyph unicode="i" horiz-adv-x="567" d="M-37 1325q0 72 51 121t123 49t123 -49t51 -121t-51 -121t-123 -49t-123 49t-51 121zM66 973h268l172 -973h-268z" />
<glyph unicode="j" horiz-adv-x="634" d="M31 1325q0 72 51 121t123 49t123 -49t51 -121t-51 -121t-123 -49t-123 49t-51 121zM84 -504l22 244q24 -6 72 -6q63 0 104.5 37t41.5 102q0 19 -15 107l-176 993h268l164 -926q23 -141 23 -172q0 -128 -51 -211q-51 -84 -142.5 -130t-204.5 -46q-75 0 -106 8z" />
<glyph unicode="k" horiz-adv-x="1200" d="M-20 1454h268l141 -795l303 314h357l-394 -404l648 -569h-385l-488 430l76 -430h-268z" />
<glyph unicode="l" horiz-adv-x="567" d="M-20 1454h268l258 -1454h-268z" />
<glyph unicode="m" horiz-adv-x="2002" d="M66 973h243l21 -111q57 62 138.5 96.5t170.5 34.5q207 0 344 -137l21 -22q151 159 358 159q211 0 348 -137q112 -109 154 -352l88 -504h-269l-84 477q-28 161 -98 219q-61 52 -147 52q-71 0 -135.5 -39.5t-100.5 -100.5q19 -76 23 -104l88 -504h-268l-84 477 q-28 160 -99 219q-61 52 -147 52q-67 0 -133 -37t-101 -97l109 -614h-268z" />
<glyph unicode="n" horiz-adv-x="1294" d="M66 973h243l21 -111q53 58 136 94.5t171 36.5q215 0 356 -141q123 -119 162 -348l88 -504h-268l-84 477q-27 154 -100 215q-66 56 -162 56q-70 0 -138 -42.5t-94 -91.5l109 -614h-268z" />
<glyph unicode="o" horiz-adv-x="1198" d="M72 508q0 99 39 188.5t105.5 154.5t161 103.5t200.5 38.5q109 0 209.5 -41.5t174.5 -112t118 -168.5t44 -206q0 -99 -39 -188.5t-105.5 -154.5t-161 -103.5t-200.5 -38.5q-109 0 -209.5 41.5t-174.5 112t-118 168.5t-44 206zM338 508q0 -115 83 -199t197 -84 q102 0 171 69t69 171q0 115 -83 199t-197 84q-102 0 -171 -69t-69 -171z" />
<glyph unicode="p" horiz-adv-x="1251" d="M66 973h245l17 -92q150 112 317 112q139 0 268 -73q122 -72 193.5 -205.5t71.5 -276.5q0 -100 -35 -186.5t-94.5 -145.5t-139.5 -92.5t-168 -33.5q-148 0 -243 67l96 -539h-268zM391 649l55 -317q103 -109 238 -109q104 0 165.5 63.5t61.5 164.5q0 126 -83.5 210 t-200.5 84q-65 0 -128.5 -25.5t-107.5 -70.5z" />
<glyph unicode="q" d="M72 535q0 201 127.5 329.5t308.5 128.5q158 0 270 -86l-10 66h244l258 -1465h-269l-98 570q-151 -98 -299 -98q-139 0 -268 73q-122 72 -193 205.5t-71 276.5zM338 522q0 -126 84 -210.5t201 -84.5q65 0 128 26t107 71l-55 317q-103 109 -238 109q-104 0 -165.5 -63.5 t-61.5 -164.5z" />
<glyph unicode="r" horiz-adv-x="864" d="M66 973h243l21 -119q43 55 123 97t184 42q53 0 94 -8l-26 -244q-32 7 -70 7q-69 0 -135 -40t-101 -104l107 -604h-268z" />
<glyph unicode="s" horiz-adv-x="956" d="M72 686q0 135 116 221t291 86q78 0 156 -21t131 -52l-113 -195q-68 43 -164 43q-69 0 -110 -23t-41 -55q0 -25 31.5 -42.5t81.5 -29.5t110 -25t120.5 -35t110.5 -53.5t81.5 -86.5t31.5 -127q0 -132 -111.5 -221.5t-273.5 -89.5q-231 0 -389 110l127 195q110 -80 240 -80 q57 0 99 23t42 63q0 28 -31.5 47t-81.5 31t-110 24.5t-120.5 33t-110.5 50.5t-81.5 83.5t-31.5 125.5z" />
<glyph unicode="t" horiz-adv-x="1050" d="M-41 973h277l-46 256h269l45 -256h338l39 -225h-338l61 -338q16 -89 49 -131q48 -64 168 -64q55 0 109 16l80 -219q-88 -32 -205 -32q-110 0 -210.5 41.5t-162.5 125.5q-35 49 -57 109.5t-39 153.5l-62 338h-276z" />
<glyph unicode="u" horiz-adv-x="1280" d="M55 973h269l84 -477q29 -162 98 -220q60 -51 147 -51q68 0 134 36.5t100 96.5l-109 615h269l172 -973h-244l-21 111q-57 -62 -138.5 -96.5t-170.5 -34.5q-211 0 -348 137q-112 109 -154 352z" />
<glyph unicode="v" horiz-adv-x="1163" d="M-61 973h297l385 -586l178 586h262l-299 -973h-184z" />
<glyph unicode="w" horiz-adv-x="1738" d="M-61 973h286l334 -549l139 549h185l344 -561l143 561h256l-248 -973h-184l-346 561l-139 -561h-185z" />
<glyph unicode="x" horiz-adv-x="1159" d="M-10 973h336l229 -277l137 277h285l-236 -451l469 -522h-346l-282 336l-166 -336h-295l276 514z" />
<glyph unicode="y" horiz-adv-x="1171" d="M-72 973h318l403 -563l156 563h264l-416 -1465h-264l172 605z" />
<glyph unicode="z" horiz-adv-x="1062" d="M41 973h819l29 -164l-402 -584h525l41 -225h-881l-29 164l398 584h-461z" />
<glyph unicode="{" horiz-adv-x="933" d="M113 594q168 0 168 127q0 68 -41 205t-41 209q0 148 88.5 223.5t251.5 75.5q50 0 73 -2l41 -236q-25 2 -75 2q-59 0 -97.5 -27.5t-38.5 -87.5q0 -41 38 -175.5t38 -209.5q0 -109 -90 -161q75 -24 119 -82.5t61 -188.5q5 -41 12.5 -137t18.5 -160q24 -143 192 -143 q44 0 64 2l43 -234q-31 -4 -111 -4q-81 0 -149 17.5t-129 56t-101.5 111.5t-52.5 174q-7 62 -11 168.5t-15 169.5q-24 143 -224 143z" />
<glyph unicode="|" horiz-adv-x="569" d="M-6 1434h248l327 -1844h-247z" />
<glyph unicode="}" horiz-adv-x="933" d="M-14 1430q31 4 110 4q81 0 149 -17.5t129 -56t101.5 -111.5t52.5 -174q7 -62 11.5 -168.5t15.5 -169.5q24 -143 223 -143l33 -164q-168 0 -168 -127q0 -68 41 -205t41 -209q0 -148 -88.5 -223.5t-251.5 -75.5q-51 0 -74 2l-41 236q25 -2 76 -2q59 0 97 27.5t38 87.5 q0 41 -37.5 175.5t-37.5 209.5q0 109 90 161q-75 24 -119.5 82.5t-61.5 188.5q-5 42 -12 138t-18 159q-24 143 -193 143q-43 0 -63 -2z" />
<glyph unicode="~" horiz-adv-x="1167" d="M31 424q0 150 89.5 249t244.5 99q57 0 109.5 -17.5t91 -43t72 -51t65.5 -43t59 -17.5q51 0 80.5 48.5t31.5 113.5l222 -39q0 -150 -89.5 -249t-244.5 -99q-57 0 -109.5 17.5t-91 43t-72 51t-65.5 43t-59 17.5q-51 0 -81 -48.5t-32 -113.5z" />
<glyph unicode="&#xa1;" horiz-adv-x="784" d="M160 817q0 75 52.5 125.5t127.5 50.5t126.5 -50.5t51.5 -125.5t-51.5 -124.5t-126.5 -49.5q-76 0 -128 50t-52 124zM305 471h184l132 -502l81 -461h-268l-82 461z" />
<glyph unicode="&#xa2;" horiz-adv-x="1069" d="M72 502q0 155 87 281t232 180l-41 245h248l39 -219q166 -16 301 -125l-150 -192q-90 76 -198 76q-109 0 -180.5 -70.5t-71.5 -175.5q0 -116 86.5 -196.5t210.5 -80.5q132 0 229 105l195 -144q-96 -134 -266 -184l43 -238h-248l-39 222q-96 12 -182 54t-152 107 t-104.5 157t-38.5 198z" />
<glyph unicode="&#xa3;" horiz-adv-x="1155" d="M41 829h131q-51 111 -51 218q0 118 63 212.5t161 144.5t208 50q85 0 159 -26t123 -67.5t81 -87t45 -89.5l-230 -88q-60 112 -166 112q-76 0 -127 -47t-51 -114q0 -53 18.5 -102.5t53.5 -115.5h299l39 -225h-224q31 -91 31 -172q0 -42 -12 -95.5t-31 -90.5h561l43 -246 h-999l-29 164q201 62 201 254q0 84 -51 186h-207z" />
<glyph unicode="&#xa4;" horiz-adv-x="1249" d="M82 350l164 162q-53 92 -53 207q0 113 53 205l-164 163l174 175l164 -164q92 53 205 53q114 0 206 -53l162 164l174 -175l-161 -163q51 -94 51 -205q0 -113 -51 -207l161 -162l-174 -174l-162 162q-94 -51 -206 -51q-111 0 -205 51l-164 -162zM459 719q0 -69 48.5 -117.5 t117.5 -48.5t117.5 48.5t48.5 117.5t-48.5 117.5t-117.5 48.5t-117.5 -48.5t-48.5 -117.5z" />
<glyph unicode="&#xa5;" horiz-adv-x="1376" d="M-152 1434h347l401 -506l225 506h293l-196 -441h174l41 -225h-316l-47 -102h381l41 -226h-395l77 -440h-278l-78 440h-393l-41 226h381l-82 102h-317l-39 225h176z" />
<glyph unicode="&#xa6;" horiz-adv-x="657" d="M41 1434h248l141 -799h-248zM225 389h248l143 -799h-247z" />
<glyph unicode="&#xa7;" horiz-adv-x="1189" d="M72 571q0 145 104 258q-86 89 -86 226q0 168 132 283.5t329 115.5q216 0 383 -127l-152 -197q-92 78 -213 78q-87 0 -144.5 -43t-57.5 -110q0 -27 13.5 -50t32.5 -38.5t55.5 -32t64.5 -26.5t80 -27.5t83 -28.5q53 -19 90.5 -34t86 -39t82 -47.5t68.5 -57.5t56.5 -71 t35 -86t13.5 -105q0 -148 -104 -258q86 -93 86 -226q0 -168 -132 -283.5t-329 -115.5q-216 0 -383 127l152 197q92 -78 213 -78q87 0 145 43t58 110q0 27 -13.5 50t-32.5 38.5t-55.5 32t-65 26.5t-80.5 27.5t-83 28.5q-53 19 -90.5 34t-86 39t-82 47.5t-68.5 57.5t-56.5 71 t-35 86t-13.5 105zM348 571q0 -40 19.5 -72.5t48.5 -54.5t78.5 -44t91.5 -36t105.5 -35.5t105.5 -37.5q55 55 55 121q0 39 -20 71.5t-49 54t-78 43.5t-91.5 36t-105.5 35.5t-105 37.5q-55 -55 -55 -119z" />
<glyph unicode="&#xa8;" horiz-adv-x="1044" d="M143 1294q0 67 48 113.5t116 46.5t116 -46.5t48 -113.5t-48 -113t-116 -46t-116 46t-48 113zM573 1294q0 67 48 113.5t116 46.5t116 -46.5t48 -113.5t-48 -113t-116 -46t-116 46t-48 113z" />
<glyph unicode="&#xa9;" horiz-adv-x="1720" d="M102 717q0 145 57 278t153 229t229 153t278 57t278 -57t229 -153t153 -229t57 -278t-57 -278t-153 -229t-229 -153t-278 -57t-278 57t-229 153t-153 229t-57 278zM246 717q0 -156 76.5 -288t208.5 -209t288 -77t288 77t209 209t77 288t-77 288t-209 208.5t-288 76.5 q-117 0 -223 -45.5t-182.5 -122t-122 -182.5t-45.5 -223zM422 717q0 177 120 294t296 117q161 0 258 -94l-101 -121q-72 52 -155 52q-99 0 -169.5 -73t-70.5 -175q0 -103 71.5 -174.5t174.5 -71.5q102 0 176 74l104 -125q-46 -47 -121.5 -80t-156.5 -33q-180 0 -303 118 t-123 292z" />
<glyph unicode="&#xaa;" horiz-adv-x="851" d="M-23 1145q0 125 86.5 217t204.5 92q97 0 150 -53l-6 33h174l108 -615h-174l-10 49q-73 -69 -188 -69q-150 0 -247.5 101.5t-97.5 244.5zM182 1145q0 -70 43.5 -116t108.5 -46q74 0 117 51l-33 185q-45 51 -113 51q-54 0 -88.5 -35t-34.5 -90z" />
<glyph unicode="&#xab;" horiz-adv-x="1341" d="M109 578l192 317h266l-221 -360l361 -418h-301l-273 317zM662 578l192 317h266l-221 -360l361 -418h-302l-272 317z" />
<glyph unicode="&#xac;" horiz-adv-x="1167" d="M41 901h944l115 -655h-228l-75 430h-717z" />
<glyph unicode="&#xad;" horiz-adv-x="1003" d="M141 645h676l39 -225h-676z" />
<glyph unicode="&#xae;" horiz-adv-x="1720" d="M102 717q0 145 57 278t153 229t229 153t278 57t278 -57t229 -153t153 -229t57 -278t-57 -278t-153 -229t-229 -153t-278 -57t-278 57t-229 153t-153 229t-57 278zM246 717q0 -156 76.5 -288t208.5 -209t288 -77t288 77t209 209t77 288t-77 288t-209 208.5t-288 76.5 q-117 0 -223 -45.5t-182.5 -122t-122 -182.5t-45.5 -223zM543 326v784h278q130 0 197 -61q78 -68 78 -177q0 -119 -101 -180q-15 -11 -49 -22l236 -344h-195l-219 331h-47v-331h-178zM721 803h106q56 0 76 26q15 19 15 43q0 27 -15 46q-25 28 -76 28h-106v-143z" />
<glyph unicode="&#xaf;" horiz-adv-x="942" d="M143 1188v205h656v-205h-656z" />
<glyph unicode="&#xb0;" horiz-adv-x="880" d="M0 1106q0 145 101.5 246.5t246.5 101.5t246.5 -101.5t101.5 -246.5t-101.5 -246.5t-246.5 -101.5t-246.5 101.5t-101.5 246.5zM205 1106q0 -60 41.5 -101.5t101.5 -41.5t102 41.5t42 101.5t-42 101.5t-102 41.5t-101.5 -41.5t-41.5 -101.5z" />
<glyph unicode="&#xb1;" horiz-adv-x="1167" d="M53 827h359l-47 258h227l47 -258h358l39 -225h-358l47 -258h-227l-47 258h-359zM152 287h944l39 -226h-945z" />
<glyph unicode="&#xb2;" horiz-adv-x="606" d="M-113 1262q24 90 94.5 141t159.5 51q107 0 189 -68t82 -176q0 -85 -80 -202l-88 -127h237l33 -185h-541l-18 103l221 315q35 49 35 88q0 27 -20 47.5t-50 20.5t-51.5 -20.5t-26.5 -43.5z" />
<glyph unicode="&#xb3;" horiz-adv-x="624" d="M-102 1434h462l19 -103l-94 -153q88 -27 142 -93.5t54 -154.5q0 -111 -79 -182.5t-214 -71.5q-68 0 -131 25t-110 65l119 133q56 -49 114 -49q42 0 69 22t27 62q0 42 -32 68t-78 26t-94 -24l-19 102l99 154h-224z" />
<glyph unicode="&#xb4;" horiz-adv-x="716" d="M143 1126l144 328h286l-245 -328h-185z" />
<glyph unicode="&#xb5;" horiz-adv-x="1290" d="M66 973h268l84 -477q29 -162 98 -220q60 -51 148 -51q68 0 133 36.5t100 96.5l-109 615h269l172 -973h-244l-20 111q-57 -62 -139 -96.5t-171 -34.5q-83 0 -151 30l90 -502h-268z" />
<glyph unicode="&#xb6;" horiz-adv-x="1480" d="M-41 1026q0 158 96 268q126 140 338 140h842l41 -226h-205l287 -1618h-248l-287 1618h-202l286 -1618h-248l-170 961q-151 0 -268 57q-120 59 -191 167t-71 251zM205 1026q0 -103 71.5 -175.5t172.5 -72.5l-78 430q-74 0 -120 -49.5t-46 -132.5z" />
<glyph unicode="&#xb7;" horiz-adv-x="768" d="M215 487q0 75 51.5 126t126.5 51t127.5 -51t52.5 -126q0 -74 -52 -124t-128 -50q-75 0 -126.5 49.5t-51.5 124.5z" />
<glyph unicode="&#xb8;" horiz-adv-x="634" d="M143 -307l133 327h195l-61 -327h-267z" />
<glyph unicode="&#xb9;" horiz-adv-x="559" d="M-82 1292l244 142h123l131 -738h-207l-92 510l-168 -92z" />
<glyph unicode="&#xba;" horiz-adv-x="851" d="M-23 1145q0 130 93.5 219.5t230.5 89.5q156 0 256 -100.5t100 -245.5q0 -130 -93 -219.5t-230 -89.5q-156 0 -256.5 100.5t-100.5 245.5zM182 1145q0 -70 43.5 -116t108.5 -46q54 0 86.5 36.5t32.5 88.5q0 70 -43.5 116t-108.5 46q-54 0 -86.5 -36.5t-32.5 -88.5z" />
<glyph unicode="&#xbb;" horiz-adv-x="1341" d="M78 895h301l272 -317l25 -144l-193 -317h-266l221 360zM631 895h301l272 -317l25 -144l-193 -317h-266l221 360z" />
<glyph unicode="&#xbc;" horiz-adv-x="1398" d="M-82 1292l244 142h123l131 -738h-207l-92 510l-168 -92zM242 0l589 1434h211l-589 -1434h-211zM715 246l342 491h123l77 -440h125l27 -154h-125l27 -143h-187l-26 143h-365zM950 297h121l-24 137z" />
<glyph unicode="&#xbd;" horiz-adv-x="1392" d="M-82 1292l244 142h123l131 -738h-207l-92 510l-168 -92zM242 0l589 1434h211l-589 -1434h-211zM797 565q24 90 94.5 141.5t159.5 51.5q107 0 188.5 -68t81.5 -176q0 -86 -80 -203l-88 -127h238l32 -184h-540l-19 102l221 316q35 49 35 88q0 27 -19.5 47t-49.5 20 t-51.5 -20t-26.5 -43z" />
<glyph unicode="&#xbe;" horiz-adv-x="1392" d="M-102 1434h462l19 -103l-94 -153q88 -27 142 -93.5t54 -154.5q0 -110 -82.5 -182t-212.5 -72q-135 0 -239 90l119 133q56 -49 114 -49q42 0 69 22t27 62q0 42 -32 68t-78 26t-94 -24l-19 102l99 154h-224zM236 0l589 1434h211l-590 -1434h-210zM709 246l342 491h123 l77 -440h125l27 -154h-125l27 -143h-187l-26 143h-365zM944 297h121l-25 137z" />
<glyph unicode="&#xbf;" horiz-adv-x="1024" d="M225 -127q0 70 25.5 133t62 106.5t73 80.5t62 69t25.5 57q0 41 -57 84l194 160q14 -11 31.5 -30t41.5 -51t40 -74.5t16 -85.5q0 -60 -25.5 -114.5t-61.5 -95t-72.5 -78t-62 -79t-25.5 -82.5q0 -59 41 -99t104 -40q60 0 104.5 38t55.5 87l247 -68q-31 -131 -144.5 -217 t-262.5 -86q-111 0 -205 49.5t-150.5 138.5t-56.5 197zM289 817q0 75 52.5 125.5t127.5 50.5t126.5 -50.5t51.5 -125.5t-51.5 -124.5t-126.5 -49.5q-76 0 -128 50t-52 124z" />
<glyph unicode="&#xc0;" horiz-adv-x="1431" d="M72 0l379 1434h194l868 -1434h-313l-192 317h-576l-84 -317h-276zM195 1884h286l144 -328h-185zM498 563h360l-252 414z" />
<glyph unicode="&#xc1;" horiz-adv-x="1431" d="M72 0l379 1434h194l868 -1434h-313l-192 317h-576l-84 -317h-276zM432 1556l143 328h287l-246 -328h-184zM498 563h360l-252 414z" />
<glyph unicode="&#xc2;" horiz-adv-x="1431" d="M72 0l379 1434h194l868 -1434h-313l-192 317h-576l-84 -317h-276zM205 1556l143 328h287l266 -328h-194l-195 185l-133 -185h-174zM498 563h360l-252 414z" />
<glyph unicode="&#xc3;" horiz-adv-x="1431" d="M72 0l379 1434h194l868 -1434h-313l-192 317h-576l-84 -317h-276zM133 1610q0 116 60.5 195t166.5 79q52 0 110 -25.5t109 -51t87 -25.5q35 0 56 28.5t26 73.5l163 -33q0 -116 -60.5 -195t-166.5 -79q-52 0 -110 25.5t-108.5 51t-86.5 25.5q-35 0 -56 -28.5t-26 -73.5z M498 563h360l-252 414z" />
<glyph unicode="&#xc4;" horiz-adv-x="1431" d="M72 0l379 1434h194l868 -1434h-313l-192 317h-576l-84 -317h-276zM117 1724q0 67 48 113.5t116 46.5t115.5 -46.5t47.5 -113.5t-47.5 -113t-115.5 -46t-116 46t-48 113zM498 563h360l-252 414zM547 1724q0 67 48 113.5t116 46.5t115.5 -46.5t47.5 -113.5t-47.5 -113 t-115.5 -46t-116 46t-48 113z" />
<glyph unicode="&#xc5;" horiz-adv-x="1431" d="M72 0l379 1434h194l868 -1434h-313l-192 317h-576l-84 -317h-276zM291 1741q0 94 65.5 159.5t159.5 65.5t159.5 -65.5t65.5 -159.5t-65.5 -159.5t-159.5 -65.5t-159.5 65.5t-65.5 159.5zM455 1741q0 -26 17.5 -44t43.5 -18t44 18t18 44t-18 43.5t-44 17.5t-43.5 -17.5 t-17.5 -43.5zM498 563h360l-252 414z" />
<glyph unicode="&#xc6;" horiz-adv-x="1957" d="M72 0l604 1434h1007l43 -246h-581l53 -297h438l43 -246h-438l70 -399h604l43 -246h-881l-57 317h-522l-136 -317h-290zM602 563h375l-111 627z" />
<glyph unicode="&#xc7;" horiz-adv-x="1439" d="M20 758q0 145 54.5 273.5t149.5 221.5t230 147t289 54q250 0 471 -166l-139 -207q-169 127 -332 127q-191 0 -318.5 -127t-127.5 -323q0 -141 72.5 -264t195 -196t262.5 -73q62 0 117.5 13.5t91 29t79.5 50t62 52t60 60.5l182 -172q-178 -228 -467 -268l-55 -297h-266 l117 291q-151 14 -286.5 82.5t-232 172t-153 239.5t-56.5 280z" />
<glyph unicode="&#xc8;" horiz-adv-x="1128" d="M-6 1434h860l43 -246h-582l54 -297h438l43 -246h-438l69 -399h604l43 -246h-880zM90 1884h287l143 -328h-184z" />
<glyph unicode="&#xc9;" horiz-adv-x="1128" d="M-6 1434h860l43 -246h-582l54 -297h438l43 -246h-438l69 -399h604l43 -246h-880zM289 1556l143 328h287l-246 -328h-184z" />
<glyph unicode="&#xca;" horiz-adv-x="1128" d="M-6 1434h860l43 -246h-582l54 -297h438l43 -246h-438l69 -399h604l43 -246h-880zM70 1556l143 328h287l266 -328h-195l-194 185l-133 -185h-174z" />
<glyph unicode="&#xcb;" horiz-adv-x="1128" d="M-6 1434h860l43 -246h-582l54 -297h438l43 -246h-438l69 -399h604l43 -246h-880zM8 1720q0 68 48 116t116 48t116 -48t48 -116t-48 -116t-116 -48t-116 48t-48 116zM438 1720q0 68 48 116t116 48t116 -48t48 -116t-48 -116t-116 -48t-116 48t-48 116z" />
<glyph unicode="&#xcc;" horiz-adv-x="602" d="M-201 1884h287l143 -328h-184zM-6 1434h278l254 -1434h-278z" />
<glyph unicode="&#xcd;" horiz-adv-x="602" d="M-6 1434h278l254 -1434h-278zM-6 1556l143 328h287l-246 -328h-184z" />
<glyph unicode="&#xce;" horiz-adv-x="602" d="M-229 1556l143 328h287l266 -328h-195l-194 185l-133 -185h-174zM-6 1434h278l254 -1434h-278z" />
<glyph unicode="&#xcf;" horiz-adv-x="602" d="M-272 1720q0 68 48 116t115 48t115.5 -48t48.5 -116t-48.5 -116t-115.5 -48t-115 48t-48 116zM-6 1434h278l254 -1434h-278zM158 1720q0 68 48 116t116 48q67 0 115 -48t48 -116t-48 -116t-115 -48q-68 0 -116 48t-48 116z" />
<glyph unicode="&#xd0;" horiz-adv-x="1626" d="M8 891h205l-96 543h577q300 0 500 -140q153 -107 241.5 -270.5t88.5 -345.5q0 -176 -80 -323.5t-221 -239.5q-88 -58 -197.5 -86.5t-265.5 -28.5h-389l-115 645h-205zM438 1188l54 -297h409l43 -246h-409l71 -399h154q122 0 201.5 25t138.5 75q69 60 108 145t39 187 q0 118 -53.5 224t-146.5 179q-67 53 -150.5 80t-204.5 27h-254z" />
<glyph unicode="&#xd1;" horiz-adv-x="1595" d="M-6 1434h194l961 -916l-162 916h279l254 -1434h-195l-960 911l161 -911h-278zM227 1610q0 116 61 195t167 79q52 0 110 -25.5t108.5 -51t86.5 -25.5q35 0 56 28.5t26 73.5l164 -33q0 -116 -61 -195t-167 -79q-52 0 -110 25.5t-108.5 51t-86.5 25.5q-35 0 -56 -28.5 t-26 -73.5z" />
<glyph unicode="&#xd2;" horiz-adv-x="1638" d="M20 758q0 144 54.5 272.5t149.5 221.5t230 147.5t289 54.5q163 0 311 -64.5t253 -170.5t167 -248.5t62 -294.5q0 -144 -54.5 -272.5t-149.5 -221.5t-230 -147.5t-289 -54.5q-163 0 -311 64.5t-253 170.5t-167 248.5t-62 294.5zM297 758q0 -138 71 -261.5t190.5 -197.5 t254.5 -74q190 0 318.5 128t128.5 323q0 138 -71 261t-191 197t-255 74q-190 0 -318 -127.5t-128 -322.5zM324 1884h286l144 -328h-185z" />
<glyph unicode="&#xd3;" horiz-adv-x="1638" d="M20 758q0 144 54.5 272.5t149.5 221.5t230 147.5t289 54.5q163 0 311 -64.5t253 -170.5t167 -248.5t62 -294.5q0 -144 -54.5 -272.5t-149.5 -221.5t-230 -147.5t-289 -54.5q-163 0 -311 64.5t-253 170.5t-167 248.5t-62 294.5zM297 758q0 -138 71 -261.5t190.5 -197.5 t254.5 -74q190 0 318.5 128t128.5 323q0 138 -71 261t-191 197t-255 74q-190 0 -318 -127.5t-128 -322.5zM549 1556l143 328h287l-246 -328h-184z" />
<glyph unicode="&#xd4;" horiz-adv-x="1638" d="M20 758q0 144 54.5 272.5t149.5 221.5t230 147.5t289 54.5q163 0 311 -64.5t253 -170.5t167 -248.5t62 -294.5q0 -144 -54.5 -272.5t-149.5 -221.5t-230 -147.5t-289 -54.5q-163 0 -311 64.5t-253 170.5t-167 248.5t-62 294.5zM297 758q0 -138 71 -261.5t190.5 -197.5 t254.5 -74q190 0 318.5 128t128.5 323q0 138 -71 261t-191 197t-255 74q-190 0 -318 -127.5t-128 -322.5zM332 1556l143 328h287l266 -328h-194l-195 185l-133 -185h-174z" />
<glyph unicode="&#xd5;" horiz-adv-x="1638" d="M20 758q0 144 54.5 272.5t149.5 221.5t230 147.5t289 54.5q163 0 311 -64.5t253 -170.5t167 -248.5t62 -294.5q0 -144 -54.5 -272.5t-149.5 -221.5t-230 -147.5t-289 -54.5q-163 0 -311 64.5t-253 170.5t-167 248.5t-62 294.5zM246 1610q0 116 60.5 195t166.5 79 q52 0 110 -25.5t108.5 -51t86.5 -25.5q35 0 56 28.5t26 73.5l164 -33q0 -116 -60.5 -195t-166.5 -79q-52 0 -110 25.5t-108.5 51t-86.5 25.5q-35 0 -56 -28.5t-26 -73.5zM297 758q0 -138 71 -261.5t190.5 -197.5t254.5 -74q190 0 318.5 128t128.5 323q0 138 -71 261 t-191 197t-255 74q-190 0 -318 -127.5t-128 -322.5z" />
<glyph unicode="&#xd6;" horiz-adv-x="1638" d="M20 758q0 144 54.5 272.5t149.5 221.5t230 147.5t289 54.5q163 0 311 -64.5t253 -170.5t167 -248.5t62 -294.5q0 -144 -54.5 -272.5t-149.5 -221.5t-230 -147.5t-289 -54.5q-163 0 -311 64.5t-253 170.5t-167 248.5t-62 294.5zM264 1724q0 67 48 113.5t116 46.5 t116 -46.5t48 -113.5t-48 -113t-116 -46t-116 46t-48 113zM297 758q0 -138 71 -261.5t190.5 -197.5t254.5 -74q190 0 318.5 128t128.5 323q0 138 -71 261t-191 197t-255 74q-190 0 -318 -127.5t-128 -322.5zM694 1724q0 67 48 113.5t116 46.5t116 -46.5t48 -113.5t-48 -113 t-116 -46t-116 46t-48 113z" />
<glyph unicode="&#xd7;" horiz-adv-x="1093" d="M39 842l145 174l338 -283l238 283l172 -146l-238 -282l336 -283l-145 -174l-336 283l-240 -283l-172 145l238 283z" />
<glyph unicode="&#xd8;" horiz-adv-x="1638" d="M20 758q0 144 54.5 272.5t149.5 221.5t230 147.5t289 54.5q116 0 238 -37l16 37h260l-65 -141q158 -108 251 -278t93 -359q0 -144 -54.5 -272.5t-149.5 -221.5t-230 -147.5t-289 -54.5q-122 0 -238 36l-16 -36h-260l63 139q-158 110 -250 279.5t-92 359.5zM297 758 q0 -113 47.5 -217.5t130.5 -178.5l383 832q-65 14 -115 14q-190 0 -318 -127.5t-128 -322.5zM698 240q56 -15 115 -15q190 0 318.5 128t128.5 323q0 112 -48 215t-131 178z" />
<glyph unicode="&#xd9;" horiz-adv-x="1540" d="M-31 1434h279l137 -768q41 -233 119 -322q102 -119 291 -119q137 0 226 74.5t89 208.5q0 53 -31 235l-123 691h279l102 -582q49 -269 49 -330q0 -130 -48 -235t-130.5 -171t-188 -101t-224.5 -35q-329 0 -504 202q-65 75 -108 182t-72 273zM250 1884h287l143 -328h-184z " />
<glyph unicode="&#xda;" horiz-adv-x="1540" d="M-31 1434h279l137 -768q41 -233 119 -322q102 -119 291 -119q137 0 226 74.5t89 208.5q0 53 -31 235l-123 691h279l102 -582q49 -269 49 -330q0 -130 -48 -235t-130.5 -171t-188 -101t-224.5 -35q-329 0 -504 202q-65 75 -108 182t-72 273zM477 1556l144 328h286 l-245 -328h-185z" />
<glyph unicode="&#xdb;" horiz-adv-x="1540" d="M-31 1434h279l137 -768q41 -233 119 -322q102 -119 291 -119q137 0 226 74.5t89 208.5q0 53 -31 235l-123 691h279l102 -582q49 -269 49 -330q0 -130 -48 -235t-130.5 -171t-188 -101t-224.5 -35q-329 0 -504 202q-65 75 -108 182t-72 273zM242 1556l143 328h287 l266 -328h-195l-194 185l-133 -185h-174z" />
<glyph unicode="&#xdc;" horiz-adv-x="1540" d="M-31 1434h279l137 -768q41 -233 119 -322q102 -119 291 -119q137 0 226 74.5t89 208.5q0 53 -31 235l-123 691h279l102 -582q49 -269 49 -330q0 -130 -48 -235t-130.5 -171t-188 -101t-224.5 -35q-329 0 -504 202q-65 75 -108 182t-72 273zM199 1724q0 67 47.5 113.5 t115.5 46.5t116 -46.5t48 -113.5t-48 -113t-116 -46t-115.5 46t-47.5 113zM629 1724q0 67 48 113.5t116 46.5t115.5 -46.5t47.5 -113.5t-47.5 -113t-115.5 -46t-116 46t-48 113z" />
<glyph unicode="&#xdd;" horiz-adv-x="1298" d="M-152 1434h347l401 -506l225 506h293l-354 -791l114 -643h-278l-115 645zM403 1556l144 328h287l-246 -328h-185z" />
<glyph unicode="&#xde;" horiz-adv-x="1239" d="M-6 1434h278l52 -291h284q115 0 193 -23t141 -67q85 -61 134.5 -154.5t49.5 -198.5q0 -144 -96 -258q-126 -149 -391 -149h-166l53 -293h-278zM367 897l63 -358h195q82 0 125.5 15t66.5 46q33 45 33 100q0 90 -70 150q-53 47 -184 47h-229z" />
<glyph unicode="&#xdf;" horiz-adv-x="1255" d="M51 1098q0 115 70 219q58 83 151 130.5t205 47.5q119 0 222.5 -55t166 -153.5t62.5 -217.5q0 -95 -66 -205q144 -47 232 -168t88 -268q0 -186 -136 -317t-337 -131q-108 0 -164 30l76 230q47 -15 88 -15q90 0 148 58.5t58 144.5q0 55 -25 104t-67 80q-63 47 -157 47h-121 l-43 246q69 0 114.5 44.5t45.5 113.5q0 79 -54 132.5t-131 53.5q-68 0 -115 -43t-47 -108q0 -18 13 -99l178 -999h-268l-160 897q0 1 -3 15.5t-7 37.5t-7.5 48.5t-6.5 53t-3 46.5z" />
<glyph unicode="&#xe0;" d="M72 535q0 201 127.5 329.5t308.5 128.5q158 0 270 -86l-10 66h244l172 -973h-246l-16 92q-150 -112 -318 -112q-139 0 -268 73q-122 72 -193 205.5t-71 276.5zM254 1454h287l143 -328h-184zM338 522q0 -126 84 -210.5t201 -84.5q65 0 128 26t107 71l-55 317 q-103 109 -238 109q-104 0 -165.5 -63.5t-61.5 -164.5z" />
<glyph unicode="&#xe1;" d="M72 535q0 201 127.5 329.5t308.5 128.5q158 0 270 -86l-10 66h244l172 -973h-246l-16 92q-150 -112 -318 -112q-139 0 -268 73q-122 72 -193 205.5t-71 276.5zM338 522q0 -126 84 -210.5t201 -84.5q65 0 128 26t107 71l-55 317q-103 109 -238 109q-104 0 -165.5 -63.5 t-61.5 -164.5zM459 1126l143 328h287l-246 -328h-184z" />
<glyph unicode="&#xe2;" d="M72 535q0 201 127.5 329.5t308.5 128.5q158 0 270 -86l-10 66h244l172 -973h-246l-16 92q-150 -112 -318 -112q-139 0 -268 73q-122 72 -193 205.5t-71 276.5zM213 1126l143 328h287l266 -328h-194l-195 185l-133 -185h-174zM338 522q0 -126 84 -210.5t201 -84.5 q65 0 128 26t107 71l-55 317q-103 109 -238 109q-104 0 -165.5 -63.5t-61.5 -164.5z" />
<glyph unicode="&#xe3;" d="M72 535q0 201 127.5 329.5t308.5 128.5q158 0 270 -86l-10 66h244l172 -973h-246l-16 92q-150 -112 -318 -112q-139 0 -268 73q-122 72 -193 205.5t-71 276.5zM143 1180q0 116 61 195t167 79q52 0 110 -25.5t108.5 -51t86.5 -25.5q35 0 56 28.5t26 73.5l164 -33 q0 -116 -61 -195t-167 -79q-52 0 -110 25.5t-108.5 51t-86.5 25.5q-35 0 -56 -28.5t-26 -73.5zM338 522q0 -126 84 -210.5t201 -84.5q65 0 128 26t107 71l-55 317q-103 109 -238 109q-104 0 -165.5 -63.5t-61.5 -164.5z" />
<glyph unicode="&#xe4;" d="M72 535q0 201 127.5 329.5t308.5 128.5q158 0 270 -86l-10 66h244l172 -973h-246l-16 92q-150 -112 -318 -112q-139 0 -268 73q-122 72 -193 205.5t-71 276.5zM143 1294q0 67 48 113.5t116 46.5t116 -46.5t48 -113.5t-48 -113t-116 -46t-116 46t-48 113zM338 522 q0 -126 84 -210.5t201 -84.5q65 0 128 26t107 71l-55 317q-103 109 -238 109q-104 0 -165.5 -63.5t-61.5 -164.5zM573 1294q0 67 48 113.5t116 46.5t116 -46.5t48 -113.5t-48 -113t-116 -46t-116 46t-48 113z" />
<glyph unicode="&#xe5;" d="M72 535q0 201 127.5 329.5t308.5 128.5q158 0 270 -86l-10 66h244l172 -973h-246l-16 92q-150 -112 -318 -112q-139 0 -268 73q-122 72 -193 205.5t-71 276.5zM336 1311q0 94 65.5 159.5t159.5 65.5t159.5 -65.5t65.5 -159.5t-65.5 -160t-159.5 -66t-159.5 66t-65.5 160z M338 522q0 -126 84 -210.5t201 -84.5q65 0 128 26t107 71l-55 317q-103 109 -238 109q-104 0 -165.5 -63.5t-61.5 -164.5zM500 1311q0 -26 17.5 -44t43.5 -18t44 18t18 44t-18 43.5t-44 17.5t-43.5 -17.5t-17.5 -43.5z" />
<glyph unicode="&#xe6;" horiz-adv-x="1873" d="M72 535q0 201 127.5 329.5t308.5 128.5q158 0 270 -86l-10 66h213l16 -101q121 121 312 121q203 0 347 -153t144 -373q0 -33 -2 -49h-702q20 -99 102.5 -161t198.5 -62q74 0 144.5 27.5t119.5 68.5l139 -174q-79 -64 -185 -100.5t-210 -36.5q-141 0 -258 57l6 -37h-215 l-16 92q-150 -112 -318 -112q-139 0 -268 73q-122 72 -193 205.5t-71 276.5zM338 522q0 -126 84 -210.5t201 -84.5q65 0 128 26t107 71l-55 317q-103 109 -238 109q-104 0 -165.5 -63.5t-61.5 -164.5zM1087 606h451q-24 78 -87.5 125t-139.5 47q-83 0 -142 -45t-82 -127z " />
<glyph unicode="&#xe7;" horiz-adv-x="1069" d="M72 502q0 132 63.5 244.5t179 179.5t258.5 67q207 0 365 -129l-150 -192q-90 76 -198 76q-109 0 -180.5 -70.5t-71.5 -175.5q0 -116 86.5 -196.5t210.5 -80.5q132 0 229 105l195 -144q-113 -159 -320 -196l-53 -297h-266l119 295q-95 13 -179 55t-148.5 106.5t-102 156 t-37.5 196.5z" />
<glyph unicode="&#xe8;" horiz-adv-x="1101" d="M72 506q0 214 128 350.5t337 136.5q203 0 347 -153t144 -373q0 -33 -2 -49h-690q20 -98 104.5 -160.5t192.5 -62.5q141 0 256 96l139 -174q-79 -64 -185 -100.5t-210 -36.5q-153 0 -280 64t-204 185.5t-77 276.5zM213 1454h287l143 -328h-184zM328 606h438 q-25 79 -85 125.5t-136 46.5q-82 0 -138 -44.5t-79 -127.5z" />
<glyph unicode="&#xe9;" horiz-adv-x="1101" d="M72 506q0 214 128 350.5t337 136.5q203 0 347 -153t144 -373q0 -33 -2 -49h-690q20 -98 104.5 -160.5t192.5 -62.5q141 0 256 96l139 -174q-79 -64 -185 -100.5t-210 -36.5q-153 0 -280 64t-204 185.5t-77 276.5zM328 606h438q-25 79 -85 125.5t-136 46.5 q-82 0 -138 -44.5t-79 -127.5zM418 1126l143 328h287l-246 -328h-184z" />
<glyph unicode="&#xea;" horiz-adv-x="1101" d="M72 506q0 214 128 350.5t337 136.5q203 0 347 -153t144 -373q0 -33 -2 -49h-690q20 -98 104.5 -160.5t192.5 -62.5q141 0 256 96l139 -174q-79 -64 -185 -100.5t-210 -36.5q-153 0 -280 64t-204 185.5t-77 276.5zM152 1126l143 328h287l266 -328h-195l-194 185l-133 -185 h-174zM328 606h438q-25 79 -85 125.5t-136 46.5q-82 0 -138 -44.5t-79 -127.5z" />
<glyph unicode="&#xeb;" horiz-adv-x="1101" d="M72 506q0 214 128 350.5t337 136.5q203 0 347 -153t144 -373q0 -33 -2 -49h-690q20 -98 104.5 -160.5t192.5 -62.5q141 0 256 96l139 -174q-79 -64 -185 -100.5t-210 -36.5q-153 0 -280 64t-204 185.5t-77 276.5zM106 1294q0 67 48 113.5t116 46.5t116 -46.5t48 -113.5 t-48 -113t-116 -46t-116 46t-48 113zM328 606h438q-25 79 -85 125.5t-136 46.5q-82 0 -138 -44.5t-79 -127.5zM537 1294q0 67 47.5 113.5t115.5 46.5t116 -46.5t48 -113.5t-48 -113t-116 -46t-115.5 46t-47.5 113z" />
<glyph unicode="&#xec;" horiz-adv-x="567" d="M-166 1454h287l143 -328h-184zM66 973h268l172 -973h-268z" />
<glyph unicode="&#xed;" horiz-adv-x="567" d="M66 973h268l172 -973h-268zM78 1126l143 328h287l-246 -328h-184z" />
<glyph unicode="&#xee;" horiz-adv-x="567" d="M-170 1126l143 328h287l266 -328h-194l-195 185l-133 -185h-174zM66 973h268l172 -973h-268z" />
<glyph unicode="&#xef;" horiz-adv-x="567" d="M-238 1294q0 67 48 113.5t116 46.5t116 -46.5t48 -113.5t-48 -113t-116 -46t-116 46t-48 113zM66 973h268l172 -973h-268zM193 1294q0 67 47.5 113.5t115.5 46.5t116 -46.5t48 -113.5t-48 -113t-116 -46t-115.5 46t-47.5 113z" />
<glyph unicode="&#xf0;" horiz-adv-x="1198" d="M72 504q0 191 129.5 329.5t328.5 155.5l-84 105l-192 -123l-109 170l177 110l-162 203h315l55 -70l187 121l108 -168l-170 -108l275 -338q38 -46 62 -79.5t59.5 -92t54 -121t18.5 -125.5q0 -207 -142 -350t-361 -143q-147 0 -273.5 69.5t-201 190.5t-74.5 264zM338 502 q0 -113 84 -195t199 -82q105 0 173 71t68 177q0 114 -110 246q-73 29 -150 29q-112 0 -188 -69.5t-76 -176.5z" />
<glyph unicode="&#xf1;" horiz-adv-x="1294" d="M66 973h243l21 -111q53 58 136 94.5t171 36.5q215 0 356 -141q123 -119 162 -348l88 -504h-268l-84 477q-27 154 -100 215q-66 56 -162 56q-70 0 -138 -42.5t-94 -91.5l109 -614h-268zM154 1180q0 116 60.5 195t166.5 79q52 0 110 -25.5t108.5 -51t86.5 -25.5 q35 0 56 28.5t26 73.5l164 -33q0 -116 -60.5 -195t-166.5 -79q-52 0 -110 25.5t-109 51t-87 25.5q-35 0 -56 -28.5t-26 -73.5z" />
<glyph unicode="&#xf2;" horiz-adv-x="1198" d="M72 508q0 99 39 188.5t105.5 154.5t161 103.5t200.5 38.5q109 0 209.5 -41.5t174.5 -112t118 -168.5t44 -206q0 -99 -39 -188.5t-105.5 -154.5t-161 -103.5t-200.5 -38.5q-109 0 -209.5 41.5t-174.5 112t-118 168.5t-44 206zM197 1454h286l144 -328h-185zM338 508 q0 -115 83 -199t197 -84q102 0 171 69t69 171q0 115 -83 199t-197 84q-102 0 -171 -69t-69 -171z" />
<glyph unicode="&#xf3;" horiz-adv-x="1198" d="M72 508q0 99 39 188.5t105.5 154.5t161 103.5t200.5 38.5q109 0 209.5 -41.5t174.5 -112t118 -168.5t44 -206q0 -99 -39 -188.5t-105.5 -154.5t-161 -103.5t-200.5 -38.5q-109 0 -209.5 41.5t-174.5 112t-118 168.5t-44 206zM338 508q0 -115 83 -199t197 -84 q102 0 171 69t69 171q0 115 -83 199t-197 84q-102 0 -171 -69t-69 -171zM422 1126l143 328h287l-246 -328h-184z" />
<glyph unicode="&#xf4;" horiz-adv-x="1198" d="M72 508q0 99 39 188.5t105.5 154.5t161 103.5t200.5 38.5q109 0 209.5 -41.5t174.5 -112t118 -168.5t44 -206q0 -99 -39 -188.5t-105.5 -154.5t-161 -103.5t-200.5 -38.5q-109 0 -209.5 41.5t-174.5 112t-118 168.5t-44 206zM176 1126l143 328h287l266 -328h-194 l-195 185l-133 -185h-174zM338 508q0 -115 83 -199t197 -84q102 0 171 69t69 171q0 115 -83 199t-197 84q-102 0 -171 -69t-69 -171z" />
<glyph unicode="&#xf5;" horiz-adv-x="1198" d="M72 508q0 99 39 188.5t105.5 154.5t161 103.5t200.5 38.5q109 0 209.5 -41.5t174.5 -112t118 -168.5t44 -206q0 -99 -39 -188.5t-105.5 -154.5t-161 -103.5t-200.5 -38.5q-109 0 -209.5 41.5t-174.5 112t-118 168.5t-44 206zM94 1180q0 116 61 195t167 79q52 0 110 -25.5 t108.5 -51t86.5 -25.5q35 0 56 28.5t26 73.5l163 -33q0 -116 -60.5 -195t-166.5 -79q-52 0 -110 25.5t-108.5 51t-86.5 25.5q-35 0 -56 -28.5t-26 -73.5zM338 508q0 -115 83 -199t197 -84q102 0 171 69t69 171q0 115 -83 199t-197 84q-102 0 -171 -69t-69 -171z" />
<glyph unicode="&#xf6;" horiz-adv-x="1198" d="M72 508q0 99 39 188.5t105.5 154.5t161 103.5t200.5 38.5q109 0 209.5 -41.5t174.5 -112t118 -168.5t44 -206q0 -99 -39 -188.5t-105.5 -154.5t-161 -103.5t-200.5 -38.5q-109 0 -209.5 41.5t-174.5 112t-118 168.5t-44 206zM117 1294q0 67 48 113.5t116 46.5 t115.5 -46.5t47.5 -113.5t-47.5 -113t-115.5 -46t-116 46t-48 113zM338 508q0 -115 83 -199t197 -84q102 0 171 69t69 171q0 115 -83 199t-197 84q-102 0 -171 -69t-69 -171zM547 1294q0 67 48 113.5t116 46.5t115.5 -46.5t47.5 -113.5t-47.5 -113t-115.5 -46t-116 46 t-48 113z" />
<glyph unicode="&#xf7;" horiz-adv-x="1167" d="M78 686h944l39 -225h-944zM352 936q0 63 45.5 106t108.5 43t108 -43t45 -106t-45 -106.5t-108 -43.5t-108.5 43.5t-45.5 106.5zM479 211q0 63 45.5 106t108.5 43t108 -43t45 -106t-45 -106.5t-108 -43.5t-108.5 43.5t-45.5 106.5z" />
<glyph unicode="&#xf8;" horiz-adv-x="1198" d="M72 508q0 99 39 188.5t105.5 154.5t161 103.5t200.5 38.5q67 0 149 -20l10 20h248l-61 -123q93 -74 146.5 -179.5t53.5 -225.5q0 -99 -39 -188.5t-105.5 -154.5t-161 -103.5t-200.5 -38.5q-73 0 -151 20l-10 -20h-248l61 122q-93 73 -145.5 179t-52.5 227zM338 508 q0 -89 53 -164l201 404h-14q-102 0 -171 -69t-69 -171zM600 225h18q102 0 171 69t69 171q0 92 -55 166z" />
<glyph unicode="&#xf9;" horiz-adv-x="1280" d="M55 973h269l84 -477q29 -162 98 -220q60 -51 147 -51q68 0 134 36.5t100 96.5l-109 615h269l172 -973h-244l-21 111q-57 -62 -138.5 -96.5t-170.5 -34.5q-211 0 -348 137q-112 109 -154 352zM215 1454h287l143 -328h-184z" />
<glyph unicode="&#xfa;" horiz-adv-x="1280" d="M55 973h269l84 -477q29 -162 98 -220q60 -51 147 -51q68 0 134 36.5t100 96.5l-109 615h269l172 -973h-244l-21 111q-57 -62 -138.5 -96.5t-170.5 -34.5q-211 0 -348 137q-112 109 -154 352zM444 1126l144 328h286l-245 -328h-185z" />
<glyph unicode="&#xfb;" horiz-adv-x="1280" d="M55 973h269l84 -477q29 -162 98 -220q60 -51 147 -51q68 0 134 36.5t100 96.5l-109 615h269l172 -973h-244l-21 111q-57 -62 -138.5 -96.5t-170.5 -34.5q-211 0 -348 137q-112 109 -154 352zM195 1126l143 328h287l266 -328h-195l-194 185l-133 -185h-174z" />
<glyph unicode="&#xfc;" horiz-adv-x="1280" d="M55 973h269l84 -477q29 -162 98 -220q60 -51 147 -51q68 0 134 36.5t100 96.5l-109 615h269l172 -973h-244l-21 111q-57 -62 -138.5 -96.5t-170.5 -34.5q-211 0 -348 137q-112 109 -154 352zM164 1294q0 67 48 113.5t116 46.5t116 -46.5t48 -113.5t-48 -113t-116 -46 t-116 46t-48 113zM594 1294q0 67 48 113.5t116 46.5t116 -46.5t48 -113.5t-48 -113t-116 -46t-116 46t-48 113z" />
<glyph unicode="&#xfd;" horiz-adv-x="1171" d="M-72 973h318l403 -563l156 563h264l-416 -1465h-264l172 605zM428 1126l143 328h287l-246 -328h-184z" />
<glyph unicode="&#xfe;" horiz-adv-x="1251" d="M-20 1454h268l98 -559q151 98 299 98q139 0 268 -73q122 -72 193.5 -205.5t71.5 -276.5q0 -100 -35 -186.5t-94.5 -145.5t-139.5 -92.5t-168 -33.5q-148 0 -243 67l96 -539h-268zM391 649l55 -317q103 -109 238 -109q104 0 165.5 63.5t61.5 164.5q0 126 -83.5 210 t-200.5 84q-65 0 -128.5 -25.5t-107.5 -70.5z" />
<glyph unicode="&#xff;" horiz-adv-x="1171" d="M-72 973h318l403 -563l156 563h264l-416 -1465h-264l172 605zM100 1294q0 67 48 113.5t116 46.5t116 -46.5t48 -113.5t-48 -113t-116 -46t-116 46t-48 113zM530 1294q0 67 48 113.5t116 46.5t116 -46.5t48 -113.5t-48 -113t-116 -46t-116 46t-48 113z" />
<glyph unicode="&#x152;" horiz-adv-x="2267" d="M20 758q0 144 54.5 272.5t149.5 221.5t230 147.5t289 54.5q220 0 406 -113l-16 93h860l43 -246h-582l53 -297h439l43 -246h-439l70 -399h604l43 -246h-881l-36 203q-184 -223 -537 -223q-163 0 -311 64.5t-253 170.5t-167 248.5t-62 294.5zM297 758q0 -138 71 -261.5 t190.5 -197.5t254.5 -74q190 0 318.5 128t128.5 323q0 138 -71 261t-191 197t-255 74q-190 0 -318 -127.5t-128 -322.5z" />
<glyph unicode="&#x153;" horiz-adv-x="1888" d="M72 508q0 99 39 188.5t105.5 154.5t161 103.5t200.5 38.5q114 0 214.5 -45t174.5 -125q121 174 356 174q133 0 246 -69.5t179.5 -190.5t66.5 -266q0 -25 -3 -49h-690q20 -98 104.5 -160.5t192.5 -62.5q141 0 256 96l140 -174q-79 -64 -185.5 -100.5t-210.5 -36.5 q-127 0 -234 45.5t-181 130.5q-66 -85 -165.5 -132.5t-220.5 -47.5q-109 0 -209.5 41.5t-174.5 112t-118 168.5t-44 206zM338 508q0 -115 83 -199t197 -84q102 0 171 69t69 171q0 115 -83 199t-197 84q-102 0 -171 -69t-69 -171zM1114 610h438q-25 79 -85 125.5t-136 46.5 q-82 0 -138 -44.5t-79 -127.5z" />
<glyph unicode="&#x178;" horiz-adv-x="1298" d="M-152 1434h347l401 -506l225 506h293l-354 -791l114 -643h-278l-115 645zM98 1724q0 67 48 113.5t116 46.5t116 -46.5t48 -113.5t-48 -113t-116 -46t-116 46t-48 113zM528 1724q0 67 48 113.5t116 46.5t116 -46.5t48 -113.5t-48 -113t-116 -46t-116 46t-48 113z" />
<glyph unicode="&#x2c6;" horiz-adv-x="983" d="M143 1126l144 328h286l267 -328h-195l-194 185l-134 -185h-174z" />
<glyph unicode="&#x2dc;" horiz-adv-x="1064" d="M143 1180q0 116 61 195t167 79q52 0 110 -25.5t108.5 -51t86.5 -25.5q35 0 56 28.5t26 73.5l164 -33q0 -116 -61 -195t-167 -79q-52 0 -110 25.5t-108.5 51t-86.5 25.5q-35 0 -56 -28.5t-26 -73.5z" />
<glyph unicode="&#x2000;" horiz-adv-x="983" />
<glyph unicode="&#x2001;" horiz-adv-x="1966" />
<glyph unicode="&#x2002;" horiz-adv-x="983" />
<glyph unicode="&#x2003;" horiz-adv-x="1966" />
<glyph unicode="&#x2004;" horiz-adv-x="655" />
<glyph unicode="&#x2005;" horiz-adv-x="491" />
<glyph unicode="&#x2006;" horiz-adv-x="327" />
<glyph unicode="&#x2007;" horiz-adv-x="327" />
<glyph unicode="&#x2008;" horiz-adv-x="245" />
<glyph unicode="&#x2009;" horiz-adv-x="393" />
<glyph unicode="&#x200a;" horiz-adv-x="109" />
<glyph unicode="&#x2010;" horiz-adv-x="1003" d="M141 645h676l39 -225h-676z" />
<glyph unicode="&#x2011;" horiz-adv-x="1003" d="M141 645h676l39 -225h-676z" />
<glyph unicode="&#x2012;" horiz-adv-x="1003" d="M141 645h676l39 -225h-676z" />
<glyph unicode="&#x2013;" horiz-adv-x="1064" d="M0 645h1006l38 -225h-1005z" />
<glyph unicode="&#x2014;" horiz-adv-x="1679" d="M0 645h1620l39 -225h-1620z" />
<glyph unicode="&#x2018;" horiz-adv-x="696" d="M41 829l215 605h184l-112 -605h-287z" />
<glyph unicode="&#x2019;" horiz-adv-x="696" d="M61 829l113 605h287l-215 -605h-185z" />
<glyph unicode="&#x201a;" horiz-adv-x="696" d="M205 -287l112 604h287l-215 -604h-184z" />
<glyph unicode="&#x201c;" horiz-adv-x="1187" d="M41 829l215 605h184l-112 -605h-287zM532 829l216 605h184l-113 -605h-287z" />
<glyph unicode="&#x201d;" horiz-adv-x="1187" d="M61 829l113 605h287l-215 -605h-185zM553 829l113 605h286l-215 -605h-184z" />
<glyph unicode="&#x201e;" horiz-adv-x="1187" d="M205 -287l112 604h287l-215 -604h-184zM696 -287l113 604h287l-215 -604h-185z" />
<glyph unicode="&#x2022;" horiz-adv-x="1208" d="M154 496q0 186 132 318t318 132t318.5 -132t132.5 -318t-132.5 -318.5t-318.5 -132.5t-318 132.5t-132 318.5z" />
<glyph unicode="&#x2026;" horiz-adv-x="2037" d="M266 154q0 75 51.5 125.5t126.5 50.5t128 -50.5t53 -125.5q0 -74 -52.5 -124t-128.5 -50q-75 0 -126.5 49.5t-51.5 124.5zM901 154q0 75 51.5 125.5t126.5 50.5t128 -50.5t53 -125.5q0 -74 -52.5 -124t-128.5 -50q-75 0 -126.5 49.5t-51.5 124.5zM1536 154 q0 75 51.5 125.5t126.5 50.5t127.5 -50.5t52.5 -125.5q0 -74 -52 -124t-128 -50q-75 0 -126.5 49.5t-51.5 124.5z" />
<glyph unicode="&#x202f;" horiz-adv-x="393" />
<glyph unicode="&#x2039;" horiz-adv-x="788" d="M109 578l192 317h266l-221 -360l361 -418h-301l-273 317z" />
<glyph unicode="&#x203a;" horiz-adv-x="788" d="M78 895h301l272 -317l25 -144l-193 -317h-266l221 360z" />
<glyph unicode="&#x205f;" horiz-adv-x="491" />
<glyph unicode="&#x20ac;" horiz-adv-x="1314" d="M-82 993h225q64 208 230.5 334.5t390.5 126.5q223 0 401 -160l-159 -188q-108 102 -242 102q-109 0 -195.5 -57t-134.5 -158h449l41 -225h-539v-14q0 -44 6 -88h551l41 -226h-512q63 -100 159.5 -157.5t209.5 -57.5q182 0 305 144l180 -166q-79 -111 -208 -167t-277 -56 q-228 0 -407.5 126.5t-264.5 333.5h-150l-41 226h136q-4 29 -4 88v14h-150z" />
<glyph unicode="&#x2122;" horiz-adv-x="1802" d="M0 1270v164h588v-164h-205v-621h-178v621h-205zM688 649v785h111l305 -445l303 445h109v-785h-183v375l-186 -268h-90l-187 268v-375h-182z" />
<glyph unicode="&#x25fc;" horiz-adv-x="972" d="M0 0v973h973v-973h-973z" />
</font>
</defs>
</svg>
