<?xml version="1.0" encoding="UTF-8" standalone="no"?>
<svg
   xmlns:dc="http://purl.org/dc/elements/1.1/"
   xmlns:cc="http://creativecommons.org/ns#"
   xmlns:rdf="http://www.w3.org/1999/02/22-rdf-syntax-ns#"
   xmlns:svg="http://www.w3.org/2000/svg"
   xmlns="http://www.w3.org/2000/svg"
   xmlns:sodipodi="http://sodipodi.sourceforge.net/DTD/sodipodi-0.dtd"
   xmlns:inkscape="http://www.inkscape.org/namespaces/inkscape"
   version="1.1"
   id="Layer_1"
   x="0px"
   y="0px"
   viewBox="-804 -450 3055.22 3420"
   inkscape:version="0.48.5 r10040"
   width="100%"
   height="100%"
   sodipodi:docname="0bg_1_sky-trapezoid.svg">
  <metadata
     id="metadata3475">
    <rdf:RDF>
      <cc:Work
         rdf:about="">
        <dc:format>image/svg+xml</dc:format>
        <dc:type
           rdf:resource="http://purl.org/dc/dcmitype/StillImage" />
      </cc:Work>
    </rdf:RDF>
  </metadata>
  <defs
     id="defs3473" />
  <sodipodi:namedview
     pagecolor="#ffffff"
     bordercolor="#666666"
     borderopacity="1"
     objecttolerance="10"
     gridtolerance="10"
     guidetolerance="10"
     inkscape:pageopacity="0"
     inkscape:pageshadow="2"
     inkscape:window-width="2560"
     inkscape:window-height="1377"
     id="namedview3471"
     showgrid="false"
     inkscape:snap-global="false"
     inkscape:zoom="0.74920635"
     inkscape:cx="1465.9957"
     inkscape:cy="2209.1711"
     inkscape:window-x="2552"
     inkscape:window-y="-8"
     inkscape:window-maximized="1"
     inkscape:current-layer="Layer_1" />
  <linearGradient
     id="Shape_1_"
     gradientUnits="userSpaceOnUse"
     x1="3024.5906"
     y1="511.21289"
     x2="3024.5906"
     y2="-11890.362"
     gradientTransform="matrix(0.2032,0,0,-0.2032,109.0032,104.0254)">
    <stop
       offset="0"
       style="stop-color:#146B8B"
       id="stop3335" />
    <stop
       offset="0.1081"
       style="stop-color:#116A8C"
       id="stop3337" />
    <stop
       offset="0.2388"
       style="stop-color:#013A67"
       id="stop3339" />
    <stop
       offset="0.3188"
       style="stop-color:#020E47"
       id="stop3341" />
    <stop
       offset="0.3833"
       style="stop-color:#000000"
       id="stop3343" />
    <stop
       offset="0.4845"
       style="stop-color:#000000"
       id="stop3345" />
    <stop
       offset="0.6158"
       style="stop-color:#462861"
       id="stop3347" />
    <stop
       offset="0.741"
       style="stop-color:#944D89"
       id="stop3349" />
    <stop
       offset="0.808"
       style="stop-color:#C46281"
       id="stop3351" />
    <stop
       offset="0.8953"
       style="stop-color:#F27961"
       id="stop3353" />
    <stop
       offset="0.9573"
       style="stop-color:#F3C788"
       id="stop3355" />
  </linearGradient>
  <polygon
     id="Shape"
     points="2251,2970 -804,1260 -804,1260 2251,-450 "
     style="fill:url(#Shape_1_)" />
  <g
     id="Gridlines"
     style="opacity:0.075">
    <polyline
       stroke-miterlimit="10"
       points="0,810.1 1447.2,0.1 1447.2,2520.1 0,1710.1  "
       id="polyline3359"
       style="fill:none;stroke:#ffffff;stroke-miterlimit:10" />
    <polyline
       stroke-miterlimit="10"
       points="1447.2,1560.4 53.7,780.3 53.7,1740 1447.2,959.9  "
       id="polyline3361"
       style="fill:none;stroke:#ffffff;stroke-miterlimit:10" />
    <polyline
       stroke-miterlimit="10"
       points="1447.2,1440.3 161,720.2 161,1800.1 1447.2,1080  "
       id="polyline3363"
       style="fill:none;stroke:#ffffff;stroke-miterlimit:10" />
    <polyline
       stroke-miterlimit="10"
       points="1447.2,1320.2 268.3,660.2 268.3,1860.1 1447.2,1200.1  "
       id="polyline3365"
       style="fill:none;stroke:#ffffff;stroke-miterlimit:10" />
    <polyline
       stroke-miterlimit="10"
       points="1447.2,1200.1 375.1,600.1 375.1,1920.2 1447.2,1320.2  "
       id="polyline3367"
       style="fill:none;stroke:#ffffff;stroke-miterlimit:10" />
    <polyline
       stroke-miterlimit="10"
       points="1447.2,1080 482.4,540.1 482.4,1980.2 1447.2,1440.3  "
       id="polyline3369"
       style="fill:none;stroke:#ffffff;stroke-miterlimit:10" />
    <polyline
       stroke-miterlimit="10"
       points="1447.2,959.9 589.7,480 589.7,2040.3 1447.2,1560.4  "
       id="polyline3371"
       style="fill:none;stroke:#ffffff;stroke-miterlimit:10" />
    <polyline
       stroke-miterlimit="10"
       points="1447.2,840.3 697,420 697,2100.3 1447.2,1680  "
       id="polyline3373"
       style="fill:none;stroke:#ffffff;stroke-miterlimit:10" />
    <polyline
       stroke-miterlimit="10"
       points="1447.2,720.2 803.8,359.9 803.8,2160.4 1447.2,1800.1  "
       id="polyline3375"
       style="fill:none;stroke:#ffffff;stroke-miterlimit:10" />
    <polyline
       stroke-miterlimit="10"
       points="1447.2,600.1 911.1,300.4 911.1,2219.9 1447.2,1920.2  "
       id="polyline3377"
       style="fill:none;stroke:#ffffff;stroke-miterlimit:10" />
    <polyline
       stroke-miterlimit="10"
       points="1447.2,480 1018.5,240.3 1018.5,2280 1447.2,2040.3  "
       id="polyline3379"
       style="fill:none;stroke:#ffffff;stroke-miterlimit:10" />
    <polyline
       stroke-miterlimit="10"
       points="1447.2,359.9 1125.8,180.3 1125.8,2340 1447.2,2160.4  "
       id="polyline3381"
       style="fill:none;stroke:#ffffff;stroke-miterlimit:10" />
    <polyline
       stroke-miterlimit="10"
       points="1447.2,240.3 1232.6,120.2 1232.6,2400.1 1447.2,2280  "
       id="polyline3383"
       style="fill:none;stroke:#ffffff;stroke-miterlimit:10" />
    <polyline
       stroke-miterlimit="10"
       points="1447.2,120.2 1340.4,60.2 1339.9,2460.1 1447.2,2400.1  "
       id="polyline3385"
       style="fill:none;stroke:#ffffff;stroke-miterlimit:10" />
    <line
       stroke-miterlimit="10"
       x1="1447.2"
       y1="1680"
       x2="0"
       y2="870"
       id="line3387"
       style="fill:none;stroke:#ffffff;stroke-miterlimit:10" />
    <line
       stroke-miterlimit="10"
       x1="1447.2"
       y1="1740"
       x2="0"
       y2="930"
       id="line3389"
       style="fill:none;stroke:#ffffff;stroke-miterlimit:10" />
    <line
       stroke-miterlimit="10"
       x1="1447.2"
       y1="1800"
       x2="0"
       y2="990"
       id="line3391"
       style="fill:none;stroke:#ffffff;stroke-miterlimit:10" />
    <line
       stroke-miterlimit="10"
       x1="1447.2"
       y1="1860"
       x2="0"
       y2="1050"
       id="line3393"
       style="fill:none;stroke:#ffffff;stroke-miterlimit:10" />
    <line
       stroke-miterlimit="10"
       x1="1447.2"
       y1="1920"
       x2="0"
       y2="1110"
       id="line3395"
       style="fill:none;stroke:#ffffff;stroke-miterlimit:10" />
    <line
       stroke-miterlimit="10"
       x1="1447.2"
       y1="1980"
       x2="0"
       y2="1170"
       id="line3397"
       style="fill:none;stroke:#ffffff;stroke-miterlimit:10" />
    <line
       stroke-miterlimit="10"
       x1="1447.2"
       y1="2040"
       x2="0"
       y2="1230"
       id="line3399"
       style="fill:none;stroke:#ffffff;stroke-miterlimit:10" />
    <line
       stroke-miterlimit="10"
       x1="1447.2"
       y1="2100"
       x2="0"
       y2="1290"
       id="line3401"
       style="fill:none;stroke:#ffffff;stroke-miterlimit:10" />
    <line
       stroke-miterlimit="10"
       x1="1447.2"
       y1="2160"
       x2="0"
       y2="1350"
       id="line3403"
       style="fill:none;stroke:#ffffff;stroke-miterlimit:10" />
    <line
       stroke-miterlimit="10"
       x1="1447.2"
       y1="2220"
       x2="0"
       y2="1410"
       id="line3405"
       style="fill:none;stroke:#ffffff;stroke-miterlimit:10" />
    <line
       stroke-miterlimit="10"
       x1="1447.2"
       y1="2280"
       x2="0"
       y2="1470"
       id="line3407"
       style="fill:none;stroke:#ffffff;stroke-miterlimit:10" />
    <line
       stroke-miterlimit="10"
       x1="1447.2"
       y1="2340"
       x2="0"
       y2="1530"
       id="line3409"
       style="fill:none;stroke:#ffffff;stroke-miterlimit:10" />
    <line
       stroke-miterlimit="10"
       x1="1447.2"
       y1="2400"
       x2="0"
       y2="1590"
       id="line3411"
       style="fill:none;stroke:#ffffff;stroke-miterlimit:10" />
    <line
       stroke-miterlimit="10"
       x1="1447.2"
       y1="2460"
       x2="0"
       y2="1650"
       id="line3413"
       style="fill:none;stroke:#ffffff;stroke-miterlimit:10" />
    <line
       stroke-miterlimit="10"
       x1="0"
       y1="870.29999"
       x2="1447.2"
       y2="60"
       id="line3415"
       style="fill:none;stroke:#ffffff;stroke-miterlimit:10" />
    <line
       stroke-miterlimit="10"
       x1="0"
       y1="930.40002"
       x2="1447.2"
       y2="120"
       id="line3417"
       style="fill:none;stroke:#ffffff;stroke-miterlimit:10" />
    <line
       stroke-miterlimit="10"
       x1="0"
       y1="989.90002"
       x2="1447.2"
       y2="180"
       id="line3419"
       style="fill:none;stroke:#ffffff;stroke-miterlimit:10" />
    <line
       stroke-miterlimit="10"
       x1="0"
       y1="1050"
       x2="1447.2"
       y2="240"
       id="line3421"
       style="fill:none;stroke:#ffffff;stroke-miterlimit:10" />
    <line
       stroke-miterlimit="10"
       x1="0"
       y1="1110"
       x2="1447.2"
       y2="300"
       id="line3423"
       style="fill:none;stroke:#ffffff;stroke-miterlimit:10" />
    <line
       stroke-miterlimit="10"
       x1="0"
       y1="1170"
       x2="1447.2"
       y2="360"
       id="line3425"
       style="fill:none;stroke:#ffffff;stroke-miterlimit:10" />
    <line
       stroke-miterlimit="10"
       x1="0"
       y1="1230"
       x2="1447.2"
       y2="420"
       id="line3427"
       style="fill:none;stroke:#ffffff;stroke-miterlimit:10" />
    <line
       stroke-miterlimit="10"
       x1="0"
       y1="1290"
       x2="1447.2"
       y2="480"
       id="line3429"
       style="fill:none;stroke:#ffffff;stroke-miterlimit:10" />
    <line
       stroke-miterlimit="10"
       x1="0"
       y1="1350"
       x2="1447.2"
       y2="540"
       id="line3431"
       style="fill:none;stroke:#ffffff;stroke-miterlimit:10" />
    <line
       stroke-miterlimit="10"
       x1="0"
       y1="1410"
       x2="1447.2"
       y2="600"
       id="line3433"
       style="fill:none;stroke:#ffffff;stroke-miterlimit:10" />
    <line
       stroke-miterlimit="10"
       x1="0"
       y1="1470"
       x2="1447.2"
       y2="660"
       id="line3435"
       style="fill:none;stroke:#ffffff;stroke-miterlimit:10" />
    <line
       stroke-miterlimit="10"
       x1="0"
       y1="1530"
       x2="1447.2"
       y2="720"
       id="line3437"
       style="fill:none;stroke:#ffffff;stroke-miterlimit:10" />
    <line
       stroke-miterlimit="10"
       x1="0"
       y1="1590"
       x2="1447.2"
       y2="780"
       id="line3439"
       style="fill:none;stroke:#ffffff;stroke-miterlimit:10" />
    <line
       stroke-miterlimit="10"
       x1="0"
       y1="1650"
       x2="1447.2"
       y2="840"
       id="line3441"
       style="fill:none;stroke:#ffffff;stroke-miterlimit:10" />
    <polyline
       stroke-miterlimit="10"
       points="1447.2,900 0,1710 0,810 1447.2,1620  "
       id="polyline3443"
       style="fill:none;stroke:#ffffff;stroke-miterlimit:10" />
    <polyline
       stroke-miterlimit="10"
       points="1447.2,1020 107.2,1770 107.2,750 1447.2,1500  "
       id="polyline3445"
       style="fill:none;stroke:#ffffff;stroke-miterlimit:10" />
    <polyline
       stroke-miterlimit="10"
       points="1447.2,1140 214.4,1830 214.4,690 1447.2,1380  "
       id="polyline3447"
       style="fill:none;stroke:#ffffff;stroke-miterlimit:10" />
    <polyline
       stroke-miterlimit="10"
       points="1447.2,1260 321.6,1890 321.6,630 1447.2,1260  "
       id="polyline3449"
       style="fill:none;stroke:#ffffff;stroke-miterlimit:10" />
    <polyline
       stroke-miterlimit="10"
       points="1447.2,1380 428.8,1950 428.8,570 1447.2,1140  "
       id="polyline3451"
       style="fill:none;stroke:#ffffff;stroke-miterlimit:10" />
    <polyline
       stroke-miterlimit="10"
       points="1447.2,1500 536,2010 536,510 1447.2,1020  "
       id="polyline3453"
       style="fill:none;stroke:#ffffff;stroke-miterlimit:10" />
    <polyline
       stroke-miterlimit="10"
       points="1447.2,1620 643.2,2070 643.2,450 1447.2,900  "
       id="polyline3455"
       style="fill:none;stroke:#ffffff;stroke-miterlimit:10" />
    <polyline
       stroke-miterlimit="10"
       points="1447.2,1740 750.4,2130 750.4,390 1447.2,780  "
       id="polyline3457"
       style="fill:none;stroke:#ffffff;stroke-miterlimit:10" />
    <polyline
       stroke-miterlimit="10"
       points="1447.2,1860 857.6,2190 857.6,330 1447.2,660  "
       id="polyline3459"
       style="fill:none;stroke:#ffffff;stroke-miterlimit:10" />
    <polyline
       stroke-miterlimit="10"
       points="1447.2,1980 964.8,2250 964.8,270 1447.2,540  "
       id="polyline3461"
       style="fill:none;stroke:#ffffff;stroke-miterlimit:10" />
    <polyline
       stroke-miterlimit="10"
       points="1447.2,2100 1072,2310 1072,210 1447.2,420  "
       id="polyline3463"
       style="fill:none;stroke:#ffffff;stroke-miterlimit:10" />
    <polyline
       stroke-miterlimit="10"
       points="1447.2,2220 1179.2,2370 1179.2,150 1447.2,300  "
       id="polyline3465"
       style="fill:none;stroke:#ffffff;stroke-miterlimit:10" />
    <polyline
       stroke-miterlimit="10"
       points="1447.2,2340 1286.4,2430 1286.4,90 1447.2,180  "
       id="polyline3467"
       style="fill:none;stroke:#ffffff;stroke-miterlimit:10" />
    <polyline
       stroke-miterlimit="10"
       points="1447.2,2460.1 1393.6,2490 1393.6,30 1447.2,60  "
       id="polyline3469"
       style="fill:none;stroke:#ffffff;stroke-miterlimit:10" />
  </g>
</svg>
