<?xml version="1.0" encoding="utf-8"?>
<!DOCTYPE svg PUBLIC "-//W3C//DTD SVG 1.1//EN" "http://www.w3.org/Graphics/SVG/1.1/DTD/svg11.dtd">
<svg version="1.1" id="Layer_1" xmlns="http://www.w3.org/2000/svg" xmlns:xlink="http://www.w3.org/1999/xlink" x="0px" y="0px"
	 viewBox="0 0 1447.2 2520">
<g id="Gridlines" opacity="7.500000e-02">
	<polyline fill="none" stroke="#FFFFFF" stroke-miterlimit="10" points="0,810.1 1447.2,0.1 1447.2,2520.1 0,1710.1 	"/>
	<polyline fill="none" stroke="#FFFFFF" stroke-miterlimit="10" points="1447.2,1560.4 53.7,780.3 53.7,1740 1447.2,959.9 	"/>
	<polyline fill="none" stroke="#FFFFFF" stroke-miterlimit="10" points="1447.2,1440.3 161,720.2 161,1800.1 1447.2,1080 	"/>
	<polyline fill="none" stroke="#FFFFFF" stroke-miterlimit="10" points="1447.2,1320.2 268.3,660.2 268.3,1860.1 1447.2,1200.1 	"/>
	<polyline fill="none" stroke="#FFFFFF" stroke-miterlimit="10" points="1447.2,1200.1 375.1,600.1 375.1,1920.2 1447.2,1320.2 	"/>
	<polyline fill="none" stroke="#FFFFFF" stroke-miterlimit="10" points="1447.2,1080 482.4,540.1 482.4,1980.2 1447.2,1440.3 	"/>
	<polyline fill="none" stroke="#FFFFFF" stroke-miterlimit="10" points="1447.2,959.9 589.7,480 589.7,2040.3 1447.2,1560.4 	"/>
	<polyline fill="none" stroke="#FFFFFF" stroke-miterlimit="10" points="1447.2,840.3 697,420 697,2100.3 1447.2,1680 	"/>
	<polyline fill="none" stroke="#FFFFFF" stroke-miterlimit="10" points="1447.2,720.2 803.8,359.9 803.8,2160.4 1447.2,1800.1 	"/>
	<polyline fill="none" stroke="#FFFFFF" stroke-miterlimit="10" points="1447.2,600.1 911.1,300.4 911.1,2219.9 1447.2,1920.2 	"/>
	<polyline fill="none" stroke="#FFFFFF" stroke-miterlimit="10" points="1447.2,480 1018.5,240.3 1018.5,2280 1447.2,2040.3 	"/>
	<polyline fill="none" stroke="#FFFFFF" stroke-miterlimit="10" points="1447.2,359.9 1125.8,180.3 1125.8,2340 1447.2,2160.4 	"/>
	<polyline fill="none" stroke="#FFFFFF" stroke-miterlimit="10" points="1447.2,240.3 1232.6,120.2 1232.6,2400.1 1447.2,2280 	"/>
	<polyline fill="none" stroke="#FFFFFF" stroke-miterlimit="10" points="1447.2,120.2 1340.4,60.2 1339.9,2460.1 1447.2,2400.1 	"/>
	<line fill="none" stroke="#FFFFFF" stroke-miterlimit="10" x1="1447.2" y1="1680" x2="0" y2="870"/>
	<line fill="none" stroke="#FFFFFF" stroke-miterlimit="10" x1="1447.2" y1="1740" x2="0" y2="930"/>
	<line fill="none" stroke="#FFFFFF" stroke-miterlimit="10" x1="1447.2" y1="1800" x2="0" y2="990"/>
	<line fill="none" stroke="#FFFFFF" stroke-miterlimit="10" x1="1447.2" y1="1860" x2="0" y2="1050"/>
	<line fill="none" stroke="#FFFFFF" stroke-miterlimit="10" x1="1447.2" y1="1920" x2="0" y2="1110"/>
	<line fill="none" stroke="#FFFFFF" stroke-miterlimit="10" x1="1447.2" y1="1980" x2="0" y2="1170"/>
	<line fill="none" stroke="#FFFFFF" stroke-miterlimit="10" x1="1447.2" y1="2040" x2="0" y2="1230"/>
	<line fill="none" stroke="#FFFFFF" stroke-miterlimit="10" x1="1447.2" y1="2100" x2="0" y2="1290"/>
	<line fill="none" stroke="#FFFFFF" stroke-miterlimit="10" x1="1447.2" y1="2160" x2="0" y2="1350"/>
	<line fill="none" stroke="#FFFFFF" stroke-miterlimit="10" x1="1447.2" y1="2220" x2="0" y2="1410"/>
	<line fill="none" stroke="#FFFFFF" stroke-miterlimit="10" x1="1447.2" y1="2280" x2="0" y2="1470"/>
	<line fill="none" stroke="#FFFFFF" stroke-miterlimit="10" x1="1447.2" y1="2340" x2="0" y2="1530"/>
	<line fill="none" stroke="#FFFFFF" stroke-miterlimit="10" x1="1447.2" y1="2400" x2="0" y2="1590"/>
	<line fill="none" stroke="#FFFFFF" stroke-miterlimit="10" x1="1447.2" y1="2460" x2="0" y2="1650"/>
	<line fill="none" stroke="#FFFFFF" stroke-miterlimit="10" x1="0" y1="870.3" x2="1447.2" y2="60"/>
	<line fill="none" stroke="#FFFFFF" stroke-miterlimit="10" x1="0" y1="930.4" x2="1447.2" y2="120"/>
	<line fill="none" stroke="#FFFFFF" stroke-miterlimit="10" x1="0" y1="989.9" x2="1447.2" y2="180"/>
	<line fill="none" stroke="#FFFFFF" stroke-miterlimit="10" x1="0" y1="1050" x2="1447.2" y2="240"/>
	<line fill="none" stroke="#FFFFFF" stroke-miterlimit="10" x1="0" y1="1110" x2="1447.2" y2="300"/>
	<line fill="none" stroke="#FFFFFF" stroke-miterlimit="10" x1="0" y1="1170" x2="1447.2" y2="360"/>
	<line fill="none" stroke="#FFFFFF" stroke-miterlimit="10" x1="0" y1="1230" x2="1447.2" y2="420"/>
	<line fill="none" stroke="#FFFFFF" stroke-miterlimit="10" x1="0" y1="1290" x2="1447.2" y2="480"/>
	<line fill="none" stroke="#FFFFFF" stroke-miterlimit="10" x1="0" y1="1350" x2="1447.2" y2="540"/>
	<line fill="none" stroke="#FFFFFF" stroke-miterlimit="10" x1="0" y1="1410" x2="1447.2" y2="600"/>
	<line fill="none" stroke="#FFFFFF" stroke-miterlimit="10" x1="0" y1="1470" x2="1447.2" y2="660"/>
	<line fill="none" stroke="#FFFFFF" stroke-miterlimit="10" x1="0" y1="1530" x2="1447.2" y2="720"/>
	<line fill="none" stroke="#FFFFFF" stroke-miterlimit="10" x1="0" y1="1590" x2="1447.2" y2="780"/>
	<line fill="none" stroke="#FFFFFF" stroke-miterlimit="10" x1="0" y1="1650" x2="1447.2" y2="840"/>
	<polyline fill="none" stroke="#FFFFFF" stroke-miterlimit="10" points="1447.2,900 0,1710 0,810 1447.2,1620 	"/>
	<polyline fill="none" stroke="#FFFFFF" stroke-miterlimit="10" points="1447.2,1020 107.2,1770 107.2,750 1447.2,1500 	"/>
	<polyline fill="none" stroke="#FFFFFF" stroke-miterlimit="10" points="1447.2,1140 214.4,1830 214.4,690 1447.2,1380 	"/>
	<polyline fill="none" stroke="#FFFFFF" stroke-miterlimit="10" points="1447.2,1260 321.6,1890 321.6,630 1447.2,1260 	"/>
	<polyline fill="none" stroke="#FFFFFF" stroke-miterlimit="10" points="1447.2,1380 428.8,1950 428.8,570 1447.2,1140 	"/>
	<polyline fill="none" stroke="#FFFFFF" stroke-miterlimit="10" points="1447.2,1500 536,2010 536,510 1447.2,1020 	"/>
	<polyline fill="none" stroke="#FFFFFF" stroke-miterlimit="10" points="1447.2,1620 643.2,2070 643.2,450 1447.2,900 	"/>
	<polyline fill="none" stroke="#FFFFFF" stroke-miterlimit="10" points="1447.2,1740 750.4,2130 750.4,390 1447.2,780 	"/>
	<polyline fill="none" stroke="#FFFFFF" stroke-miterlimit="10" points="1447.2,1860 857.6,2190 857.6,330 1447.2,660 	"/>
	<polyline fill="none" stroke="#FFFFFF" stroke-miterlimit="10" points="1447.2,1980 964.8,2250 964.8,270 1447.2,540 	"/>
	<polyline fill="none" stroke="#FFFFFF" stroke-miterlimit="10" points="1447.2,2100 1072,2310 1072,210 1447.2,420 	"/>
	<polyline fill="none" stroke="#FFFFFF" stroke-miterlimit="10" points="1447.2,2220 1179.2,2370 1179.2,150 1447.2,300 	"/>
	<polyline fill="none" stroke="#FFFFFF" stroke-miterlimit="10" points="1447.2,2340 1286.4,2430 1286.4,90 1447.2,180 	"/>
	<polyline fill="none" stroke="#FFFFFF" stroke-miterlimit="10" points="1447.2,2460.1 1393.6,2490 1393.6,30 1447.2,60 	"/>
</g>
</svg>
