<?xml version="1.0" encoding="utf-8"?>
<!-- Generator: Adobe Illustrator 18.1.1, SVG Export Plug-In . SVG Version: 6.00 Build 0)  -->
<svg version="1.1" id="Layer_1" xmlns="http://www.w3.org/2000/svg" xmlns:xlink="http://www.w3.org/1999/xlink" x="0px" y="0px"
	 viewBox="148 680.2 806.6 568" enable-background="new 148 680.2 806.6 568" xml:space="preserve">
<g>
	<path fill="#EA0B8C" d="M250,1129.8c-16.8,0-41.5-4-64-22.5c-23.9-19.4-38-53.4-38-90.6V690.3h115.7v327.8
		c0,57,26.9,86.1,40.6,97.2C293.3,1122.8,273,1129.8,250,1129.8z"/>
	<path fill="#EA0B8C" d="M606.9,1121.9c-4,0-8.4-0.4-12.4-0.9V839.2c0-87.9,71.6-159,159-159c74.2,0,139.6,52.6,155.5,125.4l0.9,3.1
		h40.6v114.4H913V962c0,23.9,18.1,43.3,41.5,45.5V1121c-85.7-2.2-155-72.4-155-159V839.2c0-25.2-20.3-45.5-45.5-45.5
		c-23.9,0-43.3,18.1-45.1,41.5l0,0v4v41.1h61.8v114.4H709v14.6c0,37.1-14.1,71.1-38,90.6C652.4,1114.4,630.8,1121.9,606.9,1121.9z"
		/>
	<g>
		<path fill="#EA0B8C" d="M404.2,1248.2c-24.3,0-49-3.5-74.2-10.6v-102.9c15,5.7,38,11,57.9,11c3.5,0,7.1,0,10.2-0.4
			c31.8-3.1,53.9-19.4,59.2-43.3l2.7-12.8l-9.7,8.8c0,0-21.6,19.9-58.7,19.9c-9.7,0-19.9-1.3-30.5-4c-56.5-15-68.5-61.4-68.5-97.6
			V808.7h114.4v175.4c0,12.4,10.2,22.5,23,22.5c12.8,0,23-10.2,23-22.5V808.7h114.4v279.2c0,80.8-46.8,142.2-118.8,156.4
			C433.8,1246.9,418.7,1248.2,404.2,1248.2L404.2,1248.2z"/>
	</g>
</g>
</svg>
