<?xml version="1.0" encoding="utf-8"?>
<!-- Generator: Adobe Illustrator 18.1.0, SVG Export Plug-In . SVG Version: 6.00 Build 0)  -->
<svg version="1.1" id="Layer_1" xmlns="http://www.w3.org/2000/svg" xmlns:xlink="http://www.w3.org/1999/xlink" x="0px" y="0px"
	 viewBox="0 0 466 55.6" enable-background="new 0 0 466 55.6" xml:space="preserve">
<g>
	<g>
		<path fill="#00BCDD" d="M69.9,21.2c0-7-2-13.7-5.9-19.5C63.3,0.6,62,0,60.7,0c-0.9,0-1.7,0.3-2.5,0.8c-1.8,1.4-2.2,3.9-0.9,5.7
			l0,0.1c2.8,4.4,4.3,9.4,4.3,14.6s-1.5,10.2-4.3,14.6l0,0c-0.5,0.6-1.5,0.8-2.1,0.3c-0.3-0.3-0.6-0.6-0.6-1c-0.1-0.4,0-0.8,0.3-1.1
			l0-0.1c2.4-3.8,3.7-8.2,3.7-12.7c0-4.5-1.3-8.9-3.6-12.7l0-0.1c-0.8-1.1-2-1.7-3.3-1.7c-0.9,0-1.7,0.3-2.5,0.8
			c-0.9,0.7-1.5,1.6-1.6,2.7c-0.2,1.1,0.1,2.2,0.7,3.1c1.4,2.4,2.1,5.1,2.1,7.8c0,2.8-0.7,5.4-2.1,7.8l0,0c-0.5,0.7-1.5,0.8-2.1,0.3
			c-0.7-0.5-0.9-1.4-0.4-2.2l0.1-0.1c1-1.8,1.4-3.8,1.4-5.9c0-2.1-0.5-4.1-1.5-5.9c-0.6-1.2-1.9-1.9-3.2-1.9c-0.7,0-1.3,0.2-1.9,0.5
			c-1,0.6-1.5,2.2-1.5,4.8v37l0.3,0c17.4-2,30.5-16.7,30.5-34.1V21.2L69.9,21.2z M67.4,21.5c-0.1,15.2-10.8,28.3-25.7,31.2V18.8
			c0-0.1,0-0.2,0-0.4c0-0.7,0-2.2,0.4-2.4c0.1-0.1,0.2-0.1,0.4-0.1c0.4,0,0.8,0.3,1.2,0.8c0.5,0.7,1,2.8,1,4.4c0,1.5-0.3,3-1,4.4
			l0,0.1c-1.2,2.1-0.8,4.4,1,5.8c0.7,0.5,1.6,0.8,2.5,0.8c1.3,0,2.6-0.6,3.3-1.7c1.7-2.8,2.5-6,2.5-9.3c0-3.3-0.9-6.5-2.5-9.3l0-0.1
			c-0.2-0.3-0.3-0.7-0.3-1.1c0.1-0.4,0.3-0.8,0.6-1c0.7-0.5,1.7-0.4,2.2,0.3c2.1,3.4,3.2,7.3,3.2,11.2c0,4-1.1,7.8-3.2,11.2
			c-1.3,1.8-0.9,4.4,0.9,5.7c0.7,0.5,1.6,0.8,2.5,0.8c1.3,0,2.6-0.6,3.3-1.7c3.1-4.8,4.8-10.4,4.8-16.1c0-5.7-1.6-11.3-4.7-16.1
			l0-0.1c-0.2-0.3-0.3-0.7-0.3-1.2c0.1-0.4,0.3-0.8,0.6-1c0.7-0.5,1.7-0.4,2.1,0.3c3.5,5.4,5.4,11.6,5.4,18L67.4,21.5L67.4,21.5z"/>
		<path fill="#00BCDD" d="M0,21.2c0-7,2-13.7,5.9-19.5C6.7,0.6,7.9,0,9.2,0c0.9,0,1.7,0.3,2.5,0.8c1.8,1.4,2.2,3.9,0.9,5.7l0,0.1
			C9.7,11,8.3,16,8.3,21.2s1.5,10.2,4.3,14.6l0,0c0.5,0.6,1.5,0.8,2.1,0.3c0.3-0.3,0.6-0.6,0.6-1c0.1-0.4,0-0.8-0.3-1.1l0-0.1
			c-2.4-3.8-3.7-8.2-3.7-12.7c0-4.5,1.3-8.9,3.6-12.7l0-0.1c0.8-1.1,2-1.7,3.3-1.7c0.9,0,1.7,0.3,2.5,0.8c0.9,0.7,1.5,1.6,1.7,2.7
			c0.2,1.1-0.1,2.2-0.7,3.1c-1.4,2.4-2.1,5.1-2.1,7.8c0,2.8,0.7,5.4,2.1,7.8l0,0c0.5,0.7,1.5,0.8,2.1,0.3c0.7-0.5,0.9-1.4,0.4-2.2
			L24.2,27c-1-1.8-1.4-3.8-1.4-5.9c0-2.1,0.5-4.1,1.5-5.9c0.6-1.2,1.9-1.9,3.2-1.9c0.7,0,1.3,0.2,1.9,0.5c1,0.6,1.5,2.2,1.5,4.8
			l0,37l-0.3,0C13.2,53.6,0.1,38.9,0,21.5V21.2L0,21.2z M2.6,21.5c0.1,15.2,10.8,28.3,25.7,31.2V18.8c0-0.1,0-0.2,0-0.4
			c0-0.7,0-2.2-0.4-2.4C27.8,16,27.7,16,27.5,16c-0.4,0-0.8,0.3-1.2,0.8c-0.5,0.7-1,2.8-1,4.4c0,1.5,0.3,3,1,4.4l0,0.1
			c1.2,2.1,0.8,4.4-1,5.8c-0.7,0.5-1.6,0.8-2.5,0.8c-1.3,0-2.5-0.6-3.3-1.7c-1.7-2.8-2.5-6-2.5-9.3c0-3.3,0.9-6.5,2.5-9.3l0-0.1
			c0.2-0.3,0.3-0.7,0.3-1.1c-0.1-0.4-0.3-0.8-0.6-1c-0.7-0.5-1.6-0.4-2.1,0.3c-2.1,3.4-3.2,7.3-3.2,11.2c0,4,1.1,7.8,3.2,11.2
			c1.3,1.8,0.9,4.4-0.9,5.7c-0.7,0.5-1.6,0.8-2.5,0.8c-1.3,0-2.6-0.6-3.3-1.7c-3.1-4.8-4.8-10.4-4.8-16.1c0-5.7,1.6-11.3,4.7-16.1
			l0-0.1c0.2-0.3,0.3-0.7,0.3-1.2c-0.1-0.4-0.3-0.8-0.6-1C9.4,2.4,8.5,2.5,8,3.2c-3.5,5.4-5.4,11.6-5.4,18L2.6,21.5L2.6,21.5z"/>
	</g>
	<g>
		<g>
			<g>
				<g>
					<g>
						<path fill="#1E252B" d="M281.4,27.6c0-9.2,1.3-20.1,15.6-20.1c10.1,0,13.8,5.3,13.8,13H303c0-5.2-2.9-7.1-5.9-7.1
							c-5.6,0-7.2,1.8-7.2,14.3c0,11.7,1.6,14.3,7.2,14.3c4.6,0,5.9-4.7,6-7.8h8.3c0,8.9-5.1,13.6-14.3,13.6
							C282.4,47.7,281.4,36.1,281.4,27.6z"/>
					</g>
				</g>
				<path fill="#1E252B" d="M110.8,15.1H99.9v32.3h-8.2V15.1H80.9V8.3h30V15.1z"/>
				<path fill="#1E252B" d="M146.7,47.4h-8.2V31h-14.1v16.4h-8.2V8.3h8.2v16h14.1v-16h8.2V47.4z"/>
				<path fill="#1E252B" d="M187.5,47.4H179l-2.5-6.9h-14.8l-2.5,6.9h-8.5l15.2-39.1h6.4L187.5,47.4z M174.4,34l-5.1-14.2L164,34
					H174.4z"/>
				<path fill="#1E252B" d="M216.5,47.4h-25V8.3h8.2v32.3h16.8V47.4z"/>
				<path fill="#1E252B" d="M258.6,47.4h-8.2V24.6l-8,14.8h-5.5l-8-14.8v22.8h-8.2V8.3h8l10.9,21.1l10.8-21.1h8V47.4z"/>
				<path fill="#1E252B" d="M275.3,47.4h-8.2V8.3h8.2V47.4z"/>
			</g>
			<g>
				<path fill="#1E252B" d="M345.7,47.4h-25.8V8.2h4.5v35.4h21.3V47.4z"/>
				<path fill="#1E252B" d="M376.7,47.4H372l-3.3-8.9h-18.2l-3.3,8.9h-4.7l15.3-39.1h3.8L376.7,47.4z M367.3,34.9l-7.7-20.7
					l-7.9,20.7H367.3z"/>
				<path fill="#1E252B" d="M410.9,36.6c0,2.3-0.5,4.3-1.5,5.9c-1,1.6-2.5,2.8-4.3,3.6c-1.9,0.8-4,1.2-6.5,1.2h-16.2V8.2H398
					c1.8,0,3.5,0.2,5,0.7c1.6,0.5,2.9,1.2,3.9,2.1c1.1,0.9,1.9,2,2.5,3.3c0.6,1.3,0.9,2.8,0.9,4.4c0,1.4-0.3,2.6-0.8,3.8
					c-0.5,1.2-1.3,2.1-2.2,3c-0.9,0.8-2,1.4-3.1,1.8c1.4,0.5,2.5,1.1,3.6,2c1,0.9,1.8,1.9,2.4,3.2C410.6,33.7,410.9,35.1,410.9,36.6
					z M405.8,18.7c0-2.3-0.7-3.9-2.2-5.1c-1.5-1.1-3.5-1.7-5.9-1.7h-10.9v13.6h10.9c2.4,0,4.4-0.6,5.9-1.7
					C405.1,22.7,405.8,21,405.8,18.7z M406.5,36.4c0-1.5-0.3-2.7-1-3.8c-0.7-1.1-1.6-1.9-2.9-2.5c-1.3-0.6-2.7-0.9-4.4-0.9h-11.3
					v14.4h11.3c2.6,0,4.6-0.7,6.1-2C405.7,40.4,406.5,38.6,406.5,36.4z"/>
				<path fill="#1E252B" d="M444.2,36.6c0,2.3-0.6,4.2-1.8,5.9c-1.2,1.7-2.9,3-5,3.9c-2.2,0.9-4.7,1.3-7.6,1.3c-2.1,0-4-0.2-5.6-0.5
					c-1.7-0.3-3.2-0.9-4.6-1.6c-1.4-0.8-2.8-1.7-4.1-3l3.1-2.9c1.1,1.1,2.3,1.9,3.4,2.5c1.1,0.6,2.4,1.1,3.6,1.4
					c1.3,0.3,2.7,0.4,4.3,0.4c3.1,0,5.5-0.6,7.2-1.9c1.7-1.3,2.6-3.1,2.6-5.3c0-1-0.2-2-0.5-2.8c-0.3-0.9-0.8-1.6-1.5-2.1
					c-0.6-0.5-1.3-0.9-2-1.2c-0.7-0.2-1.9-0.5-3.4-0.7l-4.9-0.7c-3.3-0.5-5.9-1.5-7.7-3c-2.1-1.8-3.2-4.2-3.2-7.3
					c0-2.2,0.5-4.1,1.6-5.8c1.1-1.7,2.6-3,4.7-3.9c2-0.9,4.4-1.4,7.1-1.4c2.6,0,4.9,0.3,6.8,1c1.9,0.6,3.8,1.7,5.6,3.3l-2.9,2.7
					c-1.3-1.1-2.7-2-4.3-2.5c-1.5-0.6-3.4-0.8-5.4-0.8c-1.8,0-3.4,0.3-4.7,0.9c-1.3,0.6-2.3,1.4-3,2.5c-0.7,1.1-1,2.4-1,3.8
					c0,2,0.6,3.5,1.9,4.5c1.3,1.1,3.2,1.8,5.6,2.1l4.6,0.6c1.8,0.3,3.3,0.6,4.5,1c1.2,0.4,2.2,1,3.1,1.7
					C443.1,30.7,444.2,33.3,444.2,36.6z"/>
			</g>
		</g>
		<g>
			<g>
				<g>
					<g>
						<path fill="#1E252B" d="M281.4,27.6c0-9.2,1.3-20.1,15.6-20.1c10.1,0,13.8,5.3,13.8,13H303c0-5.2-2.9-7.1-5.9-7.1
							c-5.6,0-7.2,1.8-7.2,14.3c0,11.7,1.6,14.3,7.2,14.3c4.6,0,5.9-4.7,6-7.8h8.3c0,8.9-5.1,13.6-14.3,13.6
							C282.4,47.7,281.4,36.1,281.4,27.6z"/>
					</g>
				</g>
				<path fill="#1E252B" d="M110.8,15.1H99.9v32.3h-8.2V15.1H80.9V8.3h30V15.1z"/>
				<path fill="#1E252B" d="M146.7,47.4h-8.2V31h-14.1v16.4h-8.2V8.3h8.2v16h14.1v-16h8.2V47.4z"/>
				<path fill="#1E252B" d="M187.5,47.4H179l-2.5-6.9h-14.8l-2.5,6.9h-8.5l15.2-39.1h6.4L187.5,47.4z M174.4,34l-5.1-14.2L164,34
					H174.4z"/>
				<path fill="#1E252B" d="M216.5,47.4h-25V8.3h8.2v32.3h16.8V47.4z"/>
				<path fill="#1E252B" d="M258.6,47.4h-8.2V24.6l-8,14.8h-5.5l-8-14.8v22.8h-8.2V8.3h8l10.9,21.1l10.8-21.1h8V47.4z"/>
				<path fill="#1E252B" d="M275.3,47.4h-8.2V8.3h8.2V47.4z"/>
			</g>
			<g>
				<path fill="#1E252B" d="M345.7,47.4h-25.8V8.2h4.5v35.4h21.3V47.4z"/>
				<path fill="#1E252B" d="M376.7,47.4H372l-3.3-8.9h-18.2l-3.3,8.9h-4.7l15.3-39.1h3.8L376.7,47.4z M367.3,34.9l-7.7-20.7
					l-7.9,20.7H367.3z"/>
				<path fill="#1E252B" d="M410.9,36.6c0,2.3-0.5,4.3-1.5,5.9c-1,1.6-2.5,2.8-4.3,3.6c-1.9,0.8-4,1.2-6.5,1.2h-16.2V8.2H398
					c1.8,0,3.5,0.2,5,0.7c1.6,0.5,2.9,1.2,3.9,2.1c1.1,0.9,1.9,2,2.5,3.3c0.6,1.3,0.9,2.8,0.9,4.4c0,1.4-0.3,2.6-0.8,3.8
					c-0.5,1.2-1.3,2.1-2.2,3c-0.9,0.8-2,1.4-3.1,1.8c1.4,0.5,2.5,1.1,3.6,2c1,0.9,1.8,1.9,2.4,3.2C410.6,33.7,410.9,35.1,410.9,36.6
					z M405.8,18.7c0-2.3-0.7-3.9-2.2-5.1c-1.5-1.1-3.5-1.7-5.9-1.7h-10.9v13.6h10.9c2.4,0,4.4-0.6,5.9-1.7
					C405.1,22.7,405.8,21,405.8,18.7z M406.5,36.4c0-1.5-0.3-2.7-1-3.8c-0.7-1.1-1.6-1.9-2.9-2.5c-1.3-0.6-2.7-0.9-4.4-0.9h-11.3
					v14.4h11.3c2.6,0,4.6-0.7,6.1-2C405.7,40.4,406.5,38.6,406.5,36.4z"/>
				<path fill="#1E252B" d="M444.2,36.6c0,2.3-0.6,4.2-1.8,5.9c-1.2,1.7-2.9,3-5,3.9c-2.2,0.9-4.7,1.3-7.6,1.3c-2.1,0-4-0.2-5.6-0.5
					c-1.7-0.3-3.2-0.9-4.6-1.6c-1.4-0.8-2.8-1.7-4.1-3l3.1-2.9c1.1,1.1,2.3,1.9,3.4,2.5c1.1,0.6,2.4,1.1,3.6,1.4
					c1.3,0.3,2.7,0.4,4.3,0.4c3.1,0,5.5-0.6,7.2-1.9c1.7-1.3,2.6-3.1,2.6-5.3c0-1-0.2-2-0.5-2.8c-0.3-0.9-0.8-1.6-1.5-2.1
					c-0.6-0.5-1.3-0.9-2-1.2c-0.7-0.2-1.9-0.5-3.4-0.7l-4.9-0.7c-3.3-0.5-5.9-1.5-7.7-3c-2.1-1.8-3.2-4.2-3.2-7.3
					c0-2.2,0.5-4.1,1.6-5.8c1.1-1.7,2.6-3,4.7-3.9c2-0.9,4.4-1.4,7.1-1.4c2.6,0,4.9,0.3,6.8,1c1.9,0.6,3.8,1.7,5.6,3.3l-2.9,2.7
					c-1.3-1.1-2.7-2-4.3-2.5c-1.5-0.6-3.4-0.8-5.4-0.8c-1.8,0-3.4,0.3-4.7,0.9c-1.3,0.6-2.3,1.4-3,2.5c-0.7,1.1-1,2.4-1,3.8
					c0,2,0.6,3.5,1.9,4.5c1.3,1.1,3.2,1.8,5.6,2.1l4.6,0.6c1.8,0.3,3.3,0.6,4.5,1c1.2,0.4,2.2,1,3.1,1.7
					C443.1,30.7,444.2,33.3,444.2,36.6z"/>
			</g>
		</g>
		<path fill="#1E252B" d="M455,15.9h-1.3V9.4h-2.2V8.3h5.8v1.1H455V15.9z M461.3,15.9l-2.1-5.9h-0.1l0.1,1.4v4.6h-1.3V8.3h2l2.1,5.9
			l2.1-5.9h1.9v7.6h-1.3v-4.4l0.1-1.4h-0.1l-2.2,5.9H461.3z"/>
	</g>
</g>
</svg>
